<?xml version="1.0" encoding="utf-8"?>
<!-- Generator: Adobe Illustrator 19.2.1, SVG Export Plug-In . SVG Version: 6.00 Build 0)  -->
<svg version="1.1" id="Layer_1" xmlns:sketch="http://www.bohemiancoding.com/sketch/ns"
	 xmlns="http://www.w3.org/2000/svg" xmlns:xlink="http://www.w3.org/1999/xlink" x="0px" y="0px" viewBox="0 0 50 50"
	 style="enable-background:new 0 0 50 50;" xml:space="preserve">
<style type="text/css">
	.st0{display:none;}
	.st1{display:inline;}
	.st2{fill:#FFFFFF;fill-opacity:0;}
	.st3{fill:none;stroke:#000000;stroke-width:2;stroke-linecap:round;stroke-linejoin:round;stroke-miterlimit:10;}
	.st4{display:none;fill:none;stroke:#000000;stroke-width:2;stroke-linecap:round;stroke-linejoin:round;stroke-miterlimit:10;}
	.st5{fill:none;stroke:#000000;stroke-width:2;stroke-miterlimit:10;}
	.st6{display:inline;fill:none;stroke:#000000;stroke-width:2;stroke-miterlimit:10;}
	.st7{display:inline;fill:none;stroke:#000000;stroke-width:2;stroke-linecap:round;stroke-linejoin:round;stroke-miterlimit:10;}
	.st8{display:none;fill:none;stroke:#000000;stroke-width:2;stroke-miterlimit:10;}
</style>
<title>Group 43</title>
<desc>Created with Sketch.</desc>
<g id="Welcome" sketch:type="MSPage" class="st0">
	<g id="Group-43" sketch:type="MSLayerGroup" class="st1">
		<rect id="Rectangle-695" sketch:type="MSShapeGroup" class="st2" width="50" height="50">
		</rect>
		<path id="Shape" sketch:type="MSShapeGroup" d="M49,22h-7V1c0-0.6-0.4-1-1-1H1C0.4,0,0,0.4,0,1v32c0,0.6,0.4,1,1,1h7v7
			c0,0.4,0.2,0.7,0.5,0.9C8.7,42,8.8,42,9,42c0.2,0,0.4-0.1,0.6-0.2L21.3,34H22v7c0,0.6,0.4,1,1,1h5.7l11.7,7.8
			c0.2,0.1,0.4,0.2,0.6,0.2c0.2,0,0.3,0,0.5-0.1c0.3-0.2,0.5-0.5,0.5-0.9v-7h7c0.6,0,1-0.4,1-1V23C50,22.4,49.6,22,49,22L49,22z
			 M21,32c-0.2,0-0.4,0.1-0.6,0.2l-10.4,7V33c0-0.6-0.4-1-1-1H2V2h38v30H21L21,32z M48,40h-7c-0.6,0-1,0.4-1,1v6.1l-10.4-7
			C29.4,40.1,29.2,40,29,40h-5v-6h17c0.6,0,1-0.4,1-1v-9h6V40L48,40z"/>
	</g>
</g>
<g class="st0">
	<g class="st1">
		<ellipse class="st3" cx="16.4" cy="10" rx="14.9" ry="6"/>
		<path class="st3" d="M24.2,24.3c-2.3,0.6-4.9,0.9-7.7,0.9c-8.2,0-14.9-2.7-14.9-6"/>
		<line class="st3" x1="31.3" y1="10" x2="31.3" y2="16.3"/>
		<line class="st3" x1="1.5" y1="10" x2="1.5" y2="18.9"/>
	</g>
	<g class="st1">
		<path class="st3" d="M26.2,33.2c-2.6,1-5.9,1.6-9.7,1.6c-8.2,0-14.9-2.7-14.9-6"/>
		<path class="st3" d="M31.3,28.4"/>
		<line class="st3" x1="1.5" y1="19.5" x2="1.5" y2="28.4"/>
	</g>
	<g class="st1">
		<path class="st3" d="M30.1,40.6c-2.3,2.2-7.6,3.7-13.7,3.7c-8.2,0-14.9-2.7-14.9-6"/>
		<line class="st3" x1="1.5" y1="29.2" x2="1.5" y2="38"/>
	</g>
	<g class="st1">
		<path class="st3" d="M34.6,14.9l-8.1,3.6l-0.3,0.1c-3,1.4-2.8,8.6,0.6,16.1s8.5,12.5,11.6,11.2l0.3-0.1l8.1-3.6"/>
		<ellipse transform="matrix(0.9131 -0.4077 0.4077 0.9131 -8.0682 19.0674)" class="st3" cx="40.7" cy="28.5" rx="6" ry="14.9"/>
	</g>
</g>
<path class="st4" d="M14.7,6.4c1.5,0.6,2.4,1.5,2.4,2.5c0,1-0.9,1.9-2.3,2.5H1.4v13.5h0c0.6,1.4,1.5,2.3,2.5,2.3
	c1,0,1.9-0.9,2.5-2.4l0,0c0.5-0.8,1.1-1.2,1.8-1.2c1.7,0,3.1,2.9,3.1,6.4c0,3.5-1.4,6.4-3.1,6.4c-0.7,0-1.3-0.5-1.8-1.3l0,0
	c-0.6-1.4-1.5-2.3-2.5-2.3c-1,0-1.9,0.9-2.5,2.4l0,0v13.3h13.5c1.4-0.6,2.3-1.5,2.3-2.5c0-1-1-1.9-2.4-2.5l0,0
	c-0.7-0.5-1.2-1.1-1.2-1.8c0-1.7,2.9-3.1,6.4-3.1c3.5,0,6.4,1.4,6.4,3.1c0,0.7-0.5,1.3-1.3,1.8l0,0c-1.4,0.6-2.3,1.5-2.3,2.5
	c0,1,0.9,1.9,2.4,2.5h13.3V35.1c0.6-1.5,1.5-2.4,2.5-2.4c1,0,2.1,1,2.8,2.4v0c0.5,0.8,1.1,1.2,1.8,1.2c1.7,0,3.1-2.9,3.1-6.4
	c0-3.5-1.4-6.4-3.1-6.4c-0.6,0-1.2,0.4-1.7,1.1c-0.6,1.5-1.9,2.4-2.9,2.4c-1,0-1.9-0.9-2.5-2.3V11.4h-13h-0.3
	c-1.5-0.6-2.4-1.5-2.4-2.5c0-1,0.9-1.8,2.3-2.5l0,0c0.8-0.5,1.3-1.2,1.3-1.9c0-1.7-2.9-3.1-6.4-3.1c-3.5,0-6.4,1.4-6.4,3.1
	C13.5,5.2,14,5.8,14.7,6.4L14.7,6.4z"/>
<g class="st0">
	<g class="st1">
		<polyline class="st5" points="44.9,20.3 44.9,49.1 5,49.1 5,20.3 		"/>
		<rect x="1.5" y="9.2" class="st5" width="46.9" height="11.1"/>
	</g>
	<line class="st6" x1="24.9" y1="9.2" x2="24.9" y2="49.1"/>
	<path class="st6" d="M15.3,9.2C13,7,12.2,4.1,13.5,2.5c1.4-1.9,5-1.5,8,0.8c2.1,1.6,3.4,3.8,3.4,5.6"/>
	<path class="st6" d="M34.6,9.2c2.3-2.2,3.1-5.1,1.9-6.7c-1.4-1.9-5-1.5-8,0.8c-2.2,1.7-3.5,4.1-3.4,5.9"/>
</g>
<g class="st0">
	<ellipse class="st7" cx="25.3" cy="39.9" rx="3.6" ry="3.6"/>
	<path class="st7" d="M14.2,31c2.5-3.4,6.6-5.6,11.1-5.6c4.4,0,8.3,2,10.8,5.2"/>
	<path class="st7" d="M7.4,24.5c4.3-5.2,10.7-8.5,17.9-8.5c7,0,13.3,3.1,17.6,8"/>
	<path class="st7" d="M1.5,18.5C7.3,11.9,15.8,7.7,25.3,7.7c9.3,0,17.7,4.1,23.5,10.5"/>
</g>
<g class="st0">
	<g class="st1">
		<rect x="2.6" y="10.7" class="st5" width="45.3" height="28.9"/>
	</g>
	<g class="st1">
		<polyline class="st5" points="2.6,10.7 25.2,31.4 47.9,10.7 		"/>
		<line class="st5" x1="32" y1="25.1" x2="47.9" y2="39.6"/>
		<line class="st5" x1="2.6" y1="39.6" x2="18.2" y2="25.2"/>
	</g>
</g>
<path class="st8" d="M23.8,5.2l-5.9,12L4.7,19.1c-1.2,0.2-1.6,1.6-0.8,2.4l9.5,9.3L11.2,44c-0.2,1.1,1,2,2,1.5l12.1-6.1l11.5,6.1
	c1,0.5,2.2-0.3,2-1.5l-2.3-13.1l9.5-9.3c0.8-0.8,0.4-2.2-0.8-2.4l-13.2-1.9l-5.9-12C25.8,4.2,24.3,4.2,23.8,5.2z"/>
<g class="st0">
	<rect x="8.7" y="9.6" class="st7" width="31.4" height="24.5"/>
	<line class="st7" x1="24.4" y1="34.2" x2="24.4" y2="45.5"/>
	<line class="st7" x1="18.2" y1="34.2" x2="10.1" y2="48.3"/>
	<line class="st7" x1="30.5" y1="34.2" x2="38.7" y2="48.3"/>
	<polyline class="st7" points="8.7,9.6 8.7,6 40.1,6 40.1,9.6 	"/>
	<line class="st7" x1="24.4" y1="6" x2="24.4" y2="1.4"/>
</g>
<g class="st0">
	<g class="st1">
		<circle class="st5" cx="24.9" cy="25" r="18.9"/>
		<line class="st5" x1="24.6" y1="10.7" x2="24.6" y2="28.6"/>
		<line class="st5" x1="24.6" y1="28.6" x2="30.7" y2="22.5"/>
	</g>
	<circle class="st6" cx="24.9" cy="25" r="23.6"/>
</g>
<g class="st0">
	<path class="st6" d="M18.8,35.9"/>
	<path class="st6" d="M32.2,35.2c0-2.7,1.3-5.2,3.3-7c3-2.7,4.8-6.6,4.8-10.9c0-9.1-8.3-16.4-17.8-14.5c-6,1.2-10.8,6.2-11.7,12.3
		c-0.8,5.2,1.2,10,4.7,13.2c2,1.8,3.1,4.3,3.2,6.9"/>
	<rect x="18.8" y="35.1" class="st6" width="13.4" height="8.2"/>
	<path class="st6" d="M30.7,43.3L30.7,43.3c0,2.3-1.5,4.1-3.3,4.1h-3.6c-1.8,0-3.3-1.8-3.3-4.1l0,0"/>
	<path class="st6" d="M23.5,35.1v-16c0-1.1-0.9-2-2-2l0,0c-1.1,0-2,0.9-2,2l0,0c0,1.1,0.9,2,2,2h8.1c1.1,0,2-0.9,2-2l0,0
		c0-1.1-0.9-2-2-2l0,0c-1.1,0-2,0.9-2,2l0,16.1"/>
</g>
<g>
	<path class="st5" d="M38.4,47c0-6.6-4.6-12-10.8-13.4v-3.4c2.3-1.1,3.9-3.4,3.9-6.2c0-0.6,0-2.8,0-3.4c0-3.8-3.1-6.8-6.8-6.8
		c-3.8,0-6.8,3.1-6.8,6.8c0,0.6,0,2.8,0,3.4c0,2.7,1.6,5,3.8,6.1v3.5C15.6,35,11.1,40.5,11.1,47H38.4z"/>
	<path class="st5" d="M31.6,18.6c1-0.6,2-1.1,3.2-1.3v-2.6c-1.7-0.8-2.9-2.6-2.9-4.6c0-0.4,0-2.1,0-2.6c0-2.8,2.3-5.2,5.2-5.2
		c2.8,0,5.2,2.3,5.2,5.2c0,0.4,0,2.1,0,2.6c0,2.1-1.2,3.8-3,4.6v2.6c4.7,1,8.1,5.1,8.1,10.1H30.7"/>
	<path class="st5" d="M18.2,18.6c-1-0.6-2.1-1.1-3.2-1.3v-2.6c1.7-0.8,3-2.6,3-4.6c0-0.4,0-2.1,0-2.6c0-2.8-2.3-5.2-5.2-5.2
		c-2.8,0-5.2,2.3-5.2,5.2c0,0.4,0,2.1,0,2.6c0,2,1.2,3.7,2.9,4.6v2.6c-4.6,1-8,5.1-8,10.1h15.7"/>
</g>
</svg>
