<?xml version="1.0" encoding="iso-8859-1"?>
<!-- Generator: Adobe Illustrator 22.0.1, SVG Export Plug-In . SVG Version: 6.00 Build 0)  -->
<svg version="1.1" id="Layer_1" xmlns="http://www.w3.org/2000/svg" xmlns:xlink="http://www.w3.org/1999/xlink" x="0px" y="0px"
	 viewBox="0 0 100.25 100.25" style="enable-background:new 0 0 100.25 100.25;" xml:space="preserve">
<g>
	<path d="M38.446,45.11c4.113,0,8.062,0.896,11.739,2.664c0.748,0.358,1.644,0.045,2.002-0.701c0.359-0.747,0.045-1.644-0.701-2.002
		c-4.086-1.965-8.473-2.961-13.04-2.961c-16.614,0-30.131,13.517-30.131,30.13c0,0.828,0.672,1.5,1.5,1.5h26.009
		c0.828,0,1.5-0.672,1.5-1.5s-0.672-1.5-1.5-1.5H11.356C12.137,56.475,23.989,45.11,38.446,45.11z"/>
	<path d="M37.944,39.507c9.621,0,17.449-7.827,17.449-17.447c0-9.619-7.828-17.445-17.449-17.445
		c-9.618,0-17.442,7.826-17.442,17.445C20.501,31.68,28.326,39.507,37.944,39.507z M37.944,7.615c7.968,0,14.449,6.48,14.449,14.445
		c0,7.966-6.481,14.447-14.449,14.447c-7.964,0-14.442-6.481-14.442-14.447C23.501,14.095,29.98,7.615,37.944,7.615z"/>
	<path d="M87.179,53.74h-35.71c-2.837,0-5.146,2.309-5.146,5.146v21.71c0,2.837,2.308,5.145,5.145,5.145h3.855v8.667
		c0,0.595,0.351,1.133,0.895,1.372c0.194,0.086,0.4,0.128,0.605,0.128c0.367,0,0.729-0.135,1.012-0.393l10.699-9.774H87.18
		c2.836,0,5.144-2.308,5.144-5.144V58.885C92.324,56.047,90.016,53.74,87.179,53.74z M89.324,80.596
		c0,1.182-0.962,2.144-2.144,2.144H67.952c-0.374,0-0.735,0.14-1.012,0.393l-8.617,7.872V84.24c0-0.828-0.672-1.5-1.5-1.5h-5.355
		c-1.183,0-2.145-0.962-2.145-2.145v-21.71c0-1.183,0.963-2.146,2.146-2.146h35.71c1.183,0,2.145,0.962,2.145,2.145V80.596z"/>
	<path d="M60.324,66.847c-1.105,0-2,0.896-2,2c0,1.105,0.895,2,2,2c1.104,0,2-0.896,2-2C62.323,67.743,61.428,66.847,60.324,66.847z
		"/>
	<path d="M70.324,66.847c-1.105,0-2,0.896-2,2c0,1.105,0.895,2,2,2c1.104,0,2-0.896,2-2C72.323,67.743,71.428,66.847,70.324,66.847z
		"/>
	<path d="M79.324,66.847c-1.105,0-2,0.896-2,2c0,1.105,0.895,2,2,2c1.104,0,2-0.896,2-2C81.323,67.743,80.428,66.847,79.324,66.847z
		"/>
</g>
</svg>
