<?xml version="1.0" standalone="no"?>
<!DOCTYPE svg PUBLIC "-//W3C//DTD SVG 1.1//EN" "http://www.w3.org/Graphics/SVG/1.1/DTD/svg11.dtd" >
<svg xmlns="http://www.w3.org/2000/svg" xmlns:xlink="http://www.w3.org/1999/xlink" version="1.1">
<metadata>
Created by FontForge 20200427 at Fri Apr 28 19:42:08 2017
 By www
Copyright (c) 2017 ParaType, Inc., ParaType Ltd. All rights reserved.
</metadata>
<defs>
<font id="MediatorSerifWeb" horiz-adv-x="428" >
  <font-face 
    font-family="Mediator Serif Web"
    font-weight="400"
    font-stretch="normal"
    units-per-em="1000"
    panose-1="2 6 5 3 5 2 3 2 2 4"
    ascent="800"
    descent="-200"
    x-height="490"
    cap-height="700"
    bbox="-395 -320 1180 964"
    underline-thickness="50"
    underline-position="-100"
    unicode-range="U+000D-FEFF"
  />
<missing-glyph horiz-adv-x="500" 
d="M442 8v496h-384v-496h384zM50 512h400v-512h-400v512z" />
    <glyph glyph-name="afii10017small.var.accented" unicode="&#xf350;`" horiz-adv-x="703" 
d="M47 49q22 0 39 14.5t28 40.5l188 446h100l211 -501h65v-49h-242v49h32q15 0 21 7.5t6 18.5q0 7 -2 13l-4 12l-24 59h-261l-24 -58q-8 -19 -8 -30t5.5 -16.5t19.5 -5.5h32v-49h-204v49h22zM361 408q-8 17 -14 36t-11 33h-4q-5 -14 -12 -33.5t-13 -33.5l-84 -197h224z
M503 732l-124 -127h-54l67 127h111z" />
    <glyph glyph-name="afii10022small.var.accented" unicode="&#xf355;`" horiz-adv-x="528" 
d="M70 49q19 0 25.5 10t6.5 32v410h-69v49h443v-142h-51v20q0 38 -19 54t-48 16h-159v-193h131v57h51v-169h-51v57h-131v-198h168q26 0 45.5 16t19.5 54v26h51v-148h-450v49h37zM422 732l-124 -127h-54l67 127h111z" />
    <glyph glyph-name="afii10026small.var.accented" unicode="&#xf358;`" horiz-adv-x="669" 
d="M70 49q19 0 25.5 10t6.5 32v410h-69v49h230v-49h-36q-28 0 -28 -42v-263q0 -22 -2 -41.5t-4 -49.5h3q8 14 16.5 31.5t18.5 32.5l251 381h153v-49h-39q-30 0 -30 -42v-410h69v-49h-229v49h35q29 0 29 42v262q0 29 6 92h-3q-10 -17 -21 -38.5t-21 -36.5l-244 -370h-154v49
h37zM491 732l-124 -127h-54l67 127h111z" />
    <glyph glyph-name="afii10032small.var.accented" unicode="&#xf35e;`" horiz-adv-x="642" 
d="M41 275q0 64 19 116t55 89.5t88 58t118 20.5t118 -20.5t88 -58t55 -89.5t19 -116t-19 -116t-55 -89.5t-88 -58t-118 -20.5q-65 0 -117 20.5t-88 58t-55.5 89.5t-19.5 116zM498 275q0 36 -7.5 76.5t-27.5 75t-54 57t-88 22.5q-53 0 -87.5 -22.5t-54.5 -57t-27.5 -75
t-7.5 -76.5t7.5 -76.5t27.5 -75t54.5 -57t87.5 -22.5q54 0 88 22.5t54 57t27.5 75t7.5 76.5zM477 732l-124 -127h-54l67 127h111z" />
    <glyph glyph-name="afii10037small.var.accented" unicode="&#xf363;`" horiz-adv-x="622" 
d="M146 80h76q25 0 42.5 13t32.5 40l10 18l-218 350h-64v49h244v-49h-27q-12 0 -19 -6.5t-7 -15.5q0 -6 2.5 -14t8.5 -17l90 -144q7 -11 14.5 -27t13.5 -31h4q5 14 11 27l12 26l71 151q3 7 5.5 15t2.5 13q0 23 -32 23h-25v49h203v-49h-20q-22 0 -40 -13.5t-32 -43.5
l-138 -306q-37 -78 -78 -112.5t-95 -34.5q-12 0 -25.5 3t-22.5 9v77zM470 732l-124 -127h-54l67 127h111z" />
    <glyph glyph-name="afii10045small.var.accented" unicode="&#xf36b;`" horiz-adv-x="809" 
d="M70 49q19 0 25.5 10t6.5 32v410h-69v49h235v-49h-37q-19 0 -25.5 -10t-6.5 -32v-121h107q42 0 78.5 -9t63.5 -28.5t43 -50.5t16 -76q0 -52 -20.5 -85.5t-52 -53t-68.5 -27.5t-70 -8h-263v49h37zM579 49q19 0 25.5 10t6.5 32v410h-69v49h234v-49h-36q-19 0 -25.5 -10
t-6.5 -32v-410h68v-49h-234v49h37zM285 52q20 0 41.5 7t39 21.5t28.5 37t11 54.5q0 33 -11.5 54.5t-29 35t-39.5 19t-43 5.5h-85v-234h88zM548 732l-124 -127h-54l67 127h111z" />
    <glyph glyph-name="afii10047small.var.accented" unicode="&#xf36d;`" horiz-adv-x="573" 
d="M42 148h79v-13q0 -30 12.5 -48t31 -27.5t40.5 -12.5t41 -3q45 0 79 18.5t56.5 48.5t33.5 67.5t11 75.5h-224v54h224q0 39 -10.5 74.5t-32 63t-54 44t-75.5 16.5q-19 0 -41.5 -3t-41.5 -13t-32 -30t-13 -54v-12h-79v96q44 32 100 50.5t119 18.5q60 0 109.5 -18t84 -52.5
t53.5 -85.5t19 -117q0 -72 -22.5 -127t-61.5 -92.5t-90.5 -56.5t-109.5 -19q-68 0 -118 18t-88 47v92zM411 732l-124 -127h-54l67 127h111z" />
    <glyph glyph-name="afii10048small.var.accented" unicode="&#xf36e;`" horiz-adv-x="905" 
d="M199 260v-211h64v-49h-230v49h37q19 0 25.5 10t6.5 32v410h-69v49h230v-49h-36q-28 0 -28 -42v-144h117q5 55 26 100.5t56 77t83 49t108 17.5q65 0 116 -20.5t86.5 -58t54 -89.5t18.5 -116t-18.5 -116t-54 -89.5t-86.5 -58t-116 -20.5q-63 0 -113.5 19t-85.5 54.5
t-54.5 85t-21.5 110.5h-115zM761 275q0 36 -7 76.5t-26 75t-52.5 57t-86.5 22.5t-86.5 -22.5t-52.5 -57t-26 -75t-7 -76.5t7 -76.5t26 -75t52.5 -57t86.5 -22.5t86.5 22.5t52.5 57t26 75t7 76.5zM516 732l-124 -127h-54l67 127h111z" />
    <glyph glyph-name="afii10049small.var.accented" unicode="&#xf36f;`" horiz-adv-x="613" 
d="M94 49l140 185q-28 6 -52.5 17.5t-42.5 30t-28 43.5t-10 57q0 56 21.5 89.5t53.5 51t68.5 22.5t66.5 5h269v-49h-38q-31 0 -31 -42v-410h69v-49h-233v49h39q29 0 29 42v129h-83l-161 -220h-142v49h65zM416 498h-87q-20 0 -42 -5.5t-40.5 -19t-30.5 -35.5t-12 -55
q0 -32 12.5 -53.5t31 -34t41.5 -18t44 -5.5h83v226zM488 732l-124 -127h-54l67 127h111z" />
    <glyph glyph-name="afii10023small.var.accented" unicode="&#xf371;`" horiz-adv-x="528" 
d="M70 49q19 0 25.5 10t6.5 32v410h-69v49h443v-142h-51v20q0 38 -19 54t-48 16h-159v-193h131v57h51v-169h-51v57h-131v-198h168q26 0 45.5 16t19.5 54v26h51v-148h-450v49h37zM88 661q0 22 14.5 36t34.5 14t34 -14t14 -36q0 -20 -14 -33.5t-36 -13.5q-20 0 -33.5 13.5
t-13.5 33.5zM355 661q0 20 13.5 35t34.5 15q20 0 34.5 -14t14.5 -36q0 -20 -14.5 -33.5t-34.5 -13.5t-34 13.5t-14 33.5zM356 728l-105 -123h-49l58 123h96z" />
    <glyph glyph-name="afii10017.var.accented" unicode="&#x410;`" horiz-adv-x="840" 
d="M55 50q24 0 45.5 17t36.5 53l236 580h98l264 -650h80v-50h-279v50h42q17 0 24 11.5t7 25.5q0 8 -2 15.5t-4 14.5l-32 83h-332l-32 -82q-9 -23 -9 -39q0 -14 6 -21.5t22 -7.5h43v-50h-244v50h30zM437 534q-6 14 -14 38.5t-13 42.5h-5q-8 -19 -17 -42t-15 -37l-116 -282
h297zM587 926l-147 -153h-53l81 153h119z" />
    <glyph glyph-name="afii10022.var.accented" unicode="&#x415;`" horiz-adv-x="626" 
d="M82 50q24 0 32 14t8 43v543h-87v50h532v-177h-56v28q0 55 -25.5 75.5t-59.5 20.5h-207v-265h177v80h56v-213h-56v80h-177v-276h219q15 0 30 4.5t26.5 15.5t18.5 29.5t7 46.5v35h56v-184h-541v50h47zM472 926l-147 -153h-53l81 153h119z" />
    <glyph glyph-name="afii10026.var.accented" unicode="&#x418;`" horiz-adv-x="796" 
d="M82 50q24 0 32 14t8 43v543h-87v50h266v-50h-47q-35 0 -35 -57v-373q0 -14 -0.5 -25.5t-1.5 -24.5t-2.5 -28.5t-2.5 -36.5h3q9 15 20 37t22 39l331 519h173v-50h-50q-37 0 -37 -57v-543h87v-50h-266v50h47q35 0 35 57v371q0 16 1.5 42.5t5.5 74.5h-3q-14 -26 -27.5 -52
t-24.5 -43l-321 -500h-173v50h47zM578 926l-147 -153h-53l81 153h119z" />
    <glyph glyph-name="afii10032.var.accented" unicode="&#x41e;`" horiz-adv-x="760" 
d="M45 350q0 81 23 147.5t66.5 114t105.5 73.5t140 26t140 -26t105.5 -73.5t66.5 -114t23 -147.5t-23.5 -147.5t-67 -114t-105.5 -73.5t-139 -26t-139 26t-105.5 73.5t-67 114t-23.5 147.5zM612 350q0 30 -4.5 64.5t-14.5 68.5t-27.5 66t-43 56t-61 38.5t-81.5 14.5
t-81.5 -14.5t-61 -38.5t-43 -56t-27.5 -66t-14.5 -68.5t-4.5 -64.5q0 -45 10 -99t36.5 -100.5t71.5 -77.5t114 -31t114 31t71.5 77.5t36.5 100.5t10 99zM547 926l-147 -153h-53l81 153h119z" />
    <glyph glyph-name="afii10037.var.accented" unicode="&#x423;`" horiz-adv-x="739" 
d="M173 88h86q31 0 53.5 20.5t41.5 63.5l13 29l-262 449h-80v50h278v-50h-31q-34 0 -34 -29q0 -19 14 -41l128 -222q8 -13 15 -28t15 -35h3q6 17 12 31.5t12 28.5l96 228q3 8 5 17.5t2 16.5q0 33 -41 33h-29v50h244v-50h-26q-26 0 -48.5 -16t-40.5 -59l-173 -403
q-23 -53 -46.5 -88.5t-48.5 -56.5t-51.5 -29.5t-54.5 -8.5q-13 0 -28 3t-24 8v88zM548 926l-147 -153h-53l81 153h119z" />
    <glyph glyph-name="afii10045.var.accented" unicode="&#x42b;`" horiz-adv-x="956" 
d="M82 50q24 0 32 14t8 43v543h-87v50h271v-50h-47q-24 0 -32 -14t-8 -43v-173h137q48 0 92.5 -9t78.5 -32t54 -62.5t20 -100.5q0 -60 -23 -101.5t-59.5 -67t-82 -36.5t-90.5 -11h-311v50h47zM697 50q24 0 32 14t8 43v543h-87v50h271v-50h-47q-24 0 -32 -14t-8 -43v-543h87
v-50h-271v50h47zM340 53q25 0 53 9t51 28.5t38.5 50t15.5 74.5q0 45 -15.5 74t-39 46.5t-52 24t-54.5 6.5h-119v-313h122zM641 926l-147 -153h-53l81 153h119z" />
    <glyph glyph-name="afii10047.var.accented" unicode="&#x42d;`" horiz-adv-x="673" 
d="M45 177h87v-17q0 -39 16 -62.5t40 -36t51.5 -16t50.5 -3.5q58 0 102 26.5t72.5 68.5t43 94t14.5 102h-288v54h288q0 51 -13.5 99.5t-41 87t-69.5 61.5t-98 23q-24 0 -52.5 -4t-53 -17.5t-41 -40t-16.5 -71.5v-14h-87v113q57 45 125 66t135 21q73 0 132 -23.5t100 -68
t63.5 -108.5t22.5 -145q0 -94 -27.5 -164.5t-74 -118t-108 -71t-129.5 -23.5q-79 0 -138 21.5t-106 60.5v106zM476 926l-147 -153h-53l81 153h119z" />
    <glyph glyph-name="afii10048.var.accented" unicode="&#x42e;`" horiz-adv-x="1075" 
d="M219 339v-289h82v-50h-266v50h47q24 0 32 14t8 43v543h-87v50h266v-50h-47q-35 0 -35 -57v-200h152q6 72 31 130.5t67 100.5t100.5 64.5t130.5 22.5q78 0 139 -26t103.5 -73.5t65 -114t22.5 -147.5t-22.5 -147.5t-65 -114t-104 -73.5t-138.5 -26q-76 0 -136.5 25t-103 71
t-66 110.5t-24.5 143.5h-151zM927 350q0 45 -9.5 98.5t-34.5 100t-69.5 78t-113.5 31.5t-113.5 -31.5t-69.5 -78t-34.5 -100t-9.5 -98.5t9.5 -99t34.5 -100.5t69.5 -77.5t113.5 -31t113.5 31t69.5 77.5t34.5 100.5t9.5 99zM602 926l-147 -153h-53l81 153h119z" />
    <glyph glyph-name="afii10049.var.accented" unicode="&#x42f;`" horiz-adv-x="725" 
d="M109 50l180 255q-36 6 -67 20.5t-53.5 38t-35 56t-12.5 74.5q0 66 25 106.5t63 62.5t81.5 29.5t81.5 7.5h318v-50h-50q-37 0 -37 -57v-543h87v-50h-271v50h52q35 0 35 57v188h-116l-204 -295h-159v50h82zM507 647h-121q-23 0 -51.5 -6t-53 -22.5t-41 -46.5t-16.5 -78
q0 -45 16.5 -73.5t41 -44.5t52.5 -22t50 -6h123v299zM571 926l-147 -153h-53l81 153h119z" />
    <glyph glyph-name="afii10023.var.accented" unicode="&#x401;`" horiz-adv-x="626" 
d="M82 50q24 0 32 14t8 43v543h-87v50h532v-177h-56v28q0 55 -25.5 75.5t-59.5 20.5h-207v-265h177v80h56v-213h-56v80h-177v-276h219q15 0 30 4.5t26.5 15.5t18.5 29.5t7 46.5v35h56v-184h-541v50h47zM110 841q0 23 16 39t38 16q23 0 39.5 -16t16.5 -39q0 -22 -16.5 -38
t-39.5 -16q-22 0 -38 16t-16 38zM423 841q0 23 16 39t38 16q23 0 39.5 -16t16.5 -39q0 -22 -16.5 -38t-39.5 -16q-22 0 -38 16t-16 38zM421 921l-124 -148h-52l68 148h108z" />
    <glyph glyph-name="afii10065.var.accented" unicode="&#x430;`" horiz-adv-x="587" 
d="M55 129q0 48 21.5 78.5t56 47t77 22.5t84.5 6h95v45q0 63 -31.5 94t-77.5 31q-17 0 -34.5 -3.5t-31 -12t-22 -22.5t-8.5 -35v-32h-83v79q40 32 94 53t123 21q43 0 74 -12.5t51 -35.5t29.5 -55t9.5 -71v-282h80v-45h-172v89h-2q-14 -16 -33 -33.5t-43 -32.5t-52.5 -24.5
t-60.5 -9.5q-31 0 -57.5 10t-45.5 28t-30 44t-11 58zM389 236h-85q-24 0 -50.5 -3.5t-49 -14.5t-37 -30.5t-14.5 -50.5q0 -36 20.5 -56t67.5 -20q18 0 43.5 6t49 19.5t39.5 35t16 53.5v61zM452 702l-134 -138h-52l78 138h108z" />
    <glyph glyph-name="afii10070.var.accented" unicode="&#x435;`" horiz-adv-x="520" 
d="M35 242q0 60 18.5 107.5t51 81.5t75.5 52t93 18q60 0 101 -18.5t65.5 -49t35 -69.5t10.5 -79v-43h-352q0 -30 7 -65t24.5 -65t48 -50t77.5 -20q43 0 82.5 17t74.5 58l33 -33q-38 -45 -89.5 -70t-115.5 -25q-45 0 -88 14t-77 44.5t-54.5 78.5t-20.5 116zM390 290
q-1 78 -30 122t-87 44q-24 0 -47.5 -11t-42 -32t-31.5 -52t-16 -71h254zM424 702l-134 -138h-52l78 138h108z" />
    <glyph glyph-name="afii10074.var.accented" unicode="&#x438;`" horiz-adv-x="649" 
d="M72 45q19 0 26 11.5t7 38.5v350h-70v45h229v-45h-33q-19 0 -26 -11.5t-7 -38.5v-217q0 -17 -1.5 -41t-3.5 -41h3q9 14 16 26.5t14 21.5l237 346h151v-45h-37q-19 0 -26 -11.5t-7 -38.5v-350h70v-45h-229v45h34q17 0 24.5 11.5t7.5 38.5v217q0 17 1.5 41t3.5 41h-3
q-9 -14 -16 -26.5t-14 -21.5l-237 -346h-151v45h37zM484 702l-134 -138h-52l78 138h108z" />
    <glyph glyph-name="afii10080.var.accented" unicode="&#x43e;`" horiz-adv-x="572" 
d="M35 244q0 61 19 109t53 81t80 50t99 17q54 0 99.5 -17t79.5 -50t53 -81t19 -109t-19 -108.5t-53 -80t-79.5 -49.5t-99.5 -17q-53 0 -99 17t-80 49.5t-53 80t-19 108.5zM439 244q0 15 -2 36.5t-8 45t-16.5 47t-27.5 42t-41.5 30t-57.5 11.5t-57.5 -11.5t-41.5 -30
t-27.5 -42t-16.5 -47t-8 -45t-2 -36.5q0 -22 5 -57.5t21 -69.5t46.5 -58.5t80.5 -24.5t80.5 24.5t46.5 58.5t21 69.5t5 57.5zM441 702l-134 -138h-52l78 138h108z" />
    <glyph glyph-name="afii10085.var.accented" unicode="&#x443;`" horiz-adv-x="629" 
d="M105 -180h71q12 0 25 3t25.5 12.5t25 28t24.5 49.5l28 74l-215 458h-69v45h241v-45h-24q-30 0 -30 -23q0 -11 10 -34l102 -224q7 -15 14 -37t11 -37h5q3 12 8 29.5t13 40.5l84 230q5 11 6 19t1 14q0 12 -7 17t-17 5h-34v45h206v-45h-18q-29 0 -46.5 -18t-25.5 -38
l-173 -461q-21 -57 -42.5 -94t-45 -58t-49 -29t-55.5 -8q-16 0 -28.5 3t-20.5 7v71zM470 702l-134 -138h-52l78 138h108z" />
    <glyph glyph-name="afii10093.var.accented" unicode="&#x44b;`" horiz-adv-x="783" 
d="M72 45q19 0 26 11.5t7 38.5v350h-70v45h233v-45h-37q-19 0 -26 -11.5t-7 -38.5v-87h103q35 0 68.5 -6.5t60 -23.5t42.5 -46t16 -75q0 -40 -15.5 -69.5t-42 -49t-61.5 -29t-74 -9.5h-260v45h37zM553 45q17 0 24.5 11.5t7.5 38.5v350h-70v45h233v-45h-37q-19 0 -26 -11.5
t-7 -38.5v-350h70v-45h-233v45h38zM273 45q23 0 44 6.5t37.5 20t26.5 34.5t10 50t-10 49.5t-26.5 33t-37.5 18.5t-43 6h-77v-218h76zM553 702l-134 -138h-52l78 138h108z" />
    <glyph glyph-name="afii10095.var.accented" unicode="&#x44d;`" horiz-adv-x="508" 
d="M35 137h79v-18q0 -46 29.5 -65.5t77.5 -19.5q40 0 69 16.5t47.5 43.5t27.5 62t9 71h-191v48h189q0 27 -6.5 58.5t-22.5 59t-43.5 45.5t-70.5 18q-22 0 -41.5 -5.5t-34.5 -16.5t-23.5 -29t-8.5 -43v-15h-79v84q9 10 27 22.5t43.5 23t57.5 17.5t68 7q59 0 103 -18
t73.5 -50.5t44 -78.5t14.5 -103q0 -60 -18 -108.5t-51 -82.5t-80 -52.5t-106 -18.5q-58 0 -104.5 17.5t-78.5 43.5v87zM394 702l-134 -138h-52l78 138h108z" />
    <glyph glyph-name="afii10096.var.accented" unicode="&#x44e;`" horiz-adv-x="832" 
d="M198 227v-182h66v-45h-229v45h37q19 0 26 11.5t7 38.5v350h-70v45h229v-45h-33q-19 0 -26 -11.5t-7 -38.5v-120h110q4 54 24 96t52.5 71t75 44t92.5 15q54 0 99 -17t77.5 -50t50.5 -81t18 -109t-18 -108.5t-50.5 -80t-77.5 -49.5t-99 -17q-51 0 -95 15.5t-76.5 46
t-51.5 75t-22 101.5h-109zM699 244q0 15 -1.5 36.5t-7 45t-15 47t-26 42t-40.5 30t-57 11.5q-34 0 -57.5 -11.5t-40 -30t-26.5 -42t-15 -47t-6.5 -45t-1.5 -36.5q0 -22 4 -57.5t19 -69.5t44.5 -58.5t79.5 -24.5t79.5 24.5t44.5 58.5t19 69.5t4 57.5zM507 702l-134 -138h-52
l78 138h108z" />
    <glyph glyph-name="afii10097.var.accented" unicode="&#x44f;`" horiz-adv-x="596" 
d="M92 45l125 158q-39 7 -64 22t-39.5 33.5t-20 39.5t-5.5 41q0 72 48 111.5t128 39.5h297v-45h-37q-19 0 -26 -11.5t-7 -38.5v-350h70v-45h-229v45h34q17 0 24.5 11.5t7.5 38.5v102h-81l-148 -197h-144v45h67zM400 445h-105q-50 0 -79.5 -26t-29.5 -79q0 -29 9 -47.5
t24.5 -30t36 -16t44.5 -4.5h100v203zM483 702l-134 -138h-52l78 138h108z" />
    <glyph glyph-name="afii10071.var.accented" unicode="&#x451;`" horiz-adv-x="520" 
d="M35 242q0 60 18.5 107.5t51 81.5t75.5 52t93 18q60 0 101 -18.5t65.5 -49t35 -69.5t10.5 -79v-43h-352q0 -30 7 -65t24.5 -65t48 -50t77.5 -20q43 0 82.5 17t74.5 58l33 -33q-38 -45 -89.5 -70t-115.5 -25q-45 0 -88 14t-77 44.5t-54.5 78.5t-20.5 116zM87 627
q0 21 15 36t35 15q21 0 36.5 -15t15.5 -36q0 -20 -15.5 -35t-36.5 -15q-20 0 -35 15t-15 35zM359 627q0 21 15 36t35 15q22 0 37 -15t15 -36q0 -20 -15 -35t-37 -15q-20 0 -35 15t-15 35zM390 290q-1 78 -30 122t-87 44q-24 0 -47.5 -11t-42 -32t-31.5 -52t-16 -71h254z
M364 701l-114 -137h-47l61 137h100z" />
    <glyph glyph-name="fi" unicode="fi" horiz-adv-x="653" 
d="M92 45q19 0 26 11.5t7 38.5v350h-90v45h90v13q0 67 21.5 112t55.5 73t76.5 40t84.5 12q66 0 111 -20t66 -43v-78h-66v11q0 11 -2.5 25.5t-14 28t-34 22.5t-62.5 9q-21 0 -46 -6.5t-46.5 -25t-36 -51.5t-14.5 -87v-35h340v-445h70v-45h-229v45h33q19 0 26 11.5t7 38.5v350
h-247v-400h66v-45h-229v45h37z" />
    <glyph glyph-name="fl" unicode="fl" horiz-adv-x="653" 
d="M92 45q19 0 26 11.5t7 38.5v350h-90v45h90v13q0 67 21.5 112t55.5 73t76.5 40t84.5 12h195v-695h70v-45h-229v45h33q19 0 26 11.5t7 38.5v576q-17 9 -40 16.5t-64 7.5q-21 0 -46 -6.5t-46.5 -25t-36 -51.5t-14.5 -87v-35h142v-45h-142v-400h66v-45h-229v45h37z" />
    <glyph glyph-name=".notdef" horiz-adv-x="500" 
d="M442 8v496h-384v-496h384zM50 512h400v-512h-400v512z" />
    <glyph glyph-name=".null" horiz-adv-x="0" 
 />
    <glyph glyph-name=".null" horiz-adv-x="0" 
 />
    <glyph glyph-name="nonmarkingreturn" unicode="&#xd;" horiz-adv-x="300" 
 />
    <glyph glyph-name="space" unicode=" " horiz-adv-x="300" 
 />
    <glyph glyph-name="exclam" unicode="!" horiz-adv-x="346" 
d="M110 50q0 28 18 46.5t43 18.5q28 0 46.5 -18.5t18.5 -46.5q0 -25 -18.5 -43t-46.5 -18q-25 0 -43 18t-18 43zM112 674q0 15 18 26t41 11q22 0 40.5 -11t18.5 -26l-33 -475h-52z" />
    <glyph glyph-name="quotedbl" unicode="&#x22;" horiz-adv-x="436" 
d="M80 683q0 10 13.5 19t36.5 9t36.5 -9t13.5 -19l-30 -184h-40zM256 683q0 10 13.5 19t36.5 9t36.5 -9t13.5 -19l-30 -184h-40z" />
    <glyph glyph-name="numbersign" unicode="#" horiz-adv-x="633" 
d="M30 208l5 53h104l32 193h-100l5 53h104l26 156h83l-26 -156h155l26 156h83l-26 -156h102l-5 -53h-105l-32 -193h101l-5 -53h-104l-26 -158h-83l26 158h-156l-26 -158h-83l26 158h-101zM410 454h-156l-32 -193h156z" />
    <glyph glyph-name="dollar" unicode="$" horiz-adv-x="591" 
d="M266 -10q-72 5 -127.5 31.5t-88.5 58.5v111h85v-25q0 -31 10 -53.5t28 -37.5t42 -23t51 -10v278q-103 32 -152.5 81t-49.5 121q0 37 14 69.5t40 57.5t63.5 41t84.5 20v106h53v-106q36 -3 67 -13t55.5 -22.5t42 -25.5t26.5 -23v-110h-85v25q0 54 -29 82.5t-77 33.5v-270
q66 -20 109 -42.5t68 -48.5t35 -55.5t10 -63.5t-14.5 -66t-43 -58t-69.5 -43t-95 -20v-106h-53v106zM266 657q-30 -3 -50.5 -17t-32.5 -32t-17 -37.5t-5 -34.5q0 -45 22 -78.5t83 -53.5v253zM445 171q0 21 -5.5 40t-20 36.5t-39 32t-61.5 25.5v-263q33 3 57 15.5t39.5 30.5
t22.5 40t7 43z" />
    <glyph glyph-name="percent" unicode="%" horiz-adv-x="870" 
d="M60 525q0 37 9.5 71t28.5 59.5t47.5 40.5t67.5 15q38 0 66.5 -15t47.5 -40.5t28.5 -59.5t9.5 -71q0 -38 -9.5 -71.5t-28.5 -59t-47.5 -40.5t-66.5 -15q-39 0 -67.5 15t-47.5 40.5t-28.5 59t-9.5 71.5zM281 525q0 28 -3 54t-10.5 45.5t-20.5 31t-34 11.5t-34.5 -11.5
t-21 -31t-10.5 -45.5t-3 -54q0 -42 5.5 -69t15.5 -43t22 -22.5t26 -6.5q13 0 25 6.5t21.5 22.5t15.5 43t6 69zM505 175q0 37 9.5 71t28.5 59.5t47.5 40.5t67.5 15q38 0 66.5 -15t47.5 -40.5t28.5 -59.5t9.5 -71q0 -38 -9.5 -71.5t-28.5 -59t-47.5 -40.5t-66.5 -15
q-39 0 -67.5 15t-47.5 40.5t-28.5 59t-9.5 71.5zM726 175q0 28 -3 54t-10.5 45.5t-20.5 31t-34 11.5t-34.5 -11.5t-21 -31t-10.5 -45.5t-3 -54q0 -42 5.5 -69t15.5 -43t22 -22.5t26 -6.5q13 0 25 6.5t21.5 22.5t15.5 43t6 69zM640 711l57 -36l-468 -688l-57 36z" />
    <glyph glyph-name="ampersand" unicode="&#x26;" horiz-adv-x="726" 
d="M60 178q0 43 15 76t39 58t55 43t63 32q-38 45 -62.5 85.5t-24.5 86.5q0 24 8.5 50.5t29.5 49t58 37.5t94 15q81 0 122 -40t41 -102q0 -63 -43 -111t-112 -77l156 -202q11 17 21.5 36.5t10.5 34.5q0 20 -25 20h-30v50h190v-50h-14q-33 0 -46.5 -15.5t-24.5 -37.5
t-23 -43.5t-24 -37.5l65 -86h82v-50h-154l-49 66q-31 -30 -77 -53.5t-116 -23.5q-54 0 -96 14t-70.5 38.5t-43.5 59.5t-15 77zM427 563q0 17 -5.5 34t-16.5 30.5t-28.5 22t-41.5 8.5q-46 0 -72 -27t-26 -70q0 -32 21 -66.5t56 -75.5q33 13 55 29t35 34t18 38t5 43zM263 347
q-48 -26 -74 -64t-26 -106q0 -25 8.5 -49t26 -42.5t44.5 -30t65 -11.5q47 0 79.5 19.5t57.5 48.5z" />
    <glyph glyph-name="quotesingle" unicode="'" horiz-adv-x="260" 
d="M80 683q0 10 13.5 19t36.5 9t36.5 -9t13.5 -19l-30 -184h-40l-30 184v0z" />
    <glyph glyph-name="parenleft" unicode="(" horiz-adv-x="359" 
d="M216 -186q-24 42 -46.5 94t-40 111t-28.5 125t-11 136t11 135.5t28.5 125t40 111.5t46.5 94l19 34l64 -27l-7 -15q-20 -44 -39 -93t-34 -105t-24 -120.5t-9 -139.5t9 -139.5t24 -120.5t34 -105.5t39 -92.5l7 -15l-64 -27l-19 34v0z" />
    <glyph glyph-name="parenright" unicode=")" horiz-adv-x="359" 
d="M67 -178q20 43 39 92.5t34 105.5t24 120.5t9 139.5t-9 139.5t-24 120.5t-34 105t-39 93l-7 15l64 27l19 -34q24 -42 46.5 -94t40 -111.5t28.5 -125t11 -135.5t-11 -136t-28.5 -125t-40 -111t-46.5 -94l-19 -34l-64 27z" />
    <glyph glyph-name="asterisk" unicode="*" horiz-adv-x="453" 
d="M204 493l-6 3l-97 -72q-14 6 -24.5 23t-10.5 38l113 48v8l-113 48q0 17 9 34.5t26 25.5l98 -71l5 3l-13 121q4 5 14 7t21 2t21.5 -2t15.5 -7l-15 -121l6 -2l97 70q15 -5 25.5 -23.5t10.5 -36.5l-111 -47v-10l111 -47q0 -23 -11.5 -39.5t-24.5 -21.5l-96 72l-7 -4l15 -121
q-5 -5 -15.5 -7t-21.5 -2t-21 2t-14 7z" />
    <glyph glyph-name="plus" unicode="+" horiz-adv-x="662" 
d="M80 317v72h215v215h72v-215h215v-72h-215v-215h-72v215h-215z" />
    <glyph glyph-name="comma" unicode="," horiz-adv-x="326" 
d="M100 -140q13 11 25 27t22 33t16 33.5t6 28.5q0 9 -11 13t-23.5 9.5t-23.5 17t-11 36.5q0 29 19.5 45.5t40.5 16.5q29 0 47.5 -20.5t18.5 -52.5q0 -17 -2.5 -39.5t-12.5 -49.5t-29.5 -58t-53.5 -64l-28 24v0z" />
    <glyph glyph-name="hyphen" unicode="-" horiz-adv-x="487" 
d="M397 302v-72h-307v72h307z" />
    <glyph glyph-name="period" unicode="." horiz-adv-x="326" 
d="M100 55q0 28 18 46.5t43 18.5q28 0 46.5 -18.5t18.5 -46.5q0 -25 -18.5 -43t-46.5 -18q-25 0 -43 18t-18 43z" />
    <glyph glyph-name="slash" unicode="/" horiz-adv-x="558" 
d="M437 780l71 -29l-406 -961l-72 30z" />
    <glyph glyph-name="zero" unicode="0" horiz-adv-x="598" 
d="M42 350q0 87 18 154.5t51 113t80.5 69.5t106.5 24t107 -24t81.5 -69.5t51.5 -113t18 -154.5t-18 -154.5t-51.5 -113.5t-81.5 -69.5t-107 -23.5t-106.5 23.5t-80.5 69.5t-51 113.5t-18 154.5zM453 349q0 161 -41 235t-114 74t-113 -74t-40 -235q0 -160 40 -233.5
t113 -73.5t114 73.5t41 233.5z" />
    <glyph glyph-name="one" unicode="1" horiz-adv-x="412" 
d="M138 50q24 0 32 14t8 43v520h-148v50h35q26 0 50.5 3t50 7.5t52 10.5t57.5 13v-661h87v-50h-276v50h52z" />
    <glyph glyph-name="two" unicode="2" horiz-adv-x="550" 
d="M189 198q64 57 103.5 100t61 80t29 71.5t7.5 74.5q0 18 -6 41t-22 44t-43 35t-69 14q-16 0 -37 -5t-39.5 -18.5t-31 -37.5t-12.5 -61v-21h-84v102q19 19 45 36.5t56 30t64 20t69 7.5q64 0 105.5 -17.5t66 -44.5t34 -59t9.5 -60q0 -44 -12 -82t-42 -80t-82 -93t-132 -121
l-83 -72v-2h356l-20 -80h-447v60z" />
    <glyph glyph-name="three" unicode="3" horiz-adv-x="562" 
d="M40 173h83v-23q0 -36 14 -57.5t35.5 -32.5t46.5 -14.5t47 -3.5q31 0 58 10t46.5 29.5t31 48.5t11.5 68q0 31 -11.5 56.5t-31.5 42.5t-47 26.5t-58 9.5h-75v54h71q30 0 55.5 11t43.5 29.5t28.5 43t10.5 52.5t-8 52.5t-24.5 43t-42 29t-60.5 10.5q-24 0 -46.5 -5.5t-40 -19
t-28.5 -37.5t-11 -60v-23h-83v104q45 47 106.5 70.5t127.5 23.5q103 0 158.5 -48t55.5 -128q0 -33 -11 -61t-30 -50t-46 -37t-58 -21v-4q72 -8 115.5 -53t43.5 -118q0 -38 -16 -74t-47 -64.5t-77 -46t-107 -17.5q-72 0 -130 21t-100 58v105z" />
    <glyph glyph-name="four" unicode="4" horiz-adv-x="592" 
d="M30 192v63l352 445h68v-430h112l-20 -78h-92v-192h-97v192h-323zM355 572h-3l-239 -303v-2h242v305z" />
    <glyph glyph-name="five" unicode="5" horiz-adv-x="554" 
d="M50 161h83v-34q0 -28 12 -45t29.5 -26t37.5 -11.5t37 -2.5q40 0 69 16t47.5 42.5t27 59.5t8.5 68q0 79 -36.5 122t-101.5 43q-25 0 -43 -4t-32.5 -11.5t-27 -17.5t-25.5 -23l-52 7l45 356h359l-20 -80h-286l-28 -212h3q26 22 59 37t84 15q52 0 90.5 -17t64 -47t38 -70.5
t12.5 -87.5q0 -53 -18 -98t-51 -79t-78.5 -53t-99.5 -19q-69 0 -121 22t-86 54v96z" />
    <glyph glyph-name="six" unicode="6" horiz-adv-x="567" 
d="M45 276q0 110 27 192t75.5 136t116 80.5t148.5 26.5q14 0 38.5 -2.5t43.5 -6.5l-7 -51q-14 3 -36.5 4.5t-35.5 1.5q-122 0 -193.5 -81.5t-79.5 -237.5h4q13 27 33 46.5t43.5 32.5t47.5 19t47 6q48 0 88 -14.5t68 -43t43.5 -69.5t15.5 -94q0 -51 -18 -94t-50 -73.5
t-75 -47.5t-94 -17q-59 0 -105.5 19.5t-78.5 56.5t-49 90t-17 121zM429 221q0 72 -32 114.5t-101 42.5q-30 0 -54 -12.5t-43 -32t-31 -42.5t-18 -44q1 -103 39 -154t103 -51q59 0 98 45.5t39 133.5z" />
    <glyph glyph-name="seven" unicode="7" horiz-adv-x="506" 
d="M397 620h-233q-26 0 -44.5 -10t-18.5 -48v-32h-56v170h436v-49l-304 -651h-77l297 618v2z" />
    <glyph glyph-name="eight" unicode="8" horiz-adv-x="567" 
d="M40 172q0 62 41 104.5t115 71.5v2q-46 18 -74 41t-43.5 47t-20.5 47.5t-5 42.5q0 40 18.5 73.5t50 58t74 38t90.5 13.5q57 0 99 -14.5t70 -38.5t41.5 -56t13.5 -67q0 -20 -6.5 -42t-23 -43.5t-44 -41t-69.5 -35.5v-2q82 -30 121 -82t39 -111q0 -33 -15.5 -66.5t-46.5 -61
t-78 -44.5t-109 -17q-49 0 -92.5 11.5t-75.5 34.5t-51 57.5t-19 79.5zM424 173q0 33 -13.5 57t-36 41t-50.5 29.5t-56 22.5q-23 -6 -49 -18t-49 -30t-38 -43t-15 -59q0 -36 14 -60.5t36.5 -40t51.5 -22.5t60 -7q32 0 58.5 10t46 27t30 41t10.5 52zM433 533q0 60 -38 92
t-109 32q-27 0 -51 -9t-41.5 -25.5t-27.5 -39.5t-10 -51q0 -27 11 -47.5t30 -36t45.5 -27.5t57.5 -23q72 23 102.5 58t30.5 77z" />
    <glyph glyph-name="nine" unicode="9" horiz-adv-x="567" 
d="M80 49q14 -3 36.5 -4.5t35.5 -1.5q122 0 193.5 81.5t79.5 237.5h-4q-14 -27 -33.5 -46.5t-43 -32.5t-48 -19t-46.5 -6q-48 0 -88 14.5t-68 43t-43.5 69.5t-15.5 94q0 51 17.5 94t49 73.5t74.5 47.5t94 17q59 0 105.5 -19.5t79 -56.5t50 -90.5t17.5 -120.5
q0 -110 -27 -192t-75.5 -136t-116 -80.5t-148.5 -26.5q-14 0 -38.5 2.5t-43.5 6.5zM417 453q-1 103 -40 154t-104 51q-59 0 -97 -45.5t-38 -133.5q0 -72 32 -114.5t101 -42.5q30 0 54 12.5t43 32t31 42.5t18 44z" />
    <glyph glyph-name="colon" unicode=":" horiz-adv-x="326" 
d="M100 55q0 28 18 46.5t43 18.5q28 0 46.5 -18.5t18.5 -46.5q0 -25 -18.5 -43t-46.5 -18q-25 0 -43 18t-18 43zM100 425q0 28 18 46.5t43 18.5q28 0 46.5 -18.5t18.5 -46.5q0 -25 -18.5 -43t-46.5 -18q-25 0 -43 18t-18 43z" />
    <glyph glyph-name="semicolon" unicode=";" horiz-adv-x="326" 
d="M100 -140q13 11 25 27t22 33t16 33.5t6 28.5q0 9 -11 13t-23.5 9.5t-23.5 17t-11 36.5q0 29 19.5 45.5t40.5 16.5q29 0 47.5 -20.5t18.5 -52.5q0 -17 -2.5 -39.5t-12.5 -49.5t-29.5 -58t-53.5 -64zM100 425q0 28 18 46.5t43 18.5q28 0 46.5 -18.5t18.5 -46.5
q0 -25 -18.5 -43t-46.5 -18q-25 0 -43 18t-18 43z" />
    <glyph glyph-name="less" unicode="&#x3c;" horiz-adv-x="650" 
d="M80 370l490 281v-79l-384 -218v-2l384 -218v-80l-490 282v34z" />
    <glyph glyph-name="equal" unicode="=" horiz-adv-x="662" 
d="M582 288v-72h-502v72h502zM582 478v-72h-502v72h502z" />
    <glyph glyph-name="greater" unicode="&#x3e;" horiz-adv-x="650" 
d="M464 352v2l-384 218v79l490 -281v-34l-490 -282v80z" />
    <glyph glyph-name="question" unicode="?" horiz-adv-x="535" 
d="M292 392q24 21 42 39.5t29 37t16.5 38.5t5.5 43q0 18 -6.5 37t-21.5 35t-39.5 26t-61.5 10q-21 0 -45.5 -4.5t-44.5 -17.5t-33.5 -36.5t-13.5 -60.5v-21h-84v102q19 19 45.5 36t57 29t65 19t69.5 7q64 0 106 -14t67 -36.5t35 -51.5t10 -59q0 -33 -12 -61t-31 -51.5
t-42.5 -43.5t-47.5 -37q-51 -37 -79 -73.5t-28 -84.5h-52q0 30 4.5 55.5t15 48.5t29 44.5t45.5 44.5zM163 50q0 28 18 46.5t43 18.5q28 0 46.5 -18.5t18.5 -46.5q0 -25 -18.5 -43t-46.5 -18q-25 0 -43 18t-18 43z" />
    <glyph glyph-name="at" unicode="@" horiz-adv-x="858" 
d="M70 247q0 75 26.5 142.5t74.5 118.5t114.5 81t146.5 30q72 0 136.5 -22t113.5 -63t77.5 -100t28.5 -133q0 -67 -18.5 -114.5t-47 -78t-63 -44.5t-67.5 -14q-16 0 -32.5 3.5t-30 11.5t-22 22t-8.5 35q0 5 0.5 13t2.5 15h-2q-23 -40 -60.5 -69.5t-83.5 -29.5q-33 0 -56 12
t-37.5 32.5t-21.5 46.5t-7 55q0 43 11.5 90t35.5 86.5t62.5 65t92.5 25.5q36 0 61 -16t39 -35h1l17 42h66q-7 -17 -12 -32.5t-7 -32.5l-29 -202q-2 -13 -3 -26t-1 -26q0 -17 8.5 -27.5t22.5 -10.5q32 0 56.5 17t41 45t25 64.5t8.5 75.5q0 51 -20 99t-58 85.5t-93 60.5
t-126 23q-54 0 -108 -20.5t-97.5 -61t-71 -100t-27.5 -138.5q0 -77 24.5 -134.5t66.5 -95.5t97.5 -57t117.5 -19q39 0 84 9t76 30l21 -49q-35 -20 -85 -31t-97 -11q-77 0 -143 23.5t-115.5 69t-77.5 112t-28 152.5zM524 374q-8 10 -24.5 23t-51.5 13q-29 0 -53 -18
t-41.5 -47.5t-27.5 -67.5t-10 -77q0 -38 13 -64.5t48 -26.5q25 0 47.5 13.5t40 34t28.5 44t14 43.5z" />
    <glyph glyph-name="A" unicode="A" horiz-adv-x="840" 
d="M55 50q24 0 45.5 17t36.5 53l236 580h98l264 -650h80v-50h-279v50h42q17 0 24 11.5t7 25.5q0 8 -2 15.5t-4 14.5l-32 83h-332l-32 -82q-9 -23 -9 -39q0 -14 6 -21.5t22 -7.5h43v-50h-244v50h30zM437 534q-6 14 -14 38.5t-13 42.5h-5q-8 -19 -17 -42t-15 -37l-116 -282
h297z" />
    <glyph glyph-name="B" unicode="B" horiz-adv-x="669" 
d="M82 50q24 0 32 14t8 43v543h-87v50h336q43 0 85 -7t75 -26.5t53.5 -53.5t20.5 -87q0 -28 -10 -53t-28 -45.5t-43 -35t-55 -20.5v-4q44 -7 73.5 -23.5t47.5 -39.5t26 -49.5t8 -53.5q0 -61 -27 -100.5t-66.5 -62t-85.5 -31t-85 -8.5h-325v50h47zM360 53q26 0 54.5 8
t52 25.5t39 46.5t15.5 71q0 59 -39 96t-108 37h-155v-284h141zM360 388q21 0 46 7t46 22.5t35.5 41t14.5 62.5q0 59 -36 92.5t-94 33.5h-153v-259h141z" />
    <glyph glyph-name="C" unicode="C" horiz-adv-x="661" 
d="M45 345q0 84 22.5 151.5t66 115t105.5 73.5t142 26q65 0 124.5 -21t110.5 -68v-113h-87v14q0 45 -16 71.5t-39 41t-49.5 18.5t-48.5 4q-60 0 -103 -28.5t-70.5 -74t-41 -101t-13.5 -109.5q0 -62 13 -117t40 -96.5t69 -65.5t100 -24q22 0 49.5 3t52 15t41 35t16.5 62v17
h87v-106q-49 -38 -113.5 -58.5t-132.5 -20.5t-127.5 20t-103.5 62.5t-69 110t-25 163.5z" />
    <glyph glyph-name="D" unicode="D" horiz-adv-x="737" 
d="M82 50q24 0 32 14t8 43v543h-87v50h299q82 0 148.5 -17t113 -56.5t71.5 -105.5t25 -164q0 -87 -29.5 -153.5t-79.5 -112t-115.5 -68.5t-138.5 -23h-294v50h47zM329 53q43 0 89.5 17.5t84 54t62 94t24.5 138.5q0 78 -18.5 133t-52.5 90t-81 51t-104 16h-114v-594h110z" />
    <glyph glyph-name="E" unicode="E" horiz-adv-x="626" 
d="M82 50q24 0 32 14t8 43v543h-87v50h532v-177h-56v28q0 55 -25.5 75.5t-59.5 20.5h-207v-265h177v80h56v-213h-56v80h-177v-276h219q15 0 30 4.5t26.5 15.5t18.5 29.5t7 46.5v35h56v-184h-541v50h47z" />
    <glyph glyph-name="F" unicode="F" horiz-adv-x="602" 
d="M82 50q24 0 32 14t8 43v543h-87v50h522v-180h-56v31q0 28 -7 46.5t-19 29.5t-27.5 15.5t-31.5 4.5h-197v-276h177v80h56v-214h-56v81h-177v-268h92v-50h-276v50h47z" />
    <glyph glyph-name="G" unicode="G" horiz-adv-x="705" 
d="M45 345q0 84 23 151.5t67 115t106.5 73.5t142.5 26q65 0 126 -21.5t112 -68.5v-113h-87v12q0 45 -16.5 72t-40.5 42t-51.5 19.5t-49.5 4.5q-59 0 -102 -28.5t-71.5 -74t-42 -101t-13.5 -109.5q0 -62 12 -117t38 -96.5t67.5 -65.5t100.5 -24q26 0 54 2.5t51.5 11.5
t38.5 26.5t15 47.5v142h-85v50h250v-50h-33q-21 0 -30 -13t-9 -42v-155q-46 -33 -112.5 -53t-142.5 -20q-68 0 -126.5 20t-101 62.5t-66.5 110t-24 163.5z" />
    <glyph glyph-name="H" unicode="H" horiz-adv-x="791" 
d="M82 50q24 0 32 14t8 43v543h-87v50h266v-50h-47q-35 0 -35 -57v-200h353v257h-82v50h266v-50h-50q-37 0 -37 -57v-543h87v-50h-266v50h47q35 0 35 57v232h-353v-289h82v-50h-266v50h47z" />
    <glyph glyph-name="I" unicode="I" horiz-adv-x="351" 
d="M87 50q24 0 32 14t8 43v543h-92v50h281v-50h-52q-24 0 -32 -14t-8 -43v-543h92v-50h-281v50h52z" />
    <glyph glyph-name="J" unicode="J" horiz-adv-x="544" 
d="M50 148h83v-33q0 -41 21 -57t58 -16q57 0 87.5 40t30.5 119v449h-92v50h276v-50h-47q-24 0 -32 -14t-8 -43v-379q0 -58 -17 -100.5t-46.5 -70t-69 -41t-84.5 -13.5q-44 0 -86 11.5t-74 37.5v110z" />
    <glyph glyph-name="K" unicode="K" horiz-adv-x="722" 
d="M82 50q24 0 32 14t8 43v543h-87v50h265v-50h-28q-29 0 -41 -9t-12 -45v-200h99l158 197q15 20 15 34q0 10 -7 16.5t-23 6.5h-37v50h254v-50h-6q-39 0 -70.5 -19t-56.5 -49l-159 -198l234 -334h82v-50h-165l-232 342h-86v-292h82v-50h-266v50h47z" />
    <glyph glyph-name="L" unicode="L" horiz-adv-x="596" 
d="M82 50q24 0 32 14t8 43v543h-87v50h271v-50h-47q-24 0 -32 -14t-8 -43v-540h202q13 0 26 4.5t23.5 15.5t17.5 29.5t7 46.5v41h56v-190h-516v50h47z" />
    <glyph glyph-name="M" unicode="M" horiz-adv-x="922" 
d="M71 50q15 0 24 7.5t13.5 19.5t6.5 27t3 29l41 517h-87v50h196l159 -381q8 -20 13.5 -40.5t11.5 -40.5h5q5 20 12.5 41t15.5 40l164 381h203v-50h-55q-20 0 -26 -16t-6 -37v-9t1 -12l44 -526h87v-50h-277v50h52q20 0 25.5 14t5.5 34v14t-1 14l-29 352q-2 18 -2 48.5
t-2 54.5h-5l-183 -434h-71l-187 434h-5q0 -20 -1.5 -51t-3.5 -53l-26 -344q-1 -8 -1.5 -15t-0.5 -15q0 -21 7.5 -37t31.5 -16h46v-50h-245v50h46z" />
    <glyph glyph-name="N" unicode="N" horiz-adv-x="809" 
d="M82 50q24 0 32 16.5t8 45.5v538h-87v50h184l341 -487q18 -25 34 -54.5t26 -47.5h4q0 11 -1 25.5t-1.5 28.5t-1 27t-0.5 22v374q0 29 -8 45.5t-32 16.5h-47v50h241v-50h-47q-24 0 -32 -16.5t-8 -45.5v-588h-87l-356 508q-19 26 -32.5 50.5t-22.5 42.5h-4q0 -10 1 -25
t1.5 -31t1 -31t0.5 -25v-377q0 -29 8 -45.5t32 -16.5h47v-50h-241v50h47z" />
    <glyph glyph-name="O" unicode="O" horiz-adv-x="760" 
d="M45 350q0 81 23 147.5t66.5 114t105.5 73.5t140 26t140 -26t105.5 -73.5t66.5 -114t23 -147.5t-23.5 -147.5t-67 -114t-105.5 -73.5t-139 -26t-139 26t-105.5 73.5t-67 114t-23.5 147.5zM612 350q0 30 -4.5 64.5t-14.5 68.5t-27.5 66t-43 56t-61 38.5t-81.5 14.5
t-81.5 -14.5t-61 -38.5t-43 -56t-27.5 -66t-14.5 -68.5t-4.5 -64.5q0 -45 10 -99t36.5 -100.5t71.5 -77.5t114 -31t114 31t71.5 77.5t36.5 100.5t10 99z" />
    <glyph glyph-name="P" unicode="P" horiz-adv-x="632" 
d="M82 50q24 0 32 14t8 43v543h-87v50h314q42 0 87 -7t82 -28.5t60.5 -62t23.5 -106.5q0 -55 -20.5 -96t-56 -68.5t-83 -41t-101.5 -13.5h-122v-227h102v-50h-286v50h47zM339 331q20 0 47.5 8t53 27t43.5 50.5t18 78.5q0 45 -16 74.5t-40 47t-50.5 24t-47.5 6.5h-129v-316
h121z" />
    <glyph glyph-name="Q" unicode="Q" horiz-adv-x="760" 
d="M410 -9q-6 -1 -14 -1.5t-16 -0.5q-77 0 -139 26t-105.5 73.5t-67 114t-23.5 147.5t23 147.5t66.5 114t105.5 73.5t140 26t140 -26t105.5 -73.5t66.5 -114t23 -147.5q0 -133 -61 -223.5t-168 -122.5q32 -17 69 -32t82 -15h40v-90q-15 -4 -33 -4q-35 0 -67.5 13.5t-62.5 33
t-56.5 42t-47.5 39.5zM612 350q0 30 -4.5 64.5t-14.5 68.5t-27.5 66t-43 56t-61 38.5t-81.5 14.5t-81.5 -14.5t-61 -38.5t-43 -56t-27.5 -66t-14.5 -68.5t-4.5 -64.5q0 -45 10 -99t36.5 -100.5t71.5 -77.5t114 -31t114 31t71.5 77.5t36.5 100.5t10 99z" />
    <glyph glyph-name="R" unicode="R" horiz-adv-x="708" 
d="M82 50q24 0 32 14t8 43v543h-87v50h340q30 0 68 -6.5t71.5 -27.5t56.5 -60.5t23 -104.5q0 -69 -46 -122t-126 -72l177 -257h82v-50h-168l-194 294h-100v-244h82v-50h-266v50h47zM335 347q29 0 57.5 10t51.5 29.5t37 48t14 66.5q0 37 -12.5 64.5t-33 45.5t-46 27t-51.5 9
h-134v-300h117z" />
    <glyph glyph-name="S" unicode="S" horiz-adv-x="612" 
d="M55 191h86v-22q0 -35 13.5 -59t36.5 -39t53 -22t62 -7q40 0 69 11.5t48 30t28 41.5t9 46q0 42 -28.5 77t-106.5 58l-66 19q-102 29 -145.5 77t-43.5 120q0 39 16.5 73.5t47 60t73.5 40.5t97 15q41 0 77 -9.5t64.5 -22.5t48.5 -28t30 -25v-110h-86v22q0 61 -38 90.5
t-98 29.5q-39 0 -64.5 -12.5t-41.5 -31.5t-22.5 -40t-6.5 -38q0 -45 25 -79.5t88 -53.5l76 -23q61 -18 100.5 -39.5t61.5 -46.5t30.5 -54t8.5 -63q0 -36 -17.5 -69.5t-50 -60t-79.5 -42.5t-106 -16q-41 0 -78.5 7.5t-69.5 20.5t-57.5 29.5t-43.5 33.5v111z" />
    <glyph glyph-name="T" unicode="T" horiz-adv-x="653" 
d="M238 50q24 0 32 14t8 43v540h-90q-16 0 -31.5 -3.5t-28 -13.5t-20 -27t-7.5 -45v-45h-56v187h563v-187h-56v45q0 28 -7.5 45t-20 27t-28 13.5t-31.5 3.5h-90v-597h92v-50h-281v50h52z" />
    <glyph glyph-name="U" unicode="U" horiz-adv-x="783" 
d="M117 650h-87v50h266v-50h-42q-24 0 -32 -14t-8 -43v-352q0 -41 9 -76.5t30.5 -61t56.5 -40t87 -14.5q51 0 89 15t63 41t37.5 61t12.5 75v347q0 29 -8 45.5t-32 16.5h-47v50h241v-50h-47q-24 0 -32 -16.5t-8 -45.5v-347q0 -61 -19 -108t-54.5 -79t-85.5 -48.5t-112 -16.5
q-64 0 -115.5 15.5t-87.5 47t-55.5 79t-19.5 110.5v409z" />
    <glyph glyph-name="V" unicode="V" horiz-adv-x="804" 
d="M25 650v50h279v-50h-42q-17 0 -24 -11.5t-7 -25.5q0 -8 2 -15.5t4 -14.5l147 -417q5 -14 12.5 -38.5t12.5 -42.5h5q6 18 14.5 41.5t13.5 37.5l155 417q8 22 8 36q0 33 -41 33h-29v50h244v-50h-26q-27 0 -49.5 -17t-36.5 -53l-220 -580h-97l-245 650h-80z" />
    <glyph glyph-name="W" unicode="W" horiz-adv-x="1116" 
d="M30 650v50h270v-50h-42q-17 0 -23 -9.5t-6 -23.5t3.5 -29.5t7.5 -29.5l93 -370q5 -23 9 -49.5t7 -46.5h6q5 20 9.5 43.5t12.5 52.5l146 512h99l135 -514q8 -28 12.5 -53t7.5 -45h6q4 20 10 44.5t14 55.5l100 371q4 16 6.5 28.5t2.5 23.5q0 39 -44 39h-28v50h242v-50h-25
q-29 0 -49.5 -18.5t-35.5 -73.5l-156 -558h-98l-139 503q-5 20 -9.5 45t-9.5 49h-6q-6 -27 -12 -50t-12 -44l-148 -503h-98l-177 650h-81z" />
    <glyph glyph-name="X" unicode="X" horiz-adv-x="708" 
d="M37 50q34 0 57.5 19t44.5 51l162 246l-186 284h-78v50h283v-50h-38q-15 0 -22 -9t-7 -22q0 -10 3 -20.5t10 -19.5l67 -101q16 -24 29 -50h5q8 15 14 26.5t14 23.5l65 102q18 30 18 46q0 24 -31 24h-28v50h229v-50h-12q-34 0 -57.5 -19t-44.5 -51l-134 -202l205 -328h78
v-50h-285v50h40q15 0 22 9t7 22q0 19 -13 40l-84 138q-8 12 -15.5 25.5t-14.5 25.5h-5q-15 -27 -31 -51l-91 -139q-18 -28 -18 -46q0 -24 31 -24h29v-50h-230v50h12z" />
    <glyph glyph-name="Y" unicode="Y" horiz-adv-x="736" 
d="M277 50q24 0 32 14t8 43v135l-214 408h-78v50h278v-50h-41q-18 0 -25.5 -8t-7.5 -21q0 -20 12 -42l108 -212q8 -14 14 -31l12 -34h5q7 18 14.5 34t15.5 31l119 219q13 23 13 40q0 24 -31 24h-32v50h232v-50h-28q-25 0 -46.5 -19t-35.5 -45l-187 -344v-192h90v-50h-277v50
h50z" />
    <glyph glyph-name="Z" unicode="Z" horiz-adv-x="614" 
d="M411 581q16 23 27.5 38t19.5 25v3h-238q-16 0 -30.5 -4.5t-26 -15.5t-18.5 -29.5t-7 -46.5v-41h-56v190h483v-50l-359 -525q-6 -8 -13.5 -17.5l-15 -19t-14.5 -18t-11 -14.5v-3h287q13 0 26 4.5t23.5 15.5t17.5 29.5t7 46.5v41h56v-190h-524v50z" />
    <glyph glyph-name="bracketleft" unicode="[" horiz-adv-x="380" 
d="M330 780v-50h-89q-23 0 -32 -12t-9 -44v-834h130v-50h-220v990h220z" />
    <glyph glyph-name="backslash" unicode="\" horiz-adv-x="558" 
d="M121 780l407 -960l-72 -30l-406 961z" />
    <glyph glyph-name="bracketright" unicode="]" horiz-adv-x="380" 
d="M139 -160q23 0 32 12t9 44v834h-130v50h220v-990h-220v50h89z" />
    <glyph glyph-name="asciicircum" unicode="^" horiz-adv-x="549" 
d="M289 700l195 -295h-87l-123 190l-122 -190h-87l195 295h29z" />
    <glyph glyph-name="underscore" unicode="_" horiz-adv-x="510" 
d="M510 -185v-65h-510v65h510z" />
    <glyph glyph-name="grave" unicode="`" horiz-adv-x="572" 
d="M248 702l78 -138h-52l-134 138h108z" />
    <glyph glyph-name="a" unicode="a" horiz-adv-x="587" 
d="M55 129q0 48 21.5 78.5t56 47t77 22.5t84.5 6h95v45q0 63 -31.5 94t-77.5 31q-17 0 -34.5 -3.5t-31 -12t-22 -22.5t-8.5 -35v-32h-83v79q40 32 94 53t123 21q43 0 74 -12.5t51 -35.5t29.5 -55t9.5 -71v-282h80v-45h-172v89h-2q-14 -16 -33 -33.5t-43 -32.5t-52.5 -24.5
t-60.5 -9.5q-31 0 -57.5 10t-45.5 28t-30 44t-11 58zM389 236h-85q-24 0 -50.5 -3.5t-49 -14.5t-37 -30.5t-14.5 -50.5q0 -36 20.5 -56t67.5 -20q18 0 43.5 6t49 19.5t39.5 35t16 53.5v61z" />
    <glyph glyph-name="b" unicode="b" horiz-adv-x="603" 
d="M178 56l-14 -56h-69v695h-80v45h173v-293q0 -12 -0.5 -25t-1.5 -26h2q13 19 31 38t41.5 34t52 24t61.5 9q49 0 85 -18t59.5 -50t35 -76.5t11.5 -96.5q0 -59 -15 -108.5t-44.5 -85.5t-73 -56.5t-100.5 -20.5q-45 0 -85.5 20t-66.5 47h-2zM467 250q0 30 -5 62t-19.5 58
t-39.5 42.5t-64 16.5q-22 0 -48.5 -7.5t-49.5 -22.5t-38.5 -38t-15.5 -54v-203q21 -18 51 -35t77 -17q68 0 110 48t42 150z" />
    <glyph glyph-name="c" unicode="c" horiz-adv-x="492" 
d="M35 238q0 68 19.5 117.5t53 82t77.5 48t93 15.5q32 0 59 -6.5t49 -17t38 -23.5t26 -25v-87h-79v13q0 31 -9 50.5t-23 31t-31.5 15.5t-34.5 4q-39 0 -66 -18t-43.5 -48t-23.5 -69.5t-7 -81.5q0 -39 8 -74.5t26.5 -62.5t47.5 -43.5t71 -16.5q48 0 80.5 20t61.5 53l34 -32
q-14 -17 -32.5 -34t-42.5 -30.5t-53.5 -21.5t-63.5 -8q-45 0 -87.5 14.5t-75 44.5t-52.5 77t-20 113z" />
    <glyph glyph-name="d" unicode="d" horiz-adv-x="613" 
d="M38 230q0 63 16.5 113t46.5 85.5t72.5 54t95.5 18.5q45 0 81.5 -16.5t64.5 -42.5h2q-1 14 -1.5 29.5t-0.5 23.5v200h-80v45h173v-695h80v-45h-172v93h-2q-13 -19 -31 -37.5t-41 -33.5t-51.5 -24t-61.5 -9q-47 0 -82.5 18t-59.5 50.5t-36.5 76.5t-12.5 96zM416 386
q-10 9 -22 18t-28 16.5t-36 12.5t-45 5q-45 0 -73.5 -18.5t-45.5 -48.5t-23.5 -67.5t-6.5 -74.5q0 -25 5 -54.5t19.5 -54.5t39.5 -42t64 -17q22 0 48.5 7.5t49.5 22.5t38.5 38t15.5 54v203z" />
    <glyph glyph-name="e" unicode="e" horiz-adv-x="520" 
d="M35 242q0 60 18.5 107.5t51 81.5t75.5 52t93 18q60 0 101 -18.5t65.5 -49t35 -69.5t10.5 -79v-43h-352q0 -30 7 -65t24.5 -65t48 -50t77.5 -20q43 0 82.5 17t74.5 58l33 -33q-38 -45 -89.5 -70t-115.5 -25q-45 0 -88 14t-77 44.5t-54.5 78.5t-20.5 116zM390 290
q-1 78 -30 122t-87 44q-24 0 -47.5 -11t-42 -32t-31.5 -52t-16 -71h254z" />
    <glyph glyph-name="f" unicode="f" horiz-adv-x="390" 
d="M92 45q19 0 26 11.5t7 38.5v350h-90v45h90v32q0 116 47 167t133 51q36 0 63.5 -7.5t51.5 -21.5v-78h-66v11q0 22 -13 36.5t-44 14.5q-79 0 -79 -142v-63h152v-45h-152v-400h77v-45h-240v45h37z" />
    <glyph glyph-name="g" unicode="g" horiz-adv-x="580" 
d="M45 -136q0 39 18 61t44 39l59 -15q-26 -36 -26 -64q0 -45 46.5 -70t124.5 -25q37 0 69 7t56 19.5t37.5 31t13.5 41.5q0 11 -4 23.5t-20 24.5t-46.5 21t-83.5 12l-76 5q-37 3 -68.5 8.5t-54 15.5t-35 25.5t-12.5 37.5q0 35 22.5 58t57.5 46v2q-43 17 -63.5 57t-20.5 94
q0 43 16.5 77t44 57.5t64.5 35.5t78 12q26 0 64 -8t72 -33q23 24 37.5 51t22.5 50l63 -31q-17 -29 -40 -53.5t-54 -44.5q17 -20 27.5 -47.5t10.5 -65.5q0 -33 -13.5 -65.5t-39.5 -58.5t-63.5 -42t-86.5 -16q-20 0 -44.5 4t-37.5 9q-11 -8 -22 -19.5t-11 -28.5q0 -9 4 -16.5
t15.5 -14t31.5 -11.5t53 -7l76 -5q63 -4 101 -18t59 -34t27.5 -44t6.5 -49q0 -39 -19.5 -69.5t-53.5 -51.5t-80.5 -32t-101.5 -11q-72 0 -119.5 13t-75 31.5t-39 40.5t-11.5 40zM391 319q0 40 -10.5 66.5t-26.5 42.5t-34 22t-34 6t-34.5 -6t-34 -22t-26 -42.5t-10.5 -66.5
q0 -28 6.5 -53t19 -43.5t32.5 -29.5t47 -11t47 11t32.5 29.5t19 43.5t6.5 53z" />
    <glyph glyph-name="h" unicode="h" horiz-adv-x="633" 
d="M72 45q19 0 26 11.5t7 38.5v600h-80v45h173v-261q0 -13 -0.5 -39.5t-0.5 -48.5h2q16 22 37.5 42t47 35t54.5 24t59 9q37 0 63.5 -11.5t43.5 -32t25.5 -49t8.5 -62.5v-301h70v-45h-229v45h34q17 0 24.5 11.5t7.5 38.5v227q0 23 -4 42.5t-13.5 34t-26.5 22.5t-43 8
q-24 0 -52 -8t-52 -24t-40 -39.5t-16 -54.5v-258h66v-45h-229v45h37z" />
    <glyph glyph-name="i" unicode="i" horiz-adv-x="298" 
d="M77 45q19 0 26 11.5t7 38.5v350h-80v45h173v-445h70v-45h-233v45h37zM88 634q0 26 18 44t42 18q26 0 44 -18t18 -44q0 -24 -18 -42t-44 -18q-24 0 -42 18t-18 42z" />
    <glyph glyph-name="j" unicode="j" horiz-adv-x="290" 
d="M15 -206q32 4 51 17.5t28.5 38t12.5 60.5t3 84v451h-80v45h173v-533q0 -45 -9.5 -82.5t-31.5 -65.5t-58 -46t-89 -24v55zM88 634q0 26 18 44t42 18q26 0 44 -18t18 -44q0 -24 -18 -42t-44 -18q-24 0 -42 18t-18 42z" />
    <glyph glyph-name="k" unicode="k" horiz-adv-x="595" 
d="M72 45q19 0 26 11.5t7 38.5v600h-80v45h173v-451h69l124 122q13 13 13 21q0 13 -18 13h-34v45h218v-45h-6q-23 0 -55.5 -14t-55.5 -36l-126 -121l182 -229h66v-45h-144l-184 241h-49v-196h66v-45h-229v45h37z" />
    <glyph glyph-name="l" unicode="l" horiz-adv-x="293" 
d="M72 45q19 0 26 11.5t7 38.5v600h-80v45h173v-695h70v-45h-233v45h37z" />
    <glyph glyph-name="m" unicode="m" horiz-adv-x="938" 
d="M72 45q19 0 26 11.5t7 38.5v350h-80v45h172v-99h2q14 21 33 41t43 35t51.5 24.5t57.5 9.5q53 0 87 -28t47 -82h2q15 20 34 40t41.5 35.5t48 25t54.5 9.5q74 0 109.5 -45.5t35.5 -120.5v-290h70v-45h-226v45h31q17 0 24.5 11.5t7.5 38.5v227q0 24 -3 43.5t-12 34t-25 22
t-41 7.5q-22 0 -48 -9t-48.5 -25.5t-37.5 -40t-15 -51.5v-258h62v-45h-217v45h31q17 0 24.5 11.5t7.5 38.5v227q0 24 -3.5 43.5t-12 33.5t-24 22t-39.5 8q-25 0 -52 -9.5t-49 -26t-36 -39.5t-14 -51v-258h62v-45h-225v45h37z" />
    <glyph glyph-name="n" unicode="n" horiz-adv-x="633" 
d="M72 45q19 0 26 11.5t7 38.5v350h-80v45h172v-99h2q16 22 37.5 42t47 35t54.5 24t59 9q37 0 63.5 -11.5t43.5 -32t25.5 -49t8.5 -62.5v-301h70v-45h-229v45h34q17 0 24.5 11.5t7.5 38.5v227q0 23 -4 42.5t-13.5 34t-26.5 22.5t-43 8q-24 0 -52 -8t-52 -24t-40 -39.5
t-16 -54.5v-258h66v-45h-229v45h37z" />
    <glyph glyph-name="o" unicode="o" horiz-adv-x="572" 
d="M35 244q0 61 19 109t53 81t80 50t99 17q54 0 99.5 -17t79.5 -50t53 -81t19 -109t-19 -108.5t-53 -80t-79.5 -49.5t-99.5 -17q-53 0 -99 17t-80 49.5t-53 80t-19 108.5zM439 244q0 15 -2 36.5t-8 45t-16.5 47t-27.5 42t-41.5 30t-57.5 11.5t-57.5 -11.5t-41.5 -30
t-27.5 -42t-16.5 -47t-8 -45t-2 -36.5q0 -22 5 -57.5t21 -69.5t46.5 -58.5t80.5 -24.5t80.5 24.5t46.5 58.5t21 69.5t5 57.5z" />
    <glyph glyph-name="p" unicode="p" horiz-adv-x="613" 
d="M72 -205q19 0 26 11.5t7 38.5v600h-80v45h172v-94h2q13 19 31 38t41 34t51.5 24t61.5 9q49 0 85 -18t59.5 -50.5t35 -76.5t11.5 -96q0 -61 -16.5 -111t-46.5 -85.5t-72 -55t-93 -19.5q-48 0 -83.5 17t-65.5 43h-2q1 -14 1.5 -29.5t0.5 -23.5v-201h82v-45h-245v45h37z
M477 250q0 30 -5 62t-19.5 58t-39.5 42.5t-64 16.5q-22 0 -48.5 -7.5t-49.5 -22.5t-38.5 -38t-15.5 -54v-203q10 -9 21.5 -18.5t27.5 -17t36 -12t46 -4.5q67 0 108 49t41 149z" />
    <glyph glyph-name="q" unicode="q" horiz-adv-x="593" 
d="M382 -205q19 0 26 11.5t7 38.5v198q0 12 0.5 25t1.5 26h-2q-13 -20 -31.5 -38.5t-41.5 -33.5t-51 -24t-60 -9q-49 0 -85 18.5t-60 51t-36 76t-12 93.5q0 62 15.5 112.5t45 86t73 55t99.5 19.5q51 0 88.5 -20.5t63.5 -46.5h2l14 56h69v-695h70v-45h-245v45h49zM416 386
q-22 20 -53.5 36t-76.5 16q-67 0 -108.5 -50.5t-41.5 -158.5q0 -24 5 -53.5t19 -55t39 -42.5t64 -17q22 0 48.5 7.5t50 22.5t39 38t15.5 54v203z" />
    <glyph glyph-name="r" unicode="r" horiz-adv-x="414" 
d="M72 45q19 0 26 11.5t7 38.5v350h-80v45h172v-109h2q22 33 40.5 56t38.5 37t43 20.5t53 6.5v-96h-44q-62 0 -97 -31t-35 -87v-242h77v-45h-240v45h37z" />
    <glyph glyph-name="s" unicode="s" horiz-adv-x="493" 
d="M45 134h76v-11q0 -24 10.5 -41t28 -27.5t41 -15.5t49.5 -5q31 0 53 7t36 18.5t20.5 25.5t6.5 29q0 32 -24 52t-87 38l-59 17q-40 12 -66.5 26t-42.5 31.5t-23 39.5t-7 49q0 28 12 52.5t35.5 42.5t58.5 28.5t81 10.5q34 0 63 -6.5t51.5 -16t39 -20t24.5 -18.5v-76h-76v11
q0 22 -9 37t-24 25t-35.5 14.5t-44.5 4.5q-29 0 -47 -8t-29 -19.5t-15 -25t-4 -25.5q0 -30 22 -49.5t70 -33.5l62 -18q48 -14 78.5 -28.5t48 -32t23.5 -39t6 -48.5t-13.5 -52.5t-39.5 -45t-63.5 -31t-84.5 -11.5q-69 0 -121 22t-81 47v76z" />
    <glyph glyph-name="t" unicode="t" horiz-adv-x="416" 
d="M120 445h-90v35q66 8 102.5 49t50.5 105h30v-144h148v-45h-148v-309q0 -29 5 -47t14.5 -27.5t22 -13t27.5 -3.5q26 0 46.5 10.5t40.5 31.5l27 -34q-26 -26 -58.5 -45t-77.5 -19q-63 0 -101.5 33.5t-38.5 112.5v310z" />
    <glyph glyph-name="u" unicode="u" horiz-adv-x="633" 
d="M95 445h-80v45h173v-322q0 -23 3.5 -43t13.5 -34t27 -22t43 -8q24 0 52 8t52 24t40 39.5t16 54.5v258h-74v45h167v-445h80v-45h-172v99h-2q-16 -23 -37.5 -43t-47 -35t-54.5 -23.5t-59 -8.5q-74 0 -107.5 43.5t-33.5 111.5v301z" />
    <glyph glyph-name="v" unicode="v" horiz-adv-x="629" 
d="M20 445v45h241v-45h-24q-17 0 -23.5 -8.5t-6.5 -20.5q0 -14 5 -27l93 -240q6 -15 12 -36.5t8 -33.5h5q5 15 9.5 31t14.5 39l99 241q8 19 8 33q0 12 -7 17t-17 5h-34v45h206v-45h-18q-29 0 -48 -18t-27 -38l-165 -392h-77l-185 448h-69z" />
    <glyph glyph-name="w" unicode="w" horiz-adv-x="869" 
d="M22 445v45h231v-45h-21q-18 0 -24.5 -7t-6.5 -20q0 -12 5 -32l59 -220q5 -20 7.5 -40.5t4.5 -34.5h5q2 14 6.5 33t12.5 42l109 324h80l99 -326q5 -14 9.5 -37.5t6.5 -37.5h5q2 14 6 33.5t11 42.5l67 225q3 9 4 16.5t1 13.5q0 25 -26 25h-36v45h210v-45h-22
q-23 0 -41.5 -14t-28.5 -46l-119 -388h-79l-105 329q-3 10 -7.5 30t-6.5 32h-4q-2 -12 -8 -31t-10 -30l-114 -330h-78l-133 448h-69z" />
    <glyph glyph-name="x" unicode="x" horiz-adv-x="596" 
d="M42 45q43 0 90 60l114 144l-146 196h-60v45h236v-45h-26q-22 0 -22 -21q0 -16 14 -35l43 -58q5 -7 11 -15.5t11 -16.5h3q5 8 10.5 16t10.5 15l54 70q11 14 11 26q0 19 -23 19h-27v45h201v-45h-12q-44 0 -90 -60l-99 -128l160 -212h60v-45h-238v45h23q25 0 25 22
q0 14 -13 32l-54 73q-7 8 -13 17.5t-11 17.5h-2q-7 -10 -12.5 -18t-12.5 -16l-66 -83q-11 -14 -11 -26q0 -19 23 -19h27v-45h-201v45h12z" />
    <glyph glyph-name="y" unicode="y" horiz-adv-x="629" 
d="M105 -180h71q12 0 25 3t25.5 12.5t25 28t24.5 49.5l28 74l-215 458h-69v45h241v-45h-24q-30 0 -30 -23q0 -11 10 -34l102 -224q7 -15 14 -37t11 -37h5q3 12 8 29.5t13 40.5l84 230q5 11 6 19t1 14q0 12 -7 17t-17 5h-34v45h206v-45h-18q-29 0 -46.5 -18t-25.5 -38
l-173 -461q-21 -57 -42.5 -94t-45 -58t-49 -29t-55.5 -8q-16 0 -28.5 3t-20.5 7v71z" />
    <glyph glyph-name="z" unicode="z" horiz-adv-x="500" 
d="M310 388q10 13 22 27.5t23 26.5v3h-164q-28 0 -51 -16.5t-23 -51.5v-34h-50v147h392v-43l-268 -341q-12 -16 -26.5 -32.5t-22.5 -25.5v-3h194q27 0 50.5 16.5t23.5 51.5v36h50v-149h-420v44z" />
    <glyph glyph-name="braceleft" unicode="{" horiz-adv-x="403" 
d="M158 150q0 16 -3.5 34t-11.5 33.5t-22.5 25.5t-36.5 10h-24v64h24q22 0 36.5 10t22.5 25.5t11.5 33.5t3.5 34v191q0 14 5 42t24.5 56.5t58.5 49.5t107 21v-50q-34 -2 -54.5 -12.5t-31 -26t-13.5 -34.5t-3 -40v-187q0 -21 -4 -43t-15 -41.5t-30 -35.5t-49 -23v-4
q30 -8 49 -23.5t30 -35t15 -41.5t4 -43v-187q0 -21 3 -40t13.5 -34.5t31 -26t54.5 -12.5v-50q-68 0 -107 21t-58.5 49.5t-24.5 56.5t-5 42v191z" />
    <glyph glyph-name="bar" unicode="|" horiz-adv-x="298" 
d="M193 780v-990h-88v990h88z" />
    <glyph glyph-name="braceright" unicode="}" horiz-adv-x="403" 
d="M50 -160q34 2 54.5 12.5t31 26t13.5 34.5t3 40v187q0 21 4 43t15 41.5t30 35t49 23.5v4q-30 7 -49 23t-30 35.5t-15 41.5t-4 43v187q0 21 -3 40t-13.5 34.5t-31 26t-54.5 12.5v50q68 0 107 -21t58.5 -49.5t24.5 -56.5t5 -42v-191q0 -16 3.5 -34t11.5 -33.5t22.5 -25.5
t36.5 -10h24v-64h-24q-22 0 -36.5 -10t-22.5 -25.5t-11.5 -33.5t-3.5 -34v-191q0 -14 -5 -42t-24.5 -56.5t-58.5 -49.5t-107 -21v50v0z" />
    <glyph glyph-name="asciitilde" unicode="~" horiz-adv-x="655" 
d="M80 320q29 41 67.5 65t86.5 24q35 0 62.5 -10t46.5 -17q24 -9 43 -14.5t40 -5.5q27 0 58.5 11t48.5 34l42 -31q-29 -41 -67.5 -65.5t-86.5 -24.5q-35 0 -63 10t-47 18q-24 9 -43.5 14.5t-39.5 5.5q-28 0 -59 -11.5t-48 -34.5l-41 32v0z" />
    <glyph glyph-name="uni00A0" unicode="&#xa0;" horiz-adv-x="300" 
 />
    <glyph glyph-name="exclamdown" unicode="&#xa1;" horiz-adv-x="346" 
d="M110 440q0 25 18.5 43t46.5 18q25 0 43 -18t18 -43q0 -28 -18 -46.5t-43 -18.5q-28 0 -46.5 18.5t-18.5 46.5zM149 291h52l33 -475q0 -15 -18 -26t-41 -11q-22 0 -40.5 11t-18.5 26z" />
    <glyph glyph-name="cent" unicode="&#xa2;" horiz-adv-x="522" 
d="M257 -9q-40 4 -76.5 21t-64.5 47.5t-44.5 74.5t-16.5 104t15.5 106t43 78.5t64.5 51t79 24.5v96h56v-94q59 -3 98 -25.5t59 -45.5v-87h-79v13q0 27 -6.5 45t-17.5 29.5t-25 17t-29 7.5v-412q45 2 76 21.5t59 51.5l34 -32q-12 -16 -29 -31.5t-38 -28t-46.5 -21.5
t-55.5 -12v-94h-56v95zM257 451q-29 -8 -49 -28t-32 -48.5t-17.5 -63.5t-5.5 -72q0 -33 5.5 -63.5t18 -55.5t32.5 -43.5t48 -27.5v402z" />
    <glyph glyph-name="sterling" unicode="&#xa3;" horiz-adv-x="636" 
d="M25 50q43 0 71 19t44 49t22.5 66t6.5 71q0 17 -1 34.5t-3 31.5h-104v53h94q-8 30 -12 61.5t-4 66.5q0 47 17 85.5t48.5 66t75.5 42.5t99 15q66 0 115.5 -21t77.5 -52v-104h-85v28q0 30 -9 48.5t-24 29t-35 14.5t-43 4q-42 0 -69 -14t-42 -35t-20.5 -47t-5.5 -50
q0 -36 4 -71t12 -67h198v-53h-188q1 -11 1.5 -24t0.5 -24q0 -68 -27 -122.5t-77 -96.5v-1h275q15 0 30 3t26.5 12t18.5 26t7 45v39h56v-178h-551v50v0z" />
    <glyph glyph-name="currency" unicode="&#xa4;" horiz-adv-x="646" 
d="M128 197q-7 9 -15.5 23t-16 32t-12.5 41t-5 50q0 29 5 52t12.5 41t16 31.5t15.5 22.5l-83 83l48 49l83 -84q9 7 23 15.5t32.5 16t41 12.5t49.5 5q30 0 53.5 -5t42 -12.5t31.5 -16t21 -15.5l84 84l47 -49l-83 -83q7 -9 15.5 -23t16 -32t12.5 -41t5 -51q0 -27 -5 -50
t-12.5 -41t-16 -32t-15.5 -23l83 -83l-47 -49l-83 84q-10 -7 -24 -16t-33 -16.5t-42 -12.5t-50 -5q-29 0 -52 5t-41 12.5t-31 16.5t-22 16l-83 -84l-48 49zM495 342q0 36 -13.5 67.5t-37 55t-55 37t-67.5 13.5q-35 0 -66 -13.5t-54.5 -37t-37 -55t-13.5 -67.5
q0 -35 13.5 -66t37 -54.5t54.5 -37t66 -13.5q36 0 67.5 13.5t55 37t37 54.5t13.5 66z" />
    <glyph glyph-name="yen" unicode="&#xa5;" horiz-adv-x="686" 
d="M252 50q24 0 32 14t8 43v43h-145v53h145v59h-145v53h118l-167 335h-78v50h278v-50h-41q-18 0 -25 -8t-7 -20q0 -11 3 -22t8 -21l90 -192q5 -11 12.5 -30.5t11.5 -33.5h5q6 17 14.5 35t13.5 29l101 199q5 10 8.5 20.5t3.5 19.5q0 11 -6.5 17.5t-23.5 6.5h-32v50h232v-50
h-28q-25 0 -46.5 -19t-35.5 -45l-140 -271h118v-53h-145v-59h145v-53h-145v-100h90v-50h-277v50h50z" />
    <glyph glyph-name="brokenbar" unicode="&#xa6;" horiz-adv-x="298" 
d="M193 207v-417h-88v417h88zM193 780v-417h-88v417h88z" />
    <glyph glyph-name="section" unicode="&#xa7;" horiz-adv-x="561" 
d="M82 -100h79v-13q0 -30 9 -49t23 -29.5t31.5 -14t35.5 -3.5q54 0 83 27.5t29 69.5q0 24 -10 42t-26.5 33.5t-37.5 28.5t-44 26l-85 49q-24 14 -46 30t-38 36t-25.5 44.5t-9.5 56.5q0 31 8.5 55.5t25 46t39 40.5t51.5 39q-33 25 -51.5 54t-18.5 79q0 44 18 75t46.5 50.5
t64 28.5t70.5 9q34 0 63 -7t52 -17.5t39.5 -24t26.5 -25.5v-87h-79v13q0 30 -9 48.5t-24 29t-35 14.5t-41 4q-26 0 -45.5 -8t-33 -21t-20 -29.5t-6.5 -32.5q0 -23 5.5 -39.5t18.5 -31.5t34.5 -29t53.5 -31l62 -33q27 -14 53 -31.5t47 -39t33.5 -48.5t12.5 -60q0 -29 -10 -55
t-26.5 -49t-37.5 -44.5t-43 -41.5q20 -16 32.5 -30.5t19.5 -30t9.5 -33t2.5 -38.5q0 -34 -14.5 -63.5t-41 -52t-63 -35.5t-80.5 -13q-34 0 -62 7t-50 17.5t-38.5 24t-26.5 25.5v87zM419 204q0 25 -8 44t-20.5 33t-27 24.5t-27.5 18.5q-22 13 -54 30.5t-61 30.5
q-39 -27 -59 -60t-20 -76q0 -26 8.5 -45t22 -33.5t29.5 -25.5t32 -20q13 -8 29 -17.5t31.5 -18.5t30 -17t25.5 -13q42 42 55.5 75.5t13.5 69.5z" />
    <glyph glyph-name="dieresis" unicode="&#xa8;" horiz-adv-x="572" 
d="M139 628q0 22 16 38t38 16t38.5 -16t16.5 -38t-16.5 -38t-38.5 -16t-38 16t-16 38zM324 628q0 22 16 38t37 16q23 0 39.5 -16t16.5 -38t-16.5 -38t-39.5 -16q-21 0 -37 16t-16 38z" />
    <glyph glyph-name="copyright" unicode="&#xa9;" horiz-adv-x="862" 
d="M254 348q0 92 50.5 146.5t141.5 54.5q45 0 80.5 -14t60.5 -37v-73h-65v11q0 23 -7 36.5t-18 20.5t-23.5 9t-22.5 2q-28 0 -47 -13.5t-31 -35.5t-17.5 -50t-5.5 -57q0 -69 24 -110t75 -41q10 0 23 1.5t24 7.5t18.5 17.5t7.5 31.5v10h65v-67q-23 -20 -62 -32.5t-81 -12.5
q-86 0 -138 47t-52 148zM70 350q0 75 28.5 141t77 114.5t114.5 77t141 28.5t141 -28.5t114.5 -77t77 -114.5t28.5 -141t-28.5 -141t-77 -114.5t-114.5 -77t-141 -28.5t-141 28.5t-114.5 77t-77 114.5t-28.5 141zM732 349q0 62 -24 117t-65 96t-96 65t-117 24t-116.5 -24
t-95 -65t-64.5 -96t-24 -117t24 -116.5t64.5 -95t95 -64.5t116.5 -24t117 24t96 64.5t65 95t24 116.5z" />
    <glyph glyph-name="ordfeminine" unicode="&#xaa;" horiz-adv-x="415" 
d="M45 462q0 33 14.5 53.5t38 31.5t52 14.5t56.5 3.5h63v29q0 39 -18.5 58.5t-48.5 19.5q-23 0 -42 -11t-19 -38v-19h-63v58q28 20 66.5 34.5t86.5 14.5q117 0 117 -121v-180h52v-36h-130v58h-1q-9 -10 -21.5 -21.5t-28 -21t-35 -16t-41.5 -6.5q-43 0 -70.5 25t-27.5 70z
M270 530h-54q-15 0 -31 -2.5t-28.5 -9.5t-21 -18.5t-8.5 -29.5q0 -23 12.5 -36t41.5 -13q11 0 26.5 3.5t29.5 12t23.5 21.5t9.5 32v40z" />
    <glyph glyph-name="guillemotleft" unicode="&#xab;" horiz-adv-x="494" 
d="M225 474l51 -31l-109 -178l109 -178l-51 -31l-155 209zM382 455l52 -29l-99 -161l99 -161l-52 -29l-141 190z" />
    <glyph glyph-name="logicalnot" unicode="&#xac;" horiz-adv-x="765" 
d="M70 362v72h590v-238h-80v166h-510z" />
    <glyph glyph-name="uni00AD" unicode="&#xad;" horiz-adv-x="487" 
d="M397 302v-72h-307v72h307z" />
    <glyph glyph-name="registered" unicode="&#xae;" horiz-adv-x="862" 
d="M275 203q13 0 17 6t4 20v270h-42v40h199q13 0 35 -3t42.5 -14t35.5 -34t15 -62q0 -40 -23.5 -66.5t-58.5 -37.5l82 -119h36v-40h-108l-94 146h-33v-106h38v-40h-166v40h21zM70 350q0 75 28.5 141t77 114.5t114.5 77t141 28.5t141 -28.5t114.5 -77t77 -114.5t28.5 -141
t-28.5 -141t-77 -114.5t-114.5 -77t-141 -28.5t-141 28.5t-114.5 77t-77 114.5t-28.5 141zM732 349q0 62 -24 117t-65 96t-96 65t-117 24t-116.5 -24t-95 -65t-64.5 -96t-24 -117t24 -116.5t64.5 -95t95 -64.5t116.5 -24t117 24t96 64.5t65 95t24 116.5zM418 351q30 0 51 19
t21 56q0 34 -18.5 52.5t-48.5 18.5h-43v-146h38z" />
    <glyph glyph-name="macron" unicode="&#xaf;" horiz-adv-x="572" 
d="M418 657v-64h-264v64h264z" />
    <glyph glyph-name="degree" unicode="&#xb0;" horiz-adv-x="379" 
d="M60 581q0 27 10 51t27.5 41.5t41.5 27.5t51 10t50.5 -10t41 -27.5t27.5 -41.5t10 -51t-10 -50.5t-27.5 -41t-41 -27.5t-50.5 -10t-51 10t-41.5 27.5t-27.5 41t-10 50.5zM266 581q0 16 -6.5 30t-17.5 24.5t-25 16.5t-28 6q-15 0 -29 -6.5t-24.5 -17t-16.5 -24.5t-6 -29
q0 -31 23 -53.5t53 -22.5q32 0 54.5 22.5t22.5 53.5z" />
    <glyph glyph-name="plusminus" unicode="&#xb1;" horiz-adv-x="662" 
d="M80 391v72h215v175h72v-175h215v-72h-215v-175h-72v175h-215zM582 141v-72h-502v72h502z" />
    <glyph glyph-name="twosuperior" unicode="&#xb2;" 
d="M141 550q37 31 60.5 55.5t36 45t17 40t4.5 41.5q0 11 -3 23.5t-10.5 23t-20 17t-31.5 6.5q-28 0 -47 -16t-19 -51v-17h-53v74q21 19 58 34t85 15q36 0 60.5 -9t39.5 -24t22 -33.5t7 -37.5q0 -27 -10 -50.5t-30 -46.5t-50 -48.5t-70 -57.5l-39 -33v-2h202l-17 -63h-265v55
z" />
    <glyph glyph-name="threesuperior" unicode="&#xb3;" 
d="M68 545h53v-16q0 -35 23 -49.5t54 -14.5q38 0 58 22t20 58t-22 54.5t-60 18.5h-31v38h30q35 0 54.5 20t19.5 55q0 33 -17.5 52t-53.5 19q-28 0 -47 -14.5t-19 -49.5v-17h-53v74q22 19 59.5 32.5t79.5 13.5q66 0 102 -28t36 -74q0 -20 -7.5 -36t-20.5 -29t-29 -21t-32 -11
v-3q39 -2 68 -26.5t29 -65.5q0 -28 -11.5 -50.5t-32 -38t-48.5 -24t-61 -8.5q-46 0 -83 13t-58 32v74z" />
    <glyph glyph-name="acute" unicode="&#xb4;" horiz-adv-x="572" 
d="M439 702l-134 -138h-52l78 138h108z" />
    <glyph glyph-name="mu" unicode="&#xb5;" horiz-adv-x="643" 
d="M72 -205q19 0 26 11.5t7 38.5v600h-80v45h173v-322q0 -53 32.5 -80t81.5 -27q16 0 39 8t44 24t35.5 39.5t14.5 54.5v258h-74v45h167v-445h80v-45h-172v99h-2q-29 -50 -66.5 -80t-89.5 -30q-25 0 -47.5 7.5t-43.5 29.5h-2q0 -5 0.5 -15.5t1 -23t1 -25.5t0.5 -22v-145h82
v-45h-245v45h37z" />
    <glyph glyph-name="mu" unicode="&#x3bc;" horiz-adv-x="643" 
d="M72 -205q19 0 26 11.5t7 38.5v600h-80v45h173v-322q0 -53 32.5 -80t81.5 -27q16 0 39 8t44 24t35.5 39.5t14.5 54.5v258h-74v45h167v-445h80v-45h-172v99h-2q-29 -50 -66.5 -80t-89.5 -30q-25 0 -47.5 7.5t-43.5 29.5h-2q0 -5 0.5 -15.5t1 -23t1 -25.5t0.5 -22v-145h82
v-45h-245v45h37z" />
    <glyph glyph-name="paragraph" unicode="&#xb6;" horiz-adv-x="515" 
d="M214 397q-42 0 -74 13t-53 34t-31.5 48t-10.5 56q0 27 8.5 54t28.5 48.5t53 35.5t82 14h64v-950h-67v647zM420 700v-950h-67v950h67z" />
    <glyph glyph-name="periodcentered" unicode="&#xb7;" horiz-adv-x="233" 
d="M45 365q0 29 21 50t50 21q30 0 51 -21t21 -50q0 -30 -21 -50.5t-51 -20.5q-29 0 -50 20.5t-21 50.5z" />
    <glyph glyph-name="cedilla" unicode="&#xb8;" horiz-adv-x="492" 
d="M202 -144q13 -8 27 -14t34 -6q21 0 31 11t10 27q0 22 -15.5 31.5t-43.5 9.5h-27l13 85h47l-9 -51q7 1 10 1h7q46 0 67 -20.5t21 -52.5q0 -38 -31 -61t-76 -23q-26 0 -48 7t-36 18z" />
    <glyph glyph-name="onesuperior" unicode="&#xb9;" 
d="M175 472q20 0 20 26v290h-92v35h23q43 0 82.5 6t65.5 12v-369h50v-36h-183v36h34z" />
    <glyph glyph-name="ordmasculine" unicode="&#xba;" horiz-adv-x="415" 
d="M32 538q0 42 13.5 74.5t37 54.5t55.5 33t69 11t69.5 -11t56 -33t37 -54.5t13.5 -74.5t-13.5 -74t-37 -53.5t-56 -32.5t-69.5 -11q-38 0 -70 11t-55 32.5t-36.5 53.5t-13.5 74zM299 538q0 19 -3.5 42.5t-13.5 44t-28 34.5t-47 14t-46.5 -14t-28 -34.5t-14 -44t-3.5 -42.5
t3.5 -42t14 -43.5t28 -34t46.5 -13.5t47 13.5t28 34t13.5 43.5t3.5 42z" />
    <glyph glyph-name="guillemotright" unicode="&#xbb;" horiz-adv-x="494" 
d="M159 265l-99 161l52 29l141 -190l-141 -190l-52 29zM327 265l-109 178l51 31l155 -209l-155 -209l-51 31z" />
    <glyph glyph-name="onequarter" unicode="&#xbc;" horiz-adv-x="804" 
d="M558 742l56 -23l-348 -772l-56 23zM437 101v48l198 252h62v-239h70l-15 -61h-55v-100h-77v100h-183zM624 322h-2l-126 -163v-2h128v165zM161 343q20 0 20 26v290h-92v35h23q43 0 82.5 6t65.5 12v-369h50v-36h-183v36h34z" />
    <glyph glyph-name="onehalf" unicode="&#xbd;" horiz-adv-x="804" 
d="M558 742l56 -23l-348 -772l-56 23zM568 115q37 31 60.5 55.5t36 45t17 40t4.5 41.5q0 11 -3 23.5t-10.5 23t-20 17t-31.5 6.5q-28 0 -47 -16t-19 -51v-17h-53v74q21 19 58 34t85 15q36 0 60.5 -9t39.5 -24t22 -33.5t7 -37.5q0 -27 -10 -50.5t-30 -46.5t-50 -48.5
t-70 -57.5l-39 -33v-2h202l-17 -63h-265v55zM161 343q20 0 20 26v290h-92v35h23q43 0 82.5 6t65.5 12v-369h50v-36h-183v36h34z" />
    <glyph glyph-name="threequarters" unicode="&#xbe;" horiz-adv-x="804" 
d="M578 742l56 -23l-348 -772l-56 23zM446 101v48l198 252h62v-239h70l-15 -61h-55v-100h-77v100h-183zM633 322h-2l-126 -163v-2h128v165zM68 416h53v-16q0 -35 23 -49.5t54 -14.5q38 0 58 22t20 58t-22 54.5t-60 18.5h-31v38h30q35 0 54.5 20t19.5 55q0 33 -17.5 52
t-53.5 19q-28 0 -47 -14.5t-19 -49.5v-17h-53v74q22 19 59.5 32.5t79.5 13.5q66 0 102 -28t36 -74q0 -20 -7.5 -36t-20.5 -29t-29 -21t-32 -11v-3q39 -2 68 -26.5t29 -65.5q0 -28 -11.5 -50.5t-32 -38t-48.5 -24t-61 -8.5q-46 0 -83 13t-58 32v74z" />
    <glyph glyph-name="questiondown" unicode="&#xbf;" horiz-adv-x="535" 
d="M45 -60q0 33 12 61t31 51.5t42.5 43.5t47.5 37q51 37 79 73.5t28 84.5h52q0 -30 -4.5 -55.5t-15 -48.5t-29 -44.5t-45.5 -44.5q-49 -41 -71 -76.5t-22 -81.5q0 -18 6.5 -37t21.5 -35t39.5 -26t61.5 -10q21 0 45.5 4.5t44.5 17.5t33.5 36t13.5 61v21h84v-102
q-20 -20 -46 -36.5t-57 -28.5t-65 -19t-69 -7q-64 0 -106 14t-67 36.5t-35 51.5t-10 59zM246 440q0 25 18.5 43t46.5 18q25 0 43 -18t18 -43q0 -28 -18 -46.5t-43 -18.5q-28 0 -46.5 18.5t-18.5 46.5z" />
    <glyph glyph-name="Agrave" unicode="&#xc0;" horiz-adv-x="840" 
d="M55 50q24 0 45.5 17t36.5 53l236 580h98l264 -650h80v-50h-279v50h42q17 0 24 11.5t7 25.5q0 8 -2 15.5t-4 14.5l-32 83h-332l-32 -82q-9 -23 -9 -39q0 -14 6 -21.5t22 -7.5h43v-50h-244v50h30zM437 534q-6 14 -14 38.5t-13 42.5h-5q-8 -19 -17 -42t-15 -37l-116 -282
h297zM379 926l81 -153h-53l-147 153h119z" />
    <glyph glyph-name="Aacute" unicode="&#xc1;" horiz-adv-x="840" 
d="M55 50q24 0 45.5 17t36.5 53l236 580h98l264 -650h80v-50h-279v50h42q17 0 24 11.5t7 25.5q0 8 -2 15.5t-4 14.5l-32 83h-332l-32 -82q-9 -23 -9 -39q0 -14 6 -21.5t22 -7.5h43v-50h-244v50h30zM437 534q-6 14 -14 38.5t-13 42.5h-5q-8 -19 -17 -42t-15 -37l-116 -282
h297zM596 926l-147 -153h-53l81 153h119z" />
    <glyph glyph-name="Acircumflex" unicode="&#xc2;" horiz-adv-x="840" 
d="M55 50q24 0 45.5 17t36.5 53l236 580h98l264 -650h80v-50h-279v50h42q17 0 24 11.5t7 25.5q0 8 -2 15.5t-4 14.5l-32 83h-332l-32 -82q-9 -23 -9 -39q0 -14 6 -21.5t22 -7.5h43v-50h-244v50h30zM437 534q-6 14 -14 38.5t-13 42.5h-5q-8 -19 -17 -42t-15 -37l-116 -282
h297zM460 919l123 -142h-68l-96 82l-94 -82h-68l122 142h81z" />
    <glyph glyph-name="Atilde" unicode="&#xc3;" horiz-adv-x="840" 
d="M55 50q24 0 45.5 17t36.5 53l236 580h98l264 -650h80v-50h-279v50h42q17 0 24 11.5t7 25.5q0 8 -2 15.5t-4 14.5l-32 83h-332l-32 -82q-9 -23 -9 -39q0 -14 6 -21.5t22 -7.5h43v-50h-244v50h30zM437 534q-6 14 -14 38.5t-13 42.5h-5q-8 -19 -17 -42t-15 -37l-116 -282
h297zM414 806q-20 8 -36 14t-33 6q-14 0 -26.5 -7t-16.5 -30h-45q0 42 24.5 72t68.5 30q20 0 39.5 -6.5t41.5 -14.5q17 -7 34.5 -12.5t30.5 -5.5q14 0 26.5 6.5t17.5 29.5h43q0 -25 -8 -44t-20.5 -32t-29 -19.5t-33.5 -6.5q-8 0 -14.5 0.5t-15 3t-20 6.5t-28.5 10z" />
    <glyph glyph-name="Adieresis" unicode="&#xc4;" horiz-adv-x="840" 
d="M55 50q24 0 45.5 17t36.5 53l236 580h98l264 -650h80v-50h-279v50h42q17 0 24 11.5t7 25.5q0 8 -2 15.5t-4 14.5l-32 83h-332l-32 -82q-9 -23 -9 -39q0 -14 6 -21.5t22 -7.5h43v-50h-244v50h30zM437 534q-6 14 -14 38.5t-13 42.5h-5q-8 -19 -17 -42t-15 -37l-116 -282
h297zM249 848q0 23 17 40t40 17t40 -17t17 -40t-17 -40t-40 -17t-40 17t-17 40zM477 848q0 23 17 40t38 17q25 0 42 -17t17 -40t-17 -40t-42 -17q-21 0 -38 17t-17 40z" />
    <glyph glyph-name="Aring" unicode="&#xc5;" horiz-adv-x="840" 
d="M55 50q24 0 45.5 17t36.5 53l236 580h98l264 -650h80v-50h-279v50h42q17 0 24 11.5t7 25.5q0 8 -2 15.5t-4 14.5l-32 83h-332l-32 -82q-9 -23 -9 -39q0 -14 6 -21.5t22 -7.5h43v-50h-244v50h30zM437 534q-6 14 -14 38.5t-13 42.5h-5q-8 -19 -17 -42t-15 -37l-116 -282
h297zM316 859q0 22 8 41t22 33t33 22.5t40 8.5q45 0 74.5 -30.5t29.5 -74.5t-29.5 -74t-74.5 -30q-21 0 -40 8t-33 22t-22 33t-8 41zM469 860q0 20 -14 35t-36 15q-21 0 -34.5 -15t-13.5 -35q0 -22 13.5 -36t34.5 -14q22 0 36 14t14 36z" />
    <glyph glyph-name="AE" unicode="&#xc6;" horiz-adv-x="1050" 
d="M55 50q20 0 45.5 18.5t47.5 51.5l341 530h-87v50h589v-177h-56v28q0 55 -25.5 75.5t-59.5 20.5h-207v-265h177v80h56v-213h-56v80h-177v-276h219q15 0 30 4.5t26.5 15.5t18.5 29.5t7 46.5v35h56v-184h-541v50h47q24 0 32 14t8 43v93h-277l-51 -82q-5 -8 -12 -22.5
t-7 -26.5q0 -8 4.5 -13.5t17.5 -5.5h43v-50h-239v50h30zM546 626h-5q-12 -19 -26 -41t-23 -36l-192 -295h246v372z" />
    <glyph glyph-name="Ccedilla" unicode="&#xc7;" horiz-adv-x="661" 
d="M45 345q0 84 22.5 151.5t66 115t105.5 73.5t142 26q65 0 124.5 -21t110.5 -68v-113h-87v14q0 45 -16 71.5t-39 41t-49.5 18.5t-48.5 4q-60 0 -103 -28.5t-70.5 -74t-41 -101t-13.5 -109.5q0 -62 13 -117t40 -96.5t69 -65.5t100 -24q22 0 49.5 3t52 15t41 35t16.5 62v17
h87v-106q-49 -38 -113.5 -58.5t-132.5 -20.5t-127.5 20t-103.5 62.5t-69 110t-25 163.5zM296 -159q14 -9 30 -15.5t38 -6.5q23 0 34 12t11 30q0 24 -17 34.5t-48 10.5h-30l14 94h55l-10 -56q8 1 11.5 1h8.5q51 0 72 -23t21 -58q0 -42 -34 -67.5t-84 -25.5q-29 0 -53 7.5
t-40 20.5z" />
    <glyph glyph-name="Egrave" unicode="&#xc8;" horiz-adv-x="626" 
d="M82 50q24 0 32 14t8 43v543h-87v50h532v-177h-56v28q0 55 -25.5 75.5t-59.5 20.5h-207v-265h177v80h56v-213h-56v80h-177v-276h219q15 0 30 4.5t26.5 15.5t18.5 29.5t7 46.5v35h56v-184h-541v50h47zM289 926l81 -153h-53l-147 153h119z" />
    <glyph glyph-name="Eacute" unicode="&#xc9;" horiz-adv-x="626" 
d="M82 50q24 0 32 14t8 43v543h-87v50h532v-177h-56v28q0 55 -25.5 75.5t-59.5 20.5h-207v-265h177v80h56v-213h-56v80h-177v-276h219q15 0 30 4.5t26.5 15.5t18.5 29.5t7 46.5v35h56v-184h-541v50h47zM498 926l-147 -153h-53l81 153h119z" />
    <glyph glyph-name="Ecircumflex" unicode="&#xca;" horiz-adv-x="626" 
d="M82 50q24 0 32 14t8 43v543h-87v50h532v-177h-56v28q0 55 -25.5 75.5t-59.5 20.5h-207v-265h177v80h56v-213h-56v80h-177v-276h219q15 0 30 4.5t26.5 15.5t18.5 29.5t7 46.5v35h56v-184h-541v50h47zM369 919l123 -142h-68l-96 82l-94 -82h-68l122 142h81z" />
    <glyph glyph-name="Edieresis" unicode="&#xcb;" horiz-adv-x="626" 
d="M82 50q24 0 32 14t8 43v543h-87v50h532v-177h-56v28q0 55 -25.5 75.5t-59.5 20.5h-207v-265h177v80h56v-213h-56v80h-177v-276h219q15 0 30 4.5t26.5 15.5t18.5 29.5t7 46.5v35h56v-184h-541v50h47zM156 848q0 23 17 40t40 17t40 -17t17 -40t-17 -40t-40 -17t-40 17
t-17 40zM384 848q0 23 17 40t38 17q25 0 42 -17t17 -40t-17 -40t-42 -17q-21 0 -38 17t-17 40z" />
    <glyph glyph-name="Igrave" unicode="&#xcc;" horiz-adv-x="351" 
d="M87 50q24 0 32 14t8 43v543h-92v50h281v-50h-52q-24 0 -32 -14t-8 -43v-543h92v-50h-281v50h52zM126 926l81 -153h-53l-147 153h119z" />
    <glyph glyph-name="Iacute" unicode="&#xcd;" horiz-adv-x="351" 
d="M87 50q24 0 32 14t8 43v543h-92v50h281v-50h-52q-24 0 -32 -14t-8 -43v-543h92v-50h-281v50h52zM342 926l-147 -153h-53l81 153h119z" />
    <glyph glyph-name="Icircumflex" unicode="&#xce;" horiz-adv-x="351" 
d="M87 50q24 0 32 14t8 43v543h-92v50h281v-50h-52q-24 0 -32 -14t-8 -43v-543h92v-50h-281v50h52zM216 919l123 -142h-68l-96 82l-94 -82h-68l122 142h81z" />
    <glyph glyph-name="Idieresis" unicode="&#xcf;" horiz-adv-x="351" 
d="M87 50q24 0 32 14t8 43v543h-92v50h281v-50h-52q-24 0 -32 -14t-8 -43v-543h92v-50h-281v50h52zM6 848q0 23 17 40t40 17t40 -17t17 -40t-17 -40t-40 -17t-40 17t-17 40zM234 848q0 23 17 40t38 17q25 0 42 -17t17 -40t-17 -40t-42 -17q-21 0 -38 17t-17 40z" />
    <glyph glyph-name="Eth" unicode="&#xd0;" horiz-adv-x="737" 
d="M82 50q24 0 32 14t8 43v232h-102v54h102v257h-87v50h299q82 0 148.5 -17t113 -56.5t71.5 -105.5t25 -164q0 -88 -29.5 -155t-79.5 -112t-115.5 -67.5t-138.5 -22.5h-294v50h47zM329 53q43 0 89.5 17.5t84 54t62 94t24.5 138.5q0 78 -18.5 133t-52.5 90t-81 51t-104 16
h-114v-254h181v-54h-181v-286h110z" />
    <glyph glyph-name="Ntilde" unicode="&#xd1;" horiz-adv-x="809" 
d="M82 50q24 0 32 16.5t8 45.5v538h-87v50h184l341 -487q18 -25 34 -54.5t26 -47.5h4q0 11 -1 25.5t-1.5 28.5t-1 27t-0.5 22v374q0 29 -8 45.5t-32 16.5h-47v50h241v-50h-47q-24 0 -32 -16.5t-8 -45.5v-588h-87l-356 508q-19 26 -32.5 50.5t-22.5 42.5h-4q0 -10 1 -25
t1.5 -31t1 -31t0.5 -25v-377q0 -29 8 -45.5t32 -16.5h47v-50h-241v50h47zM398 806q-20 8 -36 14t-33 6q-14 0 -26.5 -7t-16.5 -30h-45q0 42 24.5 72t68.5 30q20 0 39.5 -6.5t41.5 -14.5q17 -7 34.5 -12.5t30.5 -5.5q14 0 26.5 6.5t17.5 29.5h43q0 -25 -8 -44t-20.5 -32
t-29 -19.5t-33.5 -6.5q-8 0 -14.5 0.5t-15 3t-20 6.5t-28.5 10z" />
    <glyph glyph-name="Ograve" unicode="&#xd2;" horiz-adv-x="760" 
d="M45 350q0 81 23 147.5t66.5 114t105.5 73.5t140 26t140 -26t105.5 -73.5t66.5 -114t23 -147.5t-23.5 -147.5t-67 -114t-105.5 -73.5t-139 -26t-139 26t-105.5 73.5t-67 114t-23.5 147.5zM612 350q0 30 -4.5 64.5t-14.5 68.5t-27.5 66t-43 56t-61 38.5t-81.5 14.5
t-81.5 -14.5t-61 -38.5t-43 -56t-27.5 -66t-14.5 -68.5t-4.5 -64.5q0 -45 10 -99t36.5 -100.5t71.5 -77.5t114 -31t114 31t71.5 77.5t36.5 100.5t10 99zM340 926l81 -153h-53l-147 153h119z" />
    <glyph glyph-name="Oacute" unicode="&#xd3;" horiz-adv-x="760" 
d="M45 350q0 81 23 147.5t66.5 114t105.5 73.5t140 26t140 -26t105.5 -73.5t66.5 -114t23 -147.5t-23.5 -147.5t-67 -114t-105.5 -73.5t-139 -26t-139 26t-105.5 73.5t-67 114t-23.5 147.5zM612 350q0 30 -4.5 64.5t-14.5 68.5t-27.5 66t-43 56t-61 38.5t-81.5 14.5
t-81.5 -14.5t-61 -38.5t-43 -56t-27.5 -66t-14.5 -68.5t-4.5 -64.5q0 -45 10 -99t36.5 -100.5t71.5 -77.5t114 -31t114 31t71.5 77.5t36.5 100.5t10 99zM560 926l-147 -153h-53l81 153h119z" />
    <glyph glyph-name="Ocircumflex" unicode="&#xd4;" horiz-adv-x="760" 
d="M45 350q0 81 23 147.5t66.5 114t105.5 73.5t140 26t140 -26t105.5 -73.5t66.5 -114t23 -147.5t-23.5 -147.5t-67 -114t-105.5 -73.5t-139 -26t-139 26t-105.5 73.5t-67 114t-23.5 147.5zM612 350q0 30 -4.5 64.5t-14.5 68.5t-27.5 66t-43 56t-61 38.5t-81.5 14.5
t-81.5 -14.5t-61 -38.5t-43 -56t-27.5 -66t-14.5 -68.5t-4.5 -64.5q0 -45 10 -99t36.5 -100.5t71.5 -77.5t114 -31t114 31t71.5 77.5t36.5 100.5t10 99zM420 919l123 -142h-68l-96 82l-94 -82h-68l122 142h81z" />
    <glyph glyph-name="Otilde" unicode="&#xd5;" horiz-adv-x="760" 
d="M45 350q0 81 23 147.5t66.5 114t105.5 73.5t140 26t140 -26t105.5 -73.5t66.5 -114t23 -147.5t-23.5 -147.5t-67 -114t-105.5 -73.5t-139 -26t-139 26t-105.5 73.5t-67 114t-23.5 147.5zM612 350q0 30 -4.5 64.5t-14.5 68.5t-27.5 66t-43 56t-61 38.5t-81.5 14.5
t-81.5 -14.5t-61 -38.5t-43 -56t-27.5 -66t-14.5 -68.5t-4.5 -64.5q0 -45 10 -99t36.5 -100.5t71.5 -77.5t114 -31t114 31t71.5 77.5t36.5 100.5t10 99zM374 806q-20 8 -36 14t-33 6q-14 0 -26.5 -7t-16.5 -30h-45q0 42 24.5 72t68.5 30q20 0 39.5 -6.5t41.5 -14.5
q17 -7 34.5 -12.5t30.5 -5.5q14 0 26.5 6.5t17.5 29.5h43q0 -25 -8 -44t-20.5 -32t-29 -19.5t-33.5 -6.5q-8 0 -14.5 0.5t-15 3t-20 6.5t-28.5 10z" />
    <glyph glyph-name="Odieresis" unicode="&#xd6;" horiz-adv-x="760" 
d="M45 350q0 81 23 147.5t66.5 114t105.5 73.5t140 26t140 -26t105.5 -73.5t66.5 -114t23 -147.5t-23.5 -147.5t-67 -114t-105.5 -73.5t-139 -26t-139 26t-105.5 73.5t-67 114t-23.5 147.5zM612 350q0 30 -4.5 64.5t-14.5 68.5t-27.5 66t-43 56t-61 38.5t-81.5 14.5
t-81.5 -14.5t-61 -38.5t-43 -56t-27.5 -66t-14.5 -68.5t-4.5 -64.5q0 -45 10 -99t36.5 -100.5t71.5 -77.5t114 -31t114 31t71.5 77.5t36.5 100.5t10 99zM209 848q0 23 17 40t40 17t40 -17t17 -40t-17 -40t-40 -17t-40 17t-17 40zM437 848q0 23 17 40t38 17q25 0 42 -17
t17 -40t-17 -40t-42 -17q-21 0 -38 17t-17 40z" />
    <glyph glyph-name="multiply" unicode="&#xd7;" horiz-adv-x="596" 
d="M248 354l-163 163l50 50l163 -163l163 163l50 -50l-163 -163l163 -163l-50 -50l-163 163l-156 -156l-50 50z" />
    <glyph glyph-name="Oslash" unicode="&#xd8;" horiz-adv-x="760" 
d="M157 67q-54 48 -83 120t-29 163q0 81 23 147.5t66.5 114t105.5 73.5t140 26q53 0 98 -12t83 -35l61 90l43 -28l-63 -93q54 -48 83.5 -120t29.5 -163q0 -81 -23.5 -147.5t-67 -114t-105.5 -73.5t-139 -26q-53 0 -98.5 12t-83.5 35l-61 -90l-42 29zM612 350q0 49 -13 107.5
t-44 106.5l-317 -469q26 -24 60.5 -38.5t81.5 -14.5q69 0 114 31t71.5 77.5t36.5 100.5t10 99zM521 605q-26 24 -60.5 38.5t-80.5 14.5t-81.5 -14.5t-61 -38.5t-43 -56t-27.5 -66t-14.5 -68.5t-4.5 -64.5q0 -25 3 -52.5t9.5 -55.5t17 -55t26.5 -51z" />
    <glyph glyph-name="Ugrave" unicode="&#xd9;" horiz-adv-x="783" 
d="M117 650h-87v50h266v-50h-42q-24 0 -32 -14t-8 -43v-352q0 -41 9 -76.5t30.5 -61t56.5 -40t87 -14.5q51 0 89 15t63 41t37.5 61t12.5 75v347q0 29 -8 45.5t-32 16.5h-47v50h241v-50h-47q-24 0 -32 -16.5t-8 -45.5v-347q0 -61 -19 -108t-54.5 -79t-85.5 -48.5t-112 -16.5
q-64 0 -115.5 15.5t-87.5 47t-55.5 79t-19.5 110.5v409zM349 926l81 -153h-53l-147 153h119z" />
    <glyph glyph-name="Uacute" unicode="&#xda;" horiz-adv-x="783" 
d="M117 650h-87v50h266v-50h-42q-24 0 -32 -14t-8 -43v-352q0 -41 9 -76.5t30.5 -61t56.5 -40t87 -14.5q51 0 89 15t63 41t37.5 61t12.5 75v347q0 29 -8 45.5t-32 16.5h-47v50h241v-50h-47q-24 0 -32 -16.5t-8 -45.5v-347q0 -61 -19 -108t-54.5 -79t-85.5 -48.5t-112 -16.5
q-64 0 -115.5 15.5t-87.5 47t-55.5 79t-19.5 110.5v409zM576 926l-147 -153h-53l81 153h119z" />
    <glyph glyph-name="Ucircumflex" unicode="&#xdb;" horiz-adv-x="783" 
d="M117 650h-87v50h266v-50h-42q-24 0 -32 -14t-8 -43v-352q0 -41 9 -76.5t30.5 -61t56.5 -40t87 -14.5q51 0 89 15t63 41t37.5 61t12.5 75v347q0 29 -8 45.5t-32 16.5h-47v50h241v-50h-47q-24 0 -32 -16.5t-8 -45.5v-347q0 -61 -19 -108t-54.5 -79t-85.5 -48.5t-112 -16.5
q-64 0 -115.5 15.5t-87.5 47t-55.5 79t-19.5 110.5v409zM432 919l123 -142h-68l-96 82l-94 -82h-68l122 142h81z" />
    <glyph glyph-name="Udieresis" unicode="&#xdc;" horiz-adv-x="783" 
d="M117 650h-87v50h266v-50h-42q-24 0 -32 -14t-8 -43v-352q0 -41 9 -76.5t30.5 -61t56.5 -40t87 -14.5q51 0 89 15t63 41t37.5 61t12.5 75v347q0 29 -8 45.5t-32 16.5h-47v50h241v-50h-47q-24 0 -32 -16.5t-8 -45.5v-347q0 -61 -19 -108t-54.5 -79t-85.5 -48.5t-112 -16.5
q-64 0 -115.5 15.5t-87.5 47t-55.5 79t-19.5 110.5v409zM221 848q0 23 17 40t40 17t40 -17t17 -40t-17 -40t-40 -17t-40 17t-17 40zM449 848q0 23 17 40t38 17q25 0 42 -17t17 -40t-17 -40t-42 -17q-21 0 -38 17t-17 40z" />
    <glyph glyph-name="Yacute" unicode="&#xdd;" horiz-adv-x="736" 
d="M277 50q24 0 32 14t8 43v135l-214 408h-78v50h278v-50h-41q-18 0 -25.5 -8t-7.5 -21q0 -20 12 -42l108 -212q8 -14 14 -31l12 -34h5q7 18 14.5 34t15.5 31l119 219q13 23 13 40q0 24 -31 24h-32v50h232v-50h-28q-25 0 -46.5 -19t-35.5 -45l-187 -344v-192h90v-50h-277v50
h50zM545 926l-147 -153h-53l81 153h119z" />
    <glyph glyph-name="Thorn" unicode="&#xde;" horiz-adv-x="632" 
d="M82 50q24 0 32 14t8 43v554h-87v50h276v-50h-52q-24 0 -32 -14t-8 -43v-29h130q42 0 87 -7t82 -28.5t60.5 -62t23.5 -106.5q0 -55 -20.5 -96t-56 -68.5t-83 -41t-101.5 -13.5h-122v-102h102v-50h-286v50h47zM341 206q20 0 47.5 8t52.5 27t42.5 50.5t17.5 78.5
q0 45 -16 74.5t-39 47t-49.5 24t-47.5 6.5h-131v-316h123z" />
    <glyph glyph-name="germandbls" unicode="&#xdf;" horiz-adv-x="614" 
d="M285 45q11 -4 28.5 -6t33.5 -2q21 0 44.5 9t43.5 30t33 55t13 84q0 41 -11.5 70t-30.5 47t-43.5 26t-49.5 8h-59v48h56q17 0 35.5 8.5t33.5 26t25 44.5t10 64q0 61 -29.5 99.5t-88.5 38.5q-39 0 -64.5 -13.5t-40.5 -34.5t-20.5 -47t-5.5 -51v-549h-163v45h37
q19 0 26 11.5t7 38.5v433q0 33 10.5 70t36 68.5t68.5 52.5t109 21q41 0 80 -9t69 -30.5t48.5 -57t18.5 -87.5q0 -31 -9.5 -56.5t-25 -45.5t-36.5 -34t-44 -21v-3q72 -8 110.5 -56.5t38.5 -123.5q0 -62 -21.5 -105t-54.5 -70t-72.5 -39.5t-74.5 -12.5q-17 0 -40.5 3t-41.5 11
z" />
    <glyph glyph-name="agrave" unicode="&#xe0;" horiz-adv-x="587" 
d="M55 129q0 48 21.5 78.5t56 47t77 22.5t84.5 6h95v45q0 63 -31.5 94t-77.5 31q-17 0 -34.5 -3.5t-31 -12t-22 -22.5t-8.5 -35v-32h-83v79q40 32 94 53t123 21q43 0 74 -12.5t51 -35.5t29.5 -55t9.5 -71v-282h80v-45h-172v89h-2q-14 -16 -33 -33.5t-43 -32.5t-52.5 -24.5
t-60.5 -9.5q-31 0 -57.5 10t-45.5 28t-30 44t-11 58zM389 236h-85q-24 0 -50.5 -3.5t-49 -14.5t-37 -30.5t-14.5 -50.5q0 -36 20.5 -56t67.5 -20q18 0 43.5 6t49 19.5t39.5 35t16 53.5v61zM259 702l78 -138h-52l-134 138h108z" />
    <glyph glyph-name="aacute" unicode="&#xe1;" horiz-adv-x="587" 
d="M55 129q0 48 21.5 78.5t56 47t77 22.5t84.5 6h95v45q0 63 -31.5 94t-77.5 31q-17 0 -34.5 -3.5t-31 -12t-22 -22.5t-8.5 -35v-32h-83v79q40 32 94 53t123 21q43 0 74 -12.5t51 -35.5t29.5 -55t9.5 -71v-282h80v-45h-172v89h-2q-14 -16 -33 -33.5t-43 -32.5t-52.5 -24.5
t-60.5 -9.5q-31 0 -57.5 10t-45.5 28t-30 44t-11 58zM389 236h-85q-24 0 -50.5 -3.5t-49 -14.5t-37 -30.5t-14.5 -50.5q0 -36 20.5 -56t67.5 -20q18 0 43.5 6t49 19.5t39.5 35t16 53.5v61zM445 702l-134 -138h-52l78 138h108z" />
    <glyph glyph-name="acircumflex" unicode="&#xe2;" horiz-adv-x="587" 
d="M55 129q0 48 21.5 78.5t56 47t77 22.5t84.5 6h95v45q0 63 -31.5 94t-77.5 31q-17 0 -34.5 -3.5t-31 -12t-22 -22.5t-8.5 -35v-32h-83v79q40 32 94 53t123 21q43 0 74 -12.5t51 -35.5t29.5 -55t9.5 -71v-282h80v-45h-172v89h-2q-14 -16 -33 -33.5t-43 -32.5t-52.5 -24.5
t-60.5 -9.5q-31 0 -57.5 10t-45.5 28t-30 44t-11 58zM389 236h-85q-24 0 -50.5 -3.5t-49 -14.5t-37 -30.5t-14.5 -50.5q0 -36 20.5 -56t67.5 -20q18 0 43.5 6t49 19.5t39.5 35t16 53.5v61zM342 690l109 -126h-64l-83 69l-83 -69h-64l109 126h76z" />
    <glyph glyph-name="atilde" unicode="&#xe3;" horiz-adv-x="587" 
d="M55 129q0 48 21.5 78.5t56 47t77 22.5t84.5 6h95v45q0 63 -31.5 94t-77.5 31q-17 0 -34.5 -3.5t-31 -12t-22 -22.5t-8.5 -35v-32h-83v79q40 32 94 53t123 21q43 0 74 -12.5t51 -35.5t29.5 -55t9.5 -71v-282h80v-45h-172v89h-2q-14 -16 -33 -33.5t-43 -32.5t-52.5 -24.5
t-60.5 -9.5q-31 0 -57.5 10t-45.5 28t-30 44t-11 58zM389 236h-85q-24 0 -50.5 -3.5t-49 -14.5t-37 -30.5t-14.5 -50.5q0 -36 20.5 -56t67.5 -20q18 0 43.5 6t49 19.5t39.5 35t16 53.5v61zM291 595q-20 8 -34.5 13.5t-30.5 5.5q-13 0 -25 -7t-16 -28h-42q0 39 23 67.5
t64 28.5q20 0 38 -6t39 -14q16 -6 33 -11.5t29 -5.5q14 0 25.5 6t15.5 28h41q0 -48 -26.5 -72t-59.5 -24q-14 0 -28.5 4t-45.5 15z" />
    <glyph glyph-name="adieresis" unicode="&#xe4;" horiz-adv-x="587" 
d="M55 129q0 48 21.5 78.5t56 47t77 22.5t84.5 6h95v45q0 63 -31.5 94t-77.5 31q-17 0 -34.5 -3.5t-31 -12t-22 -22.5t-8.5 -35v-32h-83v79q40 32 94 53t123 21q43 0 74 -12.5t51 -35.5t29.5 -55t9.5 -71v-282h80v-45h-172v89h-2q-14 -16 -33 -33.5t-43 -32.5t-52.5 -24.5
t-60.5 -9.5q-31 0 -57.5 10t-45.5 28t-30 44t-11 58zM389 236h-85q-24 0 -50.5 -3.5t-49 -14.5t-37 -30.5t-14.5 -50.5q0 -36 20.5 -56t67.5 -20q18 0 43.5 6t49 19.5t39.5 35t16 53.5v61zM143 628q0 22 16 38t38 16t38.5 -16t16.5 -38t-16.5 -38t-38.5 -16t-38 16t-16 38z
M328 628q0 22 16 38t37 16q23 0 39.5 -16t16.5 -38t-16.5 -38t-39.5 -16q-21 0 -37 16t-16 38z" />
    <glyph glyph-name="aring" unicode="&#xe5;" horiz-adv-x="587" 
d="M55 129q0 48 21.5 78.5t56 47t77 22.5t84.5 6h95v45q0 63 -31.5 94t-77.5 31q-17 0 -34.5 -3.5t-31 -12t-22 -22.5t-8.5 -35v-32h-83v79q40 32 94 53t123 21q43 0 74 -12.5t51 -35.5t29.5 -55t9.5 -71v-282h80v-45h-172v89h-2q-14 -16 -33 -33.5t-43 -32.5t-52.5 -24.5
t-60.5 -9.5q-31 0 -57.5 10t-45.5 28t-30 44t-11 58zM389 236h-85q-24 0 -50.5 -3.5t-49 -14.5t-37 -30.5t-14.5 -50.5q0 -36 20.5 -56t67.5 -20q18 0 43.5 6t49 19.5t39.5 35t16 53.5v61zM200 654q0 21 7.5 39t20.5 31.5t31 21t39 7.5q42 0 70.5 -28.5t28.5 -70.5
q0 -21 -7.5 -39t-21 -31.5t-31.5 -21t-39 -7.5q-42 0 -70 28.5t-28 70.5zM346 655q0 19 -14 33.5t-34 14.5q-22 0 -35 -14.5t-13 -33.5q0 -20 13 -34.5t35 -14.5q20 0 34 14.5t14 34.5z" />
    <glyph glyph-name="ae" unicode="&#xe6;" horiz-adv-x="869" 
d="M55 129q0 48 21.5 78.5t56 47t77 22.5t84.5 6h95v45q0 63 -31.5 94t-77.5 31q-17 0 -34.5 -3.5t-31 -12t-22 -22.5t-8.5 -35v-32h-83v79q40 32 94 53t123 21q49 0 82.5 -19.5t53.5 -49.5q32 33 75 51t93 18q60 0 101 -18.5t65.5 -49t35 -69.5t10.5 -79v-43h-352
q0 -30 7 -65t24.5 -65t48 -50t77.5 -20q43 0 82.5 17t74.5 58l33 -33q-38 -45 -89.5 -70t-115.5 -25q-31 0 -61 6t-57.5 19t-50.5 33.5t-39 49.5q-42 -55 -96.5 -81.5t-114.5 -26.5q-68 0 -109 37.5t-41 102.5zM389 236h-85q-24 0 -50.5 -3.5t-49 -14.5t-37 -30.5
t-14.5 -50.5q0 -36 20.5 -56t67.5 -20q18 0 43.5 6t49 19.5t39.5 35t16 53.5v61zM739 290q-1 78 -30 122t-87 44q-24 0 -47.5 -11t-42 -32t-31.5 -52t-16 -71h254z" />
    <glyph glyph-name="ccedilla" unicode="&#xe7;" horiz-adv-x="492" 
d="M35 238q0 68 19.5 117.5t53 82t77.5 48t93 15.5q32 0 59 -6.5t49 -17t38 -23.5t26 -25v-87h-79v13q0 31 -9 50.5t-23 31t-31.5 15.5t-34.5 4q-39 0 -66 -18t-43.5 -48t-23.5 -69.5t-7 -81.5q0 -39 8 -74.5t26.5 -62.5t47.5 -43.5t71 -16.5q48 0 80.5 20t61.5 53l34 -32
q-14 -17 -32.5 -34t-42.5 -30.5t-53.5 -21.5t-63.5 -8q-45 0 -87.5 14.5t-75 44.5t-52.5 77t-20 113zM208 -144q13 -8 27 -14t34 -6q21 0 31 11t10 27q0 22 -15.5 31.5t-43.5 9.5h-27l13 85h47l-9 -51q7 1 10 1h7q46 0 67 -20.5t21 -52.5q0 -38 -31 -61t-76 -23q-26 0 -48 7
t-36 18z" />
    <glyph glyph-name="egrave" unicode="&#xe8;" horiz-adv-x="520" 
d="M35 242q0 60 18.5 107.5t51 81.5t75.5 52t93 18q60 0 101 -18.5t65.5 -49t35 -69.5t10.5 -79v-43h-352q0 -30 7 -65t24.5 -65t48 -50t77.5 -20q43 0 82.5 17t74.5 58l33 -33q-38 -45 -89.5 -70t-115.5 -25q-45 0 -88 14t-77 44.5t-54.5 78.5t-20.5 116zM390 290
q-1 78 -30 122t-87 44q-24 0 -47.5 -11t-42 -32t-31.5 -52t-16 -71h254zM237 702l78 -138h-52l-134 138h108z" />
    <glyph glyph-name="eacute" unicode="&#xe9;" horiz-adv-x="520" 
d="M35 242q0 60 18.5 107.5t51 81.5t75.5 52t93 18q60 0 101 -18.5t65.5 -49t35 -69.5t10.5 -79v-43h-352q0 -30 7 -65t24.5 -65t48 -50t77.5 -20q43 0 82.5 17t74.5 58l33 -33q-38 -45 -89.5 -70t-115.5 -25q-45 0 -88 14t-77 44.5t-54.5 78.5t-20.5 116zM390 290
q-1 78 -30 122t-87 44q-24 0 -47.5 -11t-42 -32t-31.5 -52t-16 -71h254zM428 702l-134 -138h-52l78 138h108z" />
    <glyph glyph-name="ecircumflex" unicode="&#xea;" horiz-adv-x="520" 
d="M35 242q0 60 18.5 107.5t51 81.5t75.5 52t93 18q60 0 101 -18.5t65.5 -49t35 -69.5t10.5 -79v-43h-352q0 -30 7 -65t24.5 -65t48 -50t77.5 -20q43 0 82.5 17t74.5 58l33 -33q-38 -45 -89.5 -70t-115.5 -25q-45 0 -88 14t-77 44.5t-54.5 78.5t-20.5 116zM390 290
q-1 78 -30 122t-87 44q-24 0 -47.5 -11t-42 -32t-31.5 -52t-16 -71h254zM317 690l109 -126h-64l-83 69l-83 -69h-64l109 126h76z" />
    <glyph glyph-name="edieresis" unicode="&#xeb;" horiz-adv-x="520" 
d="M35 242q0 60 18.5 107.5t51 81.5t75.5 52t93 18q60 0 101 -18.5t65.5 -49t35 -69.5t10.5 -79v-43h-352q0 -30 7 -65t24.5 -65t48 -50t77.5 -20q43 0 82.5 17t74.5 58l33 -33q-38 -45 -89.5 -70t-115.5 -25q-45 0 -88 14t-77 44.5t-54.5 78.5t-20.5 116zM390 290
q-1 78 -30 122t-87 44q-24 0 -47.5 -11t-42 -32t-31.5 -52t-16 -71h254zM125 628q0 22 16 38t38 16t38.5 -16t16.5 -38t-16.5 -38t-38.5 -16t-38 16t-16 38zM310 628q0 22 16 38t37 16q23 0 39.5 -16t16.5 -38t-16.5 -38t-39.5 -16q-21 0 -37 16t-16 38z" />
    <glyph glyph-name="igrave" unicode="&#xec;" horiz-adv-x="298" 
d="M77 45q19 0 26 11.5t7 38.5v350h-80v45h173v-445h70v-45h-233v45h37zM93 702l78 -138h-52l-134 138h108z" />
    <glyph glyph-name="iacute" unicode="&#xed;" horiz-adv-x="298" 
d="M77 45q19 0 26 11.5t7 38.5v350h-80v45h173v-445h70v-45h-233v45h37zM284 702l-134 -138h-52l78 138h108z" />
    <glyph glyph-name="icircumflex" unicode="&#xee;" horiz-adv-x="298" 
d="M77 45q19 0 26 11.5t7 38.5v350h-80v45h173v-445h70v-45h-233v45h37zM163 690l109 -126h-64l-83 69l-83 -69h-64l109 126h76z" />
    <glyph glyph-name="idieresis" unicode="&#xef;" horiz-adv-x="298" 
d="M77 45q19 0 26 11.5t7 38.5v350h-80v45h173v-445h70v-45h-233v45h37zM-25 628q0 22 16 38t38 16t38.5 -16t16.5 -38t-16.5 -38t-38.5 -16t-38 16t-16 38zM160 628q0 22 16 38t37 16q23 0 39.5 -16t16.5 -38t-16.5 -38t-39.5 -16q-21 0 -37 16t-16 38z" />
    <glyph glyph-name="eth" unicode="&#xf0;" horiz-adv-x="571" 
d="M35 229q0 65 19.5 114t52.5 81.5t75 49t87 16.5q55 0 91.5 -22t58.5 -50h3q-12 63 -48 121t-93 96l-110 -90l-32 34l100 81q-54 28 -121 37l9 43q38 -2 78.5 -12.5t81.5 -28.5l96 79l31 -34l-82 -68q41 -24 78 -60.5t64.5 -85.5t43.5 -110t16 -136q0 -66 -17.5 -120
t-49.5 -93t-79 -60.5t-105 -21.5q-41 0 -85 12.5t-80 41t-59.5 74.5t-23.5 112zM435 228q0 38 -6 74.5t-22.5 64.5t-45 45t-72.5 17q-38 0 -67.5 -15t-49 -42t-29.5 -63.5t-10 -79.5q0 -35 8.5 -70t26.5 -63t46.5 -45t68.5 -17q38 0 66.5 17t47.5 44.5t28.5 62.5t9.5 70z
" />
    <glyph glyph-name="ntilde" unicode="&#xf1;" horiz-adv-x="633" 
d="M72 45q19 0 26 11.5t7 38.5v350h-80v45h172v-99h2q16 22 37.5 42t47 35t54.5 24t59 9q37 0 63.5 -11.5t43.5 -32t25.5 -49t8.5 -62.5v-301h70v-45h-229v45h34q17 0 24.5 11.5t7.5 38.5v227q0 23 -4 42.5t-13.5 34t-26.5 22.5t-43 8q-24 0 -52 -8t-52 -24t-40 -39.5
t-16 -54.5v-258h66v-45h-229v45h37zM330 595q-20 8 -34.5 13.5t-30.5 5.5q-13 0 -25 -7t-16 -28h-42q0 39 23 67.5t64 28.5q20 0 38 -6t39 -14q16 -6 33 -11.5t29 -5.5q14 0 25.5 6t15.5 28h41q0 -48 -26.5 -72t-59.5 -24q-14 0 -28.5 4t-45.5 15z" />
    <glyph glyph-name="ograve" unicode="&#xf2;" horiz-adv-x="572" 
d="M35 244q0 61 19 109t53 81t80 50t99 17q54 0 99.5 -17t79.5 -50t53 -81t19 -109t-19 -108.5t-53 -80t-79.5 -49.5t-99.5 -17q-53 0 -99 17t-80 49.5t-53 80t-19 108.5zM439 244q0 15 -2 36.5t-8 45t-16.5 47t-27.5 42t-41.5 30t-57.5 11.5t-57.5 -11.5t-41.5 -30
t-27.5 -42t-16.5 -47t-8 -45t-2 -36.5q0 -22 5 -57.5t21 -69.5t46.5 -58.5t80.5 -24.5t80.5 24.5t46.5 58.5t21 69.5t5 57.5zM250 702l78 -138h-52l-134 138h108z" />
    <glyph glyph-name="oacute" unicode="&#xf3;" horiz-adv-x="572" 
d="M35 244q0 61 19 109t53 81t80 50t99 17q54 0 99.5 -17t79.5 -50t53 -81t19 -109t-19 -108.5t-53 -80t-79.5 -49.5t-99.5 -17q-53 0 -99 17t-80 49.5t-53 80t-19 108.5zM439 244q0 15 -2 36.5t-8 45t-16.5 47t-27.5 42t-41.5 30t-57.5 11.5t-57.5 -11.5t-41.5 -30
t-27.5 -42t-16.5 -47t-8 -45t-2 -36.5q0 -22 5 -57.5t21 -69.5t46.5 -58.5t80.5 -24.5t80.5 24.5t46.5 58.5t21 69.5t5 57.5zM441 702l-134 -138h-52l78 138h108z" />
    <glyph glyph-name="ocircumflex" unicode="&#xf4;" horiz-adv-x="572" 
d="M35 244q0 61 19 109t53 81t80 50t99 17q54 0 99.5 -17t79.5 -50t53 -81t19 -109t-19 -108.5t-53 -80t-79.5 -49.5t-99.5 -17q-53 0 -99 17t-80 49.5t-53 80t-19 108.5zM439 244q0 15 -2 36.5t-8 45t-16.5 47t-27.5 42t-41.5 30t-57.5 11.5t-57.5 -11.5t-41.5 -30
t-27.5 -42t-16.5 -47t-8 -45t-2 -36.5q0 -22 5 -57.5t21 -69.5t46.5 -58.5t80.5 -24.5t80.5 24.5t46.5 58.5t21 69.5t5 57.5zM324 690l109 -126h-64l-83 69l-83 -69h-64l109 126h76z" />
    <glyph glyph-name="otilde" unicode="&#xf5;" horiz-adv-x="572" 
d="M35 244q0 61 19 109t53 81t80 50t99 17q54 0 99.5 -17t79.5 -50t53 -81t19 -109t-19 -108.5t-53 -80t-79.5 -49.5t-99.5 -17q-53 0 -99 17t-80 49.5t-53 80t-19 108.5zM439 244q0 15 -2 36.5t-8 45t-16.5 47t-27.5 42t-41.5 30t-57.5 11.5t-57.5 -11.5t-41.5 -30
t-27.5 -42t-16.5 -47t-8 -45t-2 -36.5q0 -22 5 -57.5t21 -69.5t46.5 -58.5t80.5 -24.5t80.5 24.5t46.5 58.5t21 69.5t5 57.5zM280 595q-20 8 -34.5 13.5t-30.5 5.5q-13 0 -25 -7t-16 -28h-42q0 39 23 67.5t64 28.5q20 0 38 -6t39 -14q16 -6 33 -11.5t29 -5.5q14 0 25.5 6
t15.5 28h41q0 -48 -26.5 -72t-59.5 -24q-14 0 -28.5 4t-45.5 15z" />
    <glyph glyph-name="odieresis" unicode="&#xf6;" horiz-adv-x="572" 
d="M35 244q0 61 19 109t53 81t80 50t99 17q54 0 99.5 -17t79.5 -50t53 -81t19 -109t-19 -108.5t-53 -80t-79.5 -49.5t-99.5 -17q-53 0 -99 17t-80 49.5t-53 80t-19 108.5zM439 244q0 15 -2 36.5t-8 45t-16.5 47t-27.5 42t-41.5 30t-57.5 11.5t-57.5 -11.5t-41.5 -30
t-27.5 -42t-16.5 -47t-8 -45t-2 -36.5q0 -22 5 -57.5t21 -69.5t46.5 -58.5t80.5 -24.5t80.5 24.5t46.5 58.5t21 69.5t5 57.5zM139 628q0 22 16 38t38 16t38.5 -16t16.5 -38t-16.5 -38t-38.5 -16t-38 16t-16 38zM324 628q0 22 16 38t37 16q23 0 39.5 -16t16.5 -38t-16.5 -38
t-39.5 -16q-21 0 -37 16t-16 38z" />
    <glyph glyph-name="divide" unicode="&#xf7;" horiz-adv-x="662" 
d="M269 181q0 26 18 44t44 18q25 0 43.5 -18t18.5 -44t-18.5 -44.5t-43.5 -18.5q-26 0 -44 18.5t-18 44.5zM269 526q0 26 18 44t44 18q25 0 43.5 -18t18.5 -44t-18.5 -44.5t-43.5 -18.5q-26 0 -44 18.5t-18 44.5zM582 389v-72h-502v72h502z" />
    <glyph glyph-name="oslash" unicode="&#xf8;" horiz-adv-x="572" 
d="M128 37q-44 32 -68.5 84t-24.5 123q0 61 19 109t53 81t80 50t99 17q65 0 116 -24l44 70l41 -24l-44 -70q44 -32 69 -85t25 -124q0 -61 -19 -108.5t-53 -80t-79.5 -49.5t-99.5 -17q-32 0 -61.5 6.5t-55.5 17.5l-44 -70l-40 26zM439 244q0 13 -1.5 30.5t-5 37t-10.5 39.5
t-18 38l-204 -326q16 -14 37 -21.5t49 -7.5q50 0 80.5 24.5t46.5 58.5t21 69.5t5 57.5zM371 427q-16 14 -37 21.5t-48 7.5q-33 0 -57.5 -11.5t-41.5 -30t-27.5 -42t-16.5 -47t-8 -45t-2 -36.5q0 -12 1.5 -29.5t5 -36.5t10 -39t17.5 -38z" />
    <glyph glyph-name="ugrave" unicode="&#xf9;" horiz-adv-x="633" 
d="M95 445h-80v45h173v-322q0 -23 3.5 -43t13.5 -34t27 -22t43 -8q24 0 52 8t52 24t40 39.5t16 54.5v258h-74v45h167v-445h80v-45h-172v99h-2q-16 -23 -37.5 -43t-47 -35t-54.5 -23.5t-59 -8.5q-74 0 -107.5 43.5t-33.5 111.5v301zM253 702l78 -138h-52l-134 138h108z" />
    <glyph glyph-name="uacute" unicode="&#xfa;" horiz-adv-x="633" 
d="M95 445h-80v45h173v-322q0 -23 3.5 -43t13.5 -34t27 -22t43 -8q24 0 52 8t52 24t40 39.5t16 54.5v258h-74v45h167v-445h80v-45h-172v99h-2q-16 -23 -37.5 -43t-47 -35t-54.5 -23.5t-59 -8.5q-74 0 -107.5 43.5t-33.5 111.5v301zM454 702l-134 -138h-52l78 138h108z" />
    <glyph glyph-name="ucircumflex" unicode="&#xfb;" horiz-adv-x="633" 
d="M95 445h-80v45h173v-322q0 -23 3.5 -43t13.5 -34t27 -22t43 -8q24 0 52 8t52 24t40 39.5t16 54.5v258h-74v45h167v-445h80v-45h-172v99h-2q-16 -23 -37.5 -43t-47 -35t-54.5 -23.5t-59 -8.5q-74 0 -107.5 43.5t-33.5 111.5v301zM349 690l109 -126h-64l-83 69l-83 -69h-64
l109 126h76z" />
    <glyph glyph-name="udieresis" unicode="&#xfc;" horiz-adv-x="633" 
d="M95 445h-80v45h173v-322q0 -23 3.5 -43t13.5 -34t27 -22t43 -8q24 0 52 8t52 24t40 39.5t16 54.5v258h-74v45h167v-445h80v-45h-172v99h-2q-16 -23 -37.5 -43t-47 -35t-54.5 -23.5t-59 -8.5q-74 0 -107.5 43.5t-33.5 111.5v301zM149 628q0 22 16 38t38 16t38.5 -16
t16.5 -38t-16.5 -38t-38.5 -16t-38 16t-16 38zM334 628q0 22 16 38t37 16q23 0 39.5 -16t16.5 -38t-16.5 -38t-39.5 -16q-21 0 -37 16t-16 38z" />
    <glyph glyph-name="yacute" unicode="&#xfd;" horiz-adv-x="629" 
d="M105 -180h71q12 0 25 3t25.5 12.5t25 28t24.5 49.5l28 74l-215 458h-69v45h241v-45h-24q-30 0 -30 -23q0 -11 10 -34l102 -224q7 -15 14 -37t11 -37h5q3 12 8 29.5t13 40.5l84 230q5 11 6 19t1 14q0 12 -7 17t-17 5h-34v45h206v-45h-18q-29 0 -46.5 -18t-25.5 -38
l-173 -461q-21 -57 -42.5 -94t-45 -58t-49 -29t-55.5 -8q-16 0 -28.5 3t-20.5 7v71zM473 702l-134 -138h-52l78 138h108z" />
    <glyph glyph-name="thorn" unicode="&#xfe;" horiz-adv-x="613" 
d="M72 -205q19 0 26 11.5t7 38.5v850h-80v45h173v-249v-17.5v-19t-0.5 -24t-0.5 -34.5h2q13 19 31 38t41 34t51.5 24t61.5 9q49 0 85 -18t59.5 -50.5t35 -76.5t11.5 -96q0 -61 -16.5 -111t-46.5 -85.5t-72 -55t-93 -19.5q-48 0 -83.5 17t-65.5 43h-2q1 -14 1.5 -29.5
t0.5 -23.5v-201h82v-45h-245v45h37zM477 250q0 30 -5 62t-19.5 58t-39.5 42.5t-64 16.5q-22 0 -48.5 -7.5t-49.5 -22.5t-38.5 -38t-15.5 -54v-203q10 -9 21.5 -18.5t27.5 -17t36 -12t46 -4.5q67 0 108 49t41 149z" />
    <glyph glyph-name="ydieresis" unicode="&#xff;" horiz-adv-x="629" 
d="M105 -180h71q12 0 25 3t25.5 12.5t25 28t24.5 49.5l28 74l-215 458h-69v45h241v-45h-24q-30 0 -30 -23q0 -11 10 -34l102 -224q7 -15 14 -37t11 -37h5q3 12 8 29.5t13 40.5l84 230q5 11 6 19t1 14q0 12 -7 17t-17 5h-34v45h206v-45h-18q-29 0 -46.5 -18t-25.5 -38
l-173 -461q-21 -57 -42.5 -94t-45 -58t-49 -29t-55.5 -8q-16 0 -28.5 3t-20.5 7v71zM177 628q0 22 16 38t38 16t38.5 -16t16.5 -38t-16.5 -38t-38.5 -16t-38 16t-16 38zM362 628q0 22 16 38t37 16q23 0 39.5 -16t16.5 -38t-16.5 -38t-39.5 -16q-21 0 -37 16t-16 38z" />
    <glyph glyph-name="Amacron" unicode="&#x100;" horiz-adv-x="840" 
d="M55 50q24 0 45.5 17t36.5 53l236 580h98l264 -650h80v-50h-279v50h42q17 0 24 11.5t7 25.5q0 8 -2 15.5t-4 14.5l-32 83h-332l-32 -82q-9 -23 -9 -39q0 -14 6 -21.5t22 -7.5h43v-50h-244v50h30zM437 534q-6 14 -14 38.5t-13 42.5h-5q-8 -19 -17 -42t-15 -37l-116 -282
h297zM571 870v-66h-302v66h302z" />
    <glyph glyph-name="amacron" unicode="&#x101;" horiz-adv-x="587" 
d="M55 129q0 48 21.5 78.5t56 47t77 22.5t84.5 6h95v45q0 63 -31.5 94t-77.5 31q-17 0 -34.5 -3.5t-31 -12t-22 -22.5t-8.5 -35v-32h-83v79q40 32 94 53t123 21q43 0 74 -12.5t51 -35.5t29.5 -55t9.5 -71v-282h80v-45h-172v89h-2q-14 -16 -33 -33.5t-43 -32.5t-52.5 -24.5
t-60.5 -9.5q-31 0 -57.5 10t-45.5 28t-30 44t-11 58zM389 236h-85q-24 0 -50.5 -3.5t-49 -14.5t-37 -30.5t-14.5 -50.5q0 -36 20.5 -56t67.5 -20q18 0 43.5 6t49 19.5t39.5 35t16 53.5v61zM432 657v-64h-264v64h264z" />
    <glyph glyph-name="Abreve" unicode="&#x102;" horiz-adv-x="840" 
d="M55 50q24 0 45.5 17t36.5 53l236 580h98l264 -650h80v-50h-279v50h42q17 0 24 11.5t7 25.5q0 8 -2 15.5t-4 14.5l-32 83h-332l-32 -82q-9 -23 -9 -39q0 -14 6 -21.5t22 -7.5h43v-50h-244v50h30zM437 534q-6 14 -14 38.5t-13 42.5h-5q-8 -19 -17 -42t-15 -37l-116 -282
h297zM311 915q11 -29 36.5 -50t72.5 -21t72.5 21t36.5 50h49q-5 -38 -21 -64.5t-38 -43t-48 -24t-51 -7.5q-24 0 -50 7.5t-48 24t-38.5 43t-21.5 64.5h49z" />
    <glyph glyph-name="abreve" unicode="&#x103;" horiz-adv-x="587" 
d="M55 129q0 48 21.5 78.5t56 47t77 22.5t84.5 6h95v45q0 63 -31.5 94t-77.5 31q-17 0 -34.5 -3.5t-31 -12t-22 -22.5t-8.5 -35v-32h-83v79q40 32 94 53t123 21q43 0 74 -12.5t51 -35.5t29.5 -55t9.5 -71v-282h80v-45h-172v89h-2q-14 -16 -33 -33.5t-43 -32.5t-52.5 -24.5
t-60.5 -9.5q-31 0 -57.5 10t-45.5 28t-30 44t-11 58zM389 236h-85q-24 0 -50.5 -3.5t-49 -14.5t-37 -30.5t-14.5 -50.5q0 -36 20.5 -56t67.5 -20q18 0 43.5 6t49 19.5t39.5 35t16 53.5v61zM206 690q10 -26 33 -45t66 -19t66 19t33 45h45q-5 -34 -19.5 -58t-34.5 -39t-44 -22
t-46 -7q-23 0 -46.5 7t-43.5 22t-35 39t-19 58h45z" />
    <glyph glyph-name="Aogonek" unicode="&#x104;" horiz-adv-x="840" 
d="M55 50q24 0 45.5 17t36.5 53l236 580h98l264 -650h80v-50h-279v50h42q17 0 24 11.5t7 25.5q0 8 -2 15.5t-4 14.5l-32 83h-332l-32 -82q-9 -23 -9 -39q0 -14 6 -21.5t22 -7.5h43v-50h-244v50h30zM437 534q-6 14 -14 38.5t-13 42.5h-5q-8 -19 -17 -42t-15 -37l-116 -282
h297zM619 -120q0 40 30.5 77t73.5 62h51q-40 -29 -62 -57.5t-22 -63.5q0 -20 13 -35t39 -15q9 0 21 3t26 11l23 -47q-20 -17 -44 -22.5t-41 -5.5q-59 0 -83.5 28t-24.5 65z" />
    <glyph glyph-name="aogonek" unicode="&#x105;" horiz-adv-x="587" 
d="M55 129q0 48 21.5 78.5t56 47t77 22.5t84.5 6h95v45q0 63 -31.5 94t-77.5 31q-17 0 -34.5 -3.5t-31 -12t-22 -22.5t-8.5 -35v-32h-83v79q40 32 94 53t123 21q43 0 74 -12.5t51 -35.5t29.5 -55t9.5 -71v-282h80v-45h-172v89h-2q-14 -16 -33 -33.5t-43 -32.5t-52.5 -24.5
t-60.5 -9.5q-31 0 -57.5 10t-45.5 28t-30 44t-11 58zM389 236h-85q-24 0 -50.5 -3.5t-49 -14.5t-37 -30.5t-14.5 -50.5q0 -36 20.5 -56t67.5 -20q18 0 43.5 6t49 19.5t39.5 35t16 53.5v61zM377 -115q0 37 27 70.5t65 56.5h54q-42 -27 -61.5 -53t-19.5 -59q0 -20 13 -31.5
t33 -11.5q13 0 25 3t25 11l22 -43q-20 -17 -41.5 -22t-38.5 -5q-55 0 -79 24.5t-24 59.5z" />
    <glyph glyph-name="Cacute" unicode="&#x106;" horiz-adv-x="661" 
d="M45 345q0 84 22.5 151.5t66 115t105.5 73.5t142 26q65 0 124.5 -21t110.5 -68v-113h-87v14q0 45 -16 71.5t-39 41t-49.5 18.5t-48.5 4q-60 0 -103 -28.5t-70.5 -74t-41 -101t-13.5 -109.5q0 -62 13 -117t40 -96.5t69 -65.5t100 -24q22 0 49.5 3t52 15t41 35t16.5 62v17
h87v-106q-49 -38 -113.5 -58.5t-132.5 -20.5t-127.5 20t-103.5 62.5t-69 110t-25 163.5zM535 926l-147 -153h-53l81 153h119z" />
    <glyph glyph-name="cacute" unicode="&#x107;" horiz-adv-x="492" 
d="M35 238q0 68 19.5 117.5t53 82t77.5 48t93 15.5q32 0 59 -6.5t49 -17t38 -23.5t26 -25v-87h-79v13q0 31 -9 50.5t-23 31t-31.5 15.5t-34.5 4q-39 0 -66 -18t-43.5 -48t-23.5 -69.5t-7 -81.5q0 -39 8 -74.5t26.5 -62.5t47.5 -43.5t71 -16.5q48 0 80.5 20t61.5 53l34 -32
q-14 -17 -32.5 -34t-42.5 -30.5t-53.5 -21.5t-63.5 -8q-45 0 -87.5 14.5t-75 44.5t-52.5 77t-20 113zM426 702l-134 -138h-52l78 138h108z" />
    <glyph glyph-name="Ccircumflex" unicode="&#x108;" horiz-adv-x="661" 
d="M45 345q0 84 22.5 151.5t66 115t105.5 73.5t142 26q65 0 124.5 -21t110.5 -68v-113h-87v14q0 45 -16 71.5t-39 41t-49.5 18.5t-48.5 4q-60 0 -103 -28.5t-70.5 -74t-41 -101t-13.5 -109.5q0 -62 13 -117t40 -96.5t69 -65.5t100 -24q22 0 49.5 3t52 15t41 35t16.5 62v17
h87v-106q-49 -38 -113.5 -58.5t-132.5 -20.5t-127.5 20t-103.5 62.5t-69 110t-25 163.5zM422 919l123 -142h-68l-96 82l-94 -82h-68l122 142h81z" />
    <glyph glyph-name="ccircumflex" unicode="&#x109;" horiz-adv-x="492" 
d="M35 238q0 68 19.5 117.5t53 82t77.5 48t93 15.5q32 0 59 -6.5t49 -17t38 -23.5t26 -25v-87h-79v13q0 31 -9 50.5t-23 31t-31.5 15.5t-34.5 4q-39 0 -66 -18t-43.5 -48t-23.5 -69.5t-7 -81.5q0 -39 8 -74.5t26.5 -62.5t47.5 -43.5t71 -16.5q48 0 80.5 20t61.5 53l34 -32
q-14 -17 -32.5 -34t-42.5 -30.5t-53.5 -21.5t-63.5 -8q-45 0 -87.5 14.5t-75 44.5t-52.5 77t-20 113zM316 690l109 -126h-64l-83 69l-83 -69h-64l109 126h76z" />
    <glyph glyph-name="Cdotaccent" unicode="&#x10a;" horiz-adv-x="661" 
d="M45 345q0 84 22.5 151.5t66 115t105.5 73.5t142 26q65 0 124.5 -21t110.5 -68v-113h-87v14q0 45 -16 71.5t-39 41t-49.5 18.5t-48.5 4q-60 0 -103 -28.5t-70.5 -74t-41 -101t-13.5 -109.5q0 -62 13 -117t40 -96.5t69 -65.5t100 -24q22 0 49.5 3t52 15t41 35t16.5 62v17
h87v-106q-49 -38 -113.5 -58.5t-132.5 -20.5t-127.5 20t-103.5 62.5t-69 110t-25 163.5zM311 852q0 25 18 43t43 18t43 -18t18 -43t-18 -43t-43 -18t-43 18t-18 43z" />
    <glyph glyph-name="cdotaccent" unicode="&#x10b;" horiz-adv-x="492" 
d="M35 238q0 68 19.5 117.5t53 82t77.5 48t93 15.5q32 0 59 -6.5t49 -17t38 -23.5t26 -25v-87h-79v13q0 31 -9 50.5t-23 31t-31.5 15.5t-34.5 4q-39 0 -66 -18t-43.5 -48t-23.5 -69.5t-7 -81.5q0 -39 8 -74.5t26.5 -62.5t47.5 -43.5t71 -16.5q48 0 80.5 20t61.5 53l34 -32
q-14 -17 -32.5 -34t-42.5 -30.5t-53.5 -21.5t-63.5 -8q-45 0 -87.5 14.5t-75 44.5t-52.5 77t-20 113zM216 627q0 24 17 41t40 17q24 0 41.5 -17t17.5 -41q0 -23 -17.5 -40t-41.5 -17q-23 0 -40 17t-17 40z" />
    <glyph glyph-name="Ccaron" unicode="&#x10c;" horiz-adv-x="661" 
d="M45 345q0 84 22.5 151.5t66 115t105.5 73.5t142 26q65 0 124.5 -21t110.5 -68v-113h-87v14q0 45 -16 71.5t-39 41t-49.5 18.5t-48.5 4q-60 0 -103 -28.5t-70.5 -74t-41 -101t-13.5 -109.5q0 -62 13 -117t40 -96.5t69 -65.5t100 -24q22 0 49.5 3t52 15t41 35t16.5 62v17
h87v-106q-49 -38 -113.5 -58.5t-132.5 -20.5t-127.5 20t-103.5 62.5t-69 110t-25 163.5zM282 919l96 -82l94 82h68l-122 -142h-81l-123 142h68z" />
    <glyph glyph-name="ccaron" unicode="&#x10d;" horiz-adv-x="492" 
d="M35 238q0 68 19.5 117.5t53 82t77.5 48t93 15.5q32 0 59 -6.5t49 -17t38 -23.5t26 -25v-87h-79v13q0 31 -9 50.5t-23 31t-31.5 15.5t-34.5 4q-39 0 -66 -18t-43.5 -48t-23.5 -69.5t-7 -81.5q0 -39 8 -74.5t26.5 -62.5t47.5 -43.5t71 -16.5q48 0 80.5 20t61.5 53l34 -32
q-14 -17 -32.5 -34t-42.5 -30.5t-53.5 -21.5t-63.5 -8q-45 0 -87.5 14.5t-75 44.5t-52.5 77t-20 113zM198 690l83 -69l83 69h64l-109 -126h-76l-109 126h64z" />
    <glyph glyph-name="Dcaron" unicode="&#x10e;" horiz-adv-x="737" 
d="M82 50q24 0 32 14t8 43v543h-87v50h299q82 0 148.5 -17t113 -56.5t71.5 -105.5t25 -164q0 -87 -29.5 -153.5t-79.5 -112t-115.5 -68.5t-138.5 -23h-294v50h47zM329 53q43 0 89.5 17.5t84 54t62 94t24.5 138.5q0 78 -18.5 133t-52.5 90t-81 51t-104 16h-114v-594h110z
M253 919l96 -82l94 82h68l-122 -142h-81l-123 142h68z" />
    <glyph glyph-name="dcaron" unicode="&#x10f;" horiz-adv-x="683" 
d="M38 230q0 63 16.5 113t46.5 85.5t72.5 54t95.5 18.5q45 0 81.5 -16.5t64.5 -42.5h2q-1 14 -1.5 29.5t-0.5 23.5v200h-80v45h173v-695h80v-45h-172v93h-2q-13 -19 -31 -37.5t-41 -33.5t-51.5 -24t-61.5 -9q-47 0 -82.5 18t-59.5 50.5t-36.5 76.5t-12.5 96zM416 386
q-10 9 -22 18t-28 16.5t-36 12.5t-45 5q-45 0 -73.5 -18.5t-45.5 -48.5t-23.5 -67.5t-6.5 -74.5q0 -25 5 -54.5t19.5 -54.5t39.5 -42t64 -17q22 0 48.5 7.5t49.5 22.5t38.5 38t15.5 54v203zM587 489q23 23 40.5 51t17.5 48q0 9 -9 11.5t-20 6.5t-20 14t-9 35q0 29 19 42.5
t38 13.5q29 0 46.5 -19.5t17.5 -44.5q0 -37 -19 -83.5t-75 -100.5l-27 26v0z" />
    <glyph glyph-name="Dcroat" unicode="&#x110;" horiz-adv-x="737" 
d="M82 50q24 0 32 14t8 43v232h-102v54h102v257h-87v50h299q82 0 148.5 -17t113 -56.5t71.5 -105.5t25 -164q0 -88 -29.5 -155t-79.5 -112t-115.5 -67.5t-138.5 -22.5h-294v50h47zM329 53q43 0 89.5 17.5t84 54t62 94t24.5 138.5q0 78 -18.5 133t-52.5 90t-81 51t-104 16
h-114v-254h181v-54h-181v-286h110z" />
    <glyph glyph-name="dcroat" unicode="&#x111;" horiz-adv-x="623" 
d="M38 225q0 63 16.5 112.5t46.5 83t72.5 51.5t95.5 18q45 0 81.5 -16.5t64.5 -42.5h2q-1 14 -1.5 29.5t-0.5 23.5v77h-212v45h212v89h-80v45h173v-134h120v-45h-120v-516h80v-45h-172v93h-2q-13 -19 -31 -37.5t-41 -33.5t-51.5 -24t-61.5 -9q-47 0 -82.5 17.5t-59.5 48.5
t-36.5 74.5t-12.5 95.5zM416 375q-10 9 -22 18t-28 16.5t-36 12.5t-45 5q-45 0 -73.5 -18t-45.5 -46.5t-23.5 -65t-6.5 -73.5q0 -25 5 -53.5t19.5 -53t39.5 -40.5t64 -16q22 0 48.5 7.5t49.5 22.5t38.5 38t15.5 54v192z" />
    <glyph glyph-name="Emacron" unicode="&#x112;" horiz-adv-x="626" 
d="M82 50q24 0 32 14t8 43v543h-87v50h532v-177h-56v28q0 55 -25.5 75.5t-59.5 20.5h-207v-265h177v80h56v-213h-56v80h-177v-276h219q15 0 30 4.5t26.5 15.5t18.5 29.5t7 46.5v35h56v-184h-541v50h47zM476 870v-66h-302v66h302z" />
    <glyph glyph-name="emacron" unicode="&#x113;" horiz-adv-x="520" 
d="M35 242q0 60 18.5 107.5t51 81.5t75.5 52t93 18q60 0 101 -18.5t65.5 -49t35 -69.5t10.5 -79v-43h-352q0 -30 7 -65t24.5 -65t48 -50t77.5 -20q43 0 82.5 17t74.5 58l33 -33q-38 -45 -89.5 -70t-115.5 -25q-45 0 -88 14t-77 44.5t-54.5 78.5t-20.5 116zM390 290
q-1 78 -30 122t-87 44q-24 0 -47.5 -11t-42 -32t-31.5 -52t-16 -71h254zM407 657v-64h-264v64h264z" />
    <glyph glyph-name="Edotaccent" unicode="&#x116;" horiz-adv-x="626" 
d="M82 50q24 0 32 14t8 43v543h-87v50h532v-177h-56v28q0 55 -25.5 75.5t-59.5 20.5h-207v-265h177v80h56v-213h-56v80h-177v-276h219q15 0 30 4.5t26.5 15.5t18.5 29.5t7 46.5v35h56v-184h-541v50h47zM267 852q0 25 18 43t43 18t43 -18t18 -43t-18 -43t-43 -18t-43 18
t-18 43z" />
    <glyph glyph-name="edotaccent" unicode="&#x117;" horiz-adv-x="520" 
d="M35 242q0 60 18.5 107.5t51 81.5t75.5 52t93 18q60 0 101 -18.5t65.5 -49t35 -69.5t10.5 -79v-43h-352q0 -30 7 -65t24.5 -65t48 -50t77.5 -20q43 0 82.5 17t74.5 58l33 -33q-38 -45 -89.5 -70t-115.5 -25q-45 0 -88 14t-77 44.5t-54.5 78.5t-20.5 116zM390 290
q-1 78 -30 122t-87 44q-24 0 -47.5 -11t-42 -32t-31.5 -52t-16 -71h254zM219 627q0 24 17 41t40 17q24 0 41.5 -17t17.5 -41q0 -23 -17.5 -40t-41.5 -17q-23 0 -40 17t-17 40z" />
    <glyph glyph-name="Eogonek" unicode="&#x118;" horiz-adv-x="626" 
d="M82 50q24 0 32 14t8 43v543h-87v50h532v-177h-56v28q0 55 -25.5 75.5t-59.5 20.5h-207v-265h177v80h56v-213h-56v80h-177v-276h219q15 0 30 4.5t26.5 15.5t18.5 29.5t7 46.5v35h56v-184h-541v50h47zM381 -120q0 40 30.5 77t73.5 62h51q-40 -29 -62 -57.5t-22 -63.5
q0 -20 13 -35t39 -15q9 0 21 3t26 11l23 -47q-20 -17 -44 -22.5t-41 -5.5q-59 0 -83.5 28t-24.5 65z" />
    <glyph glyph-name="eogonek" unicode="&#x119;" horiz-adv-x="520" 
d="M35 242q0 60 18.5 107.5t51 81.5t75.5 52t93 18q60 0 101 -18.5t65.5 -49t35 -69.5t10.5 -79v-43h-352q0 -30 7 -65t24.5 -65t48 -50t77.5 -20q43 0 82.5 17t74.5 58l33 -33q-38 -45 -89.5 -70t-115.5 -25q-45 0 -88 14t-77 44.5t-54.5 78.5t-20.5 116zM390 290
q-1 78 -30 122t-87 44q-24 0 -47.5 -11t-42 -32t-31.5 -52t-16 -71h254zM239 -115q0 37 27 70.5t65 56.5h54q-42 -27 -61.5 -53t-19.5 -59q0 -20 13 -31.5t33 -11.5q13 0 25 3t25 11l22 -43q-20 -17 -41.5 -22t-38.5 -5q-55 0 -79 24.5t-24 59.5z" />
    <glyph glyph-name="Ecaron" unicode="&#x11a;" horiz-adv-x="626" 
d="M82 50q24 0 32 14t8 43v543h-87v50h532v-177h-56v28q0 55 -25.5 75.5t-59.5 20.5h-207v-265h177v80h56v-213h-56v80h-177v-276h219q15 0 30 4.5t26.5 15.5t18.5 29.5t7 46.5v35h56v-184h-541v50h47zM235 919l96 -82l94 82h68l-122 -142h-81l-123 142h68z" />
    <glyph glyph-name="ecaron" unicode="&#x11b;" horiz-adv-x="520" 
d="M35 242q0 60 18.5 107.5t51 81.5t75.5 52t93 18q60 0 101 -18.5t65.5 -49t35 -69.5t10.5 -79v-43h-352q0 -30 7 -65t24.5 -65t48 -50t77.5 -20q43 0 82.5 17t74.5 58l33 -33q-38 -45 -89.5 -70t-115.5 -25q-45 0 -88 14t-77 44.5t-54.5 78.5t-20.5 116zM390 290
q-1 78 -30 122t-87 44q-24 0 -47.5 -11t-42 -32t-31.5 -52t-16 -71h254zM195 690l83 -69l83 69h64l-109 -126h-76l-109 126h64z" />
    <glyph glyph-name="Gcircumflex" unicode="&#x11c;" horiz-adv-x="705" 
d="M45 345q0 84 23 151.5t67 115t106.5 73.5t142.5 26q65 0 126 -21.5t112 -68.5v-113h-87v12q0 45 -16.5 72t-40.5 42t-51.5 19.5t-49.5 4.5q-59 0 -102 -28.5t-71.5 -74t-42 -101t-13.5 -109.5q0 -62 12 -117t38 -96.5t67.5 -65.5t100.5 -24q26 0 54 2.5t51.5 11.5
t38.5 26.5t15 47.5v142h-85v50h250v-50h-33q-21 0 -30 -13t-9 -42v-155q-46 -33 -112.5 -53t-142.5 -20q-68 0 -126.5 20t-101 62.5t-66.5 110t-24 163.5zM424 919l123 -142h-68l-96 82l-94 -82h-68l122 142h81z" />
    <glyph glyph-name="gcircumflex" unicode="&#x11d;" horiz-adv-x="580" 
d="M45 -136q0 39 18 61t44 39l59 -15q-26 -36 -26 -64q0 -45 46.5 -70t124.5 -25q37 0 69 7t56 19.5t37.5 31t13.5 41.5q0 11 -4 23.5t-20 24.5t-46.5 21t-83.5 12l-76 5q-37 3 -68.5 8.5t-54 15.5t-35 25.5t-12.5 37.5q0 35 22.5 58t57.5 46v2q-43 17 -63.5 57t-20.5 94
q0 43 16.5 77t44 57.5t64.5 35.5t78 12q26 0 64 -8t72 -33q23 24 37.5 51t22.5 50l63 -31q-17 -29 -40 -53.5t-54 -44.5q17 -20 27.5 -47.5t10.5 -65.5q0 -33 -13.5 -65.5t-39.5 -58.5t-63.5 -42t-86.5 -16q-20 0 -44.5 4t-37.5 9q-11 -8 -22 -19.5t-11 -28.5q0 -9 4 -16.5
t15.5 -14t31.5 -11.5t53 -7l76 -5q63 -4 101 -18t59 -34t27.5 -44t6.5 -49q0 -39 -19.5 -69.5t-53.5 -51.5t-80.5 -32t-101.5 -11q-72 0 -119.5 13t-75 31.5t-39 40.5t-11.5 40zM391 319q0 40 -10.5 66.5t-26.5 42.5t-34 22t-34 6t-34.5 -6t-34 -22t-26 -42.5t-10.5 -66.5
q0 -28 6.5 -53t19 -43.5t32.5 -29.5t47 -11t47 11t32.5 29.5t19 43.5t6.5 53zM327 690l109 -126h-64l-83 69l-83 -69h-64l109 126h76z" />
    <glyph glyph-name="Gbreve" unicode="&#x11e;" horiz-adv-x="705" 
d="M45 345q0 84 23 151.5t67 115t106.5 73.5t142.5 26q65 0 126 -21.5t112 -68.5v-113h-87v12q0 45 -16.5 72t-40.5 42t-51.5 19.5t-49.5 4.5q-59 0 -102 -28.5t-71.5 -74t-42 -101t-13.5 -109.5q0 -62 12 -117t38 -96.5t67.5 -65.5t100.5 -24q26 0 54 2.5t51.5 11.5
t38.5 26.5t15 47.5v142h-85v50h250v-50h-33q-21 0 -30 -13t-9 -42v-155q-46 -33 -112.5 -53t-142.5 -20q-68 0 -126.5 20t-101 62.5t-66.5 110t-24 163.5zM266 915q11 -29 36.5 -50t72.5 -21t72.5 21t36.5 50h49q-5 -38 -21 -64.5t-38 -43t-48 -24t-51 -7.5q-24 0 -50 7.5
t-48 24t-38.5 43t-21.5 64.5h49z" />
    <glyph glyph-name="gbreve" unicode="&#x11f;" horiz-adv-x="580" 
d="M45 -136q0 39 18 61t44 39l59 -15q-26 -36 -26 -64q0 -45 46.5 -70t124.5 -25q37 0 69 7t56 19.5t37.5 31t13.5 41.5q0 11 -4 23.5t-20 24.5t-46.5 21t-83.5 12l-76 5q-37 3 -68.5 8.5t-54 15.5t-35 25.5t-12.5 37.5q0 35 22.5 58t57.5 46v2q-43 17 -63.5 57t-20.5 94
q0 43 16.5 77t44 57.5t64.5 35.5t78 12q26 0 64 -8t72 -33q23 24 37.5 51t22.5 50l63 -31q-17 -29 -40 -53.5t-54 -44.5q17 -20 27.5 -47.5t10.5 -65.5q0 -33 -13.5 -65.5t-39.5 -58.5t-63.5 -42t-86.5 -16q-20 0 -44.5 4t-37.5 9q-11 -8 -22 -19.5t-11 -28.5q0 -9 4 -16.5
t15.5 -14t31.5 -11.5t53 -7l76 -5q63 -4 101 -18t59 -34t27.5 -44t6.5 -49q0 -39 -19.5 -69.5t-53.5 -51.5t-80.5 -32t-101.5 -11q-72 0 -119.5 13t-75 31.5t-39 40.5t-11.5 40zM391 319q0 40 -10.5 66.5t-26.5 42.5t-34 22t-34 6t-34.5 -6t-34 -22t-26 -42.5t-10.5 -66.5
q0 -28 6.5 -53t19 -43.5t32.5 -29.5t47 -11t47 11t32.5 29.5t19 43.5t6.5 53zM187 690q10 -26 33 -45t66 -19t66 19t33 45h45q-5 -34 -19.5 -58t-34.5 -39t-44 -22t-46 -7q-23 0 -46.5 7t-43.5 22t-35 39t-19 58h45z" />
    <glyph glyph-name="Gdotaccent" unicode="&#x120;" horiz-adv-x="705" 
d="M45 345q0 84 23 151.5t67 115t106.5 73.5t142.5 26q65 0 126 -21.5t112 -68.5v-113h-87v12q0 45 -16.5 72t-40.5 42t-51.5 19.5t-49.5 4.5q-59 0 -102 -28.5t-71.5 -74t-42 -101t-13.5 -109.5q0 -62 12 -117t38 -96.5t67.5 -65.5t100.5 -24q26 0 54 2.5t51.5 11.5
t38.5 26.5t15 47.5v142h-85v50h250v-50h-33q-21 0 -30 -13t-9 -42v-155q-46 -33 -112.5 -53t-142.5 -20q-68 0 -126.5 20t-101 62.5t-66.5 110t-24 163.5zM319 852q0 25 18 43t43 18t43 -18t18 -43t-18 -43t-43 -18t-43 18t-18 43z" />
    <glyph glyph-name="gdotaccent" unicode="&#x121;" horiz-adv-x="580" 
d="M45 -136q0 39 18 61t44 39l59 -15q-26 -36 -26 -64q0 -45 46.5 -70t124.5 -25q37 0 69 7t56 19.5t37.5 31t13.5 41.5q0 11 -4 23.5t-20 24.5t-46.5 21t-83.5 12l-76 5q-37 3 -68.5 8.5t-54 15.5t-35 25.5t-12.5 37.5q0 35 22.5 58t57.5 46v2q-43 17 -63.5 57t-20.5 94
q0 43 16.5 77t44 57.5t64.5 35.5t78 12q26 0 64 -8t72 -33q23 24 37.5 51t22.5 50l63 -31q-17 -29 -40 -53.5t-54 -44.5q17 -20 27.5 -47.5t10.5 -65.5q0 -33 -13.5 -65.5t-39.5 -58.5t-63.5 -42t-86.5 -16q-20 0 -44.5 4t-37.5 9q-11 -8 -22 -19.5t-11 -28.5q0 -9 4 -16.5
t15.5 -14t31.5 -11.5t53 -7l76 -5q63 -4 101 -18t59 -34t27.5 -44t6.5 -49q0 -39 -19.5 -69.5t-53.5 -51.5t-80.5 -32t-101.5 -11q-72 0 -119.5 13t-75 31.5t-39 40.5t-11.5 40zM391 319q0 40 -10.5 66.5t-26.5 42.5t-34 22t-34 6t-34.5 -6t-34 -22t-26 -42.5t-10.5 -66.5
q0 -28 6.5 -53t19 -43.5t32.5 -29.5t47 -11t47 11t32.5 29.5t19 43.5t6.5 53zM228 627q0 24 17 41t40 17q24 0 41.5 -17t17.5 -41q0 -23 -17.5 -40t-41.5 -17q-23 0 -40 17t-17 40z" />
    <glyph glyph-name="Gcommaaccent" unicode="&#x122;" horiz-adv-x="705" 
d="M45 345q0 84 23 151.5t67 115t106.5 73.5t142.5 26q65 0 126 -21.5t112 -68.5v-113h-87v12q0 45 -16.5 72t-40.5 42t-51.5 19.5t-49.5 4.5q-59 0 -102 -28.5t-71.5 -74t-42 -101t-13.5 -109.5q0 -62 12 -117t38 -96.5t67.5 -65.5t100.5 -24q26 0 54 2.5t51.5 11.5
t38.5 26.5t15 47.5v142h-85v50h250v-50h-33q-21 0 -30 -13t-9 -42v-155q-46 -33 -112.5 -53t-142.5 -20q-68 0 -126.5 20t-101 62.5t-66.5 110t-24 163.5zM313 -293q24 24 41.5 52t17.5 49q0 9 -9 12.5t-20.5 8.5t-20.5 15t-9 34q0 30 19.5 43.5t38.5 13.5q30 0 47.5 -19.5
t17.5 -45.5q0 -39 -19 -86t-77 -104l-27 27v0z" />
    <glyph glyph-name="gcommaaccent" unicode="&#x123;" horiz-adv-x="580" 
d="M45 -136q0 39 18 61t44 39l59 -15q-26 -36 -26 -64q0 -45 46.5 -70t124.5 -25q37 0 69 7t56 19.5t37.5 31t13.5 41.5q0 11 -4 23.5t-20 24.5t-46.5 21t-83.5 12l-76 5q-37 3 -68.5 8.5t-54 15.5t-35 25.5t-12.5 37.5q0 35 22.5 58t57.5 46v2q-43 17 -63.5 57t-20.5 94
q0 43 16.5 77t44 57.5t64.5 35.5t78 12q26 0 64 -8t72 -33q23 24 37.5 51t22.5 50l63 -31q-17 -29 -40 -53.5t-54 -44.5q17 -20 27.5 -47.5t10.5 -65.5q0 -33 -13.5 -65.5t-39.5 -58.5t-63.5 -42t-86.5 -16q-20 0 -44.5 4t-37.5 9q-11 -8 -22 -19.5t-11 -28.5q0 -9 4 -16.5
t15.5 -14t31.5 -11.5t53 -7l76 -5q63 -4 101 -18t59 -34t27.5 -44t6.5 -49q0 -39 -19.5 -69.5t-53.5 -51.5t-80.5 -32t-101.5 -11q-72 0 -119.5 13t-75 31.5t-39 40.5t-11.5 40zM391 319q0 40 -10.5 66.5t-26.5 42.5t-34 22t-34 6t-34.5 -6t-34 -22t-26 -42.5t-10.5 -66.5
q0 -28 6.5 -53t19 -43.5t32.5 -29.5t47 -11t47 11t32.5 29.5t19 43.5t6.5 53zM351.023 791.965q-22.9971 -22.9971 -40.4951 -50.9941q-17.498 -27.9961 -17.498 -47.9941q0 -8.99805 8.99902 -11.498t19.9971 -6.49902q10.999 -4 19.998 -13.999
q8.99902 -9.99805 8.99902 -34.9951q0 -28.9971 -18.998 -42.4951t-37.9951 -13.498q-28.9971 0 -46.4941 19.4971q-17.498 19.498 -17.498 44.4951q0 36.9951 18.9971 83.4893q18.998 46.4951 74.9912 100.488l26.9971 -25.9971v0z" />
    <glyph glyph-name="Hcircumflex" unicode="&#x124;" horiz-adv-x="791" 
d="M82 50q24 0 32 14t8 43v543h-87v50h266v-50h-47q-35 0 -35 -57v-200h353v257h-82v50h266v-50h-50q-37 0 -37 -57v-543h87v-50h-266v50h47q35 0 35 57v232h-353v-289h82v-50h-266v50h47zM435 919l123 -142h-68l-96 82l-94 -82h-68l122 142h81z" />
    <glyph glyph-name="hcircumflex" unicode="&#x125;" horiz-adv-x="633" 
d="M72 45q19 0 26 11.5t7 38.5v600h-80v45h173v-261q0 -13 -0.5 -39.5t-0.5 -48.5h2q16 22 37.5 42t47 35t54.5 24t59 9q37 0 63.5 -11.5t43.5 -32t25.5 -49t8.5 -62.5v-301h70v-45h-229v45h34q17 0 24.5 11.5t7.5 38.5v227q0 23 -4 42.5t-13.5 34t-26.5 22.5t-43 8
q-24 0 -52 -8t-52 -24t-40 -39.5t-16 -54.5v-258h66v-45h-229v45h37zM161 925l109 -126h-64l-83 69l-83 -69h-64l109 126h76z" />
    <glyph glyph-name="Hbar" unicode="&#x126;" horiz-adv-x="791" 
d="M82 50q24 0 32 14t8 43v389h-102v51h102v103h-87v50h266v-50h-47q-35 0 -35 -57v-46h353v103h-82v50h266v-50h-50q-37 0 -37 -57v-46h102v-51h-102v-446h87v-50h-266v50h47q35 0 35 57v214h-353v-271h82v-50h-266v50h47zM572 496h-353v-121h353v121z" />
    <glyph glyph-name="hbar" unicode="&#x127;" horiz-adv-x="643" 
d="M82 45q19 0 26 11.5t7 38.5v466h-120v45h120v89h-80v45h173v-134h212v-45h-212v-82q0 -13 -0.5 -39.5t-0.5 -48.5h2q16 22 37.5 42t47 35t54.5 24t59 9q37 0 63.5 -11.5t43.5 -32t25.5 -49t8.5 -62.5v-301h70v-45h-229v45h34q17 0 24.5 11.5t7.5 38.5v227q0 23 -4 42.5
t-13.5 34t-26.5 22.5t-43 8q-24 0 -52 -8t-52 -24t-40 -39.5t-16 -54.5v-258h66v-45h-229v45h37z" />
    <glyph glyph-name="Imacron" unicode="&#x12a;" horiz-adv-x="351" 
d="M87 50q24 0 32 14t8 43v543h-92v50h281v-50h-52q-24 0 -32 -14t-8 -43v-543h92v-50h-281v50h52zM327 870v-66h-302v66h302z" />
    <glyph glyph-name="imacron" unicode="&#x12b;" horiz-adv-x="298" 
d="M77 45q19 0 26 11.5t7 38.5v350h-80v45h173v-445h70v-45h-233v45h37zM257 657v-64h-264v64h264z" />
    <glyph glyph-name="Iogonek" unicode="&#x12e;" horiz-adv-x="351" 
d="M87 50q24 0 32 14t8 43v543h-92v50h281v-50h-52q-24 0 -32 -14t-8 -43v-543h92v-50h-281v50h52zM81 -120q0 40 30.5 77t73.5 62h51q-40 -29 -62 -57.5t-22 -63.5q0 -20 13 -35t39 -15q9 0 21 3t26 11l23 -47q-20 -17 -44 -22.5t-41 -5.5q-59 0 -83.5 28t-24.5 65z" />
    <glyph glyph-name="iogonek" unicode="&#x12f;" horiz-adv-x="298" 
d="M77 45q19 0 26 11.5t7 38.5v350h-80v45h173v-445h70v-45h-233v45h37zM88 634q0 26 18 44t42 18q26 0 44 -18t18 -44q0 -24 -18 -42t-44 -18q-24 0 -42 18t-18 42zM65 -115q0 37 27 70.5t65 56.5h54q-42 -27 -61.5 -53t-19.5 -59q0 -20 13 -31.5t33 -11.5q13 0 25 3t25 11
l22 -43q-20 -17 -41.5 -22t-38.5 -5q-55 0 -79 24.5t-24 59.5z" />
    <glyph glyph-name="Idotaccent" unicode="&#x130;" horiz-adv-x="351" 
d="M87 50q24 0 32 14t8 43v543h-92v50h281v-50h-52q-24 0 -32 -14t-8 -43v-543h92v-50h-281v50h52zM115 852q0 25 18 43t43 18t43 -18t18 -43t-18 -43t-43 -18t-43 18t-18 43z" />
    <glyph glyph-name="dotlessi" unicode="&#x131;" horiz-adv-x="298" 
d="M77 45q19 0 26 11.5t7 38.5v350h-80v45h173v-445h70v-45h-233v45h37z" />
    <glyph glyph-name="Jcircumflex" unicode="&#x134;" horiz-adv-x="544" 
d="M50 148h83v-33q0 -41 21 -57t58 -16q57 0 87.5 40t30.5 119v449h-92v50h276v-50h-47q-24 0 -32 -14t-8 -43v-379q0 -58 -17 -100.5t-46.5 -70t-69 -41t-84.5 -13.5q-44 0 -86 11.5t-74 37.5v110zM412 919l123 -142h-68l-96 82l-94 -82h-68l122 142h81z" />
    <glyph glyph-name="jcircumflex" unicode="&#x135;" horiz-adv-x="290" 
d="M15 -206q32 4 51 17.5t28.5 38t12.5 60.5t3 84v451h-80v45h173v-533q0 -45 -9.5 -82.5t-31.5 -65.5t-58 -46t-89 -24v55v0zM162 690l109 -126h-64l-83 69l-83 -69h-64l109 126h76z" />
    <glyph glyph-name="Kcommaaccent" unicode="&#x136;" horiz-adv-x="722" 
d="M82 50q24 0 32 14t8 43v543h-87v50h265v-50h-28q-29 0 -41 -9t-12 -45v-200h99l158 197q15 20 15 34q0 10 -7 16.5t-23 6.5h-37v50h254v-50h-6q-39 0 -70.5 -19t-56.5 -49l-159 -198l234 -334h82v-50h-165l-232 342h-86v-292h82v-50h-266v50h47zM314 -293q24 24 41.5 52
t17.5 49q0 9 -9 12.5t-20.5 8.5t-20.5 15t-9 34q0 30 19.5 43.5t38.5 13.5q30 0 47.5 -19.5t17.5 -45.5q0 -39 -19 -86t-77 -104l-27 27v0z" />
    <glyph glyph-name="kcommaaccent" unicode="&#x137;" horiz-adv-x="595" 
d="M72 45q19 0 26 11.5t7 38.5v600h-80v45h173v-451h69l124 122q13 13 13 21q0 13 -18 13h-34v45h218v-45h-6q-23 0 -55.5 -14t-55.5 -36l-126 -121l182 -229h66v-45h-144l-184 241h-49v-196h66v-45h-229v45h37zM261 -287q23 23 40.5 51t17.5 48q0 9 -9 11.5t-20 6.5t-20 14
t-9 35q0 29 19 42.5t38 13.5q29 0 46.5 -19.5t17.5 -44.5q0 -37 -19 -83.5t-75 -100.5l-27 26v0z" />
    <glyph glyph-name="Lacute" unicode="&#x139;" horiz-adv-x="596" 
d="M82 50q24 0 32 14t8 43v543h-87v50h271v-50h-47q-24 0 -32 -14t-8 -43v-540h202q13 0 26 4.5t23.5 15.5t17.5 29.5t7 46.5v41h56v-190h-516v50h47zM351 926l-147 -153h-53l81 153h119z" />
    <glyph glyph-name="lacute" unicode="&#x13a;" horiz-adv-x="293" 
d="M72 45q19 0 26 11.5t7 38.5v600h-80v45h173v-695h70v-45h-233v45h37zM289 947l-134 -138h-52l78 138h108z" />
    <glyph glyph-name="Lcommaaccent" unicode="&#x13b;" horiz-adv-x="596" 
d="M82 50q24 0 32 14t8 43v543h-87v50h271v-50h-47q-24 0 -32 -14t-8 -43v-540h202q13 0 26 4.5t23.5 15.5t17.5 29.5t7 46.5v41h56v-190h-516v50h47zM263 -293q24 24 41.5 52t17.5 49q0 9 -9 12.5t-20.5 8.5t-20.5 15t-9 34q0 30 19.5 43.5t38.5 13.5q30 0 47.5 -19.5
t17.5 -45.5q0 -39 -19 -86t-77 -104l-27 27v0z" />
    <glyph glyph-name="lcommaaccent" unicode="&#x13c;" horiz-adv-x="293" 
d="M72 45q19 0 26 11.5t7 38.5v600h-80v45h173v-695h70v-45h-233v45h37zM93 -287q23 23 40.5 51t17.5 48q0 9 -9 11.5t-20 6.5t-20 14t-9 35q0 29 19 42.5t38 13.5q29 0 46.5 -19.5t17.5 -44.5q0 -37 -19 -83.5t-75 -100.5l-27 26v0z" />
    <glyph glyph-name="Lcaron" unicode="&#x13d;" horiz-adv-x="596" 
d="M82 50q24 0 32 14t8 43v543h-87v50h271v-50h-47q-24 0 -32 -14t-8 -43v-540h202q13 0 26 4.5t23.5 15.5t17.5 29.5t7 46.5v41h56v-190h-516v50h47zM413 483q24 24 41.5 52t17.5 49q0 9 -9 12.5t-20.5 8.5t-20.5 15t-9 34q0 30 19.5 43.5t38.5 13.5q30 0 47.5 -19.5
t17.5 -45.5q0 -39 -19 -86t-77 -104l-27 27v0z" />
    <glyph glyph-name="lcaron" unicode="&#x13e;" horiz-adv-x="372" 
d="M72 45q19 0 26 11.5t7 38.5v600h-80v45h173v-695h70v-45h-233v45h37zM276 489q23 23 40.5 51t17.5 48q0 9 -9 11.5t-20 6.5t-20 14t-9 35q0 29 19 42.5t38 13.5q29 0 46.5 -19.5t17.5 -44.5q0 -37 -19 -83.5t-75 -100.5l-27 26v0z" />
    <glyph glyph-name="Ldot" unicode="&#x13f;" horiz-adv-x="596" 
d="M82 50q24 0 32 14t8 43v543h-87v50h271v-50h-47q-24 0 -32 -14t-8 -43v-540h202q13 0 26 4.5t23.5 15.5t17.5 29.5t7 46.5v41h56v-190h-516v50h47zM418 375q0 29 21 50t50 21q30 0 51 -21t21 -50q0 -30 -21 -50.5t-51 -20.5q-29 0 -50 20.5t-21 50.5z" />
    <glyph glyph-name="ldot" unicode="&#x140;" horiz-adv-x="382" 
d="M72 45q19 0 26 11.5t7 38.5v600h-80v45h173v-695h70v-45h-233v45h37zM264 365q0 29 21 50t50 21q30 0 51 -21t21 -50q0 -30 -21 -50.5t-51 -20.5q-29 0 -50 20.5t-21 50.5z" />
    <glyph glyph-name="Lslash" unicode="&#x141;" horiz-adv-x="636" 
d="M122 50q24 0 32 14t8 43v168l-115 -77l-27 40l142 95v317h-87v50h271v-50h-47q-24 0 -32 -14t-8 -43v-195l172 115l26 -41l-198 -132v-287h202q13 0 26 4.5t23.5 15.5t17.5 29.5t7 46.5v41h56v-190h-516v50h47z" />
    <glyph glyph-name="lslash" unicode="&#x142;" horiz-adv-x="378" 
d="M102 45q19 0 26 11.5t7 38.5v229l-103 -64l-27 41l130 81v313h-80v45h173v-299l107 67l28 -40l-135 -85v-338h70v-45h-233v45h37z" />
    <glyph glyph-name="Nacute" unicode="&#x143;" horiz-adv-x="809" 
d="M82 50q24 0 32 16.5t8 45.5v538h-87v50h184l341 -487q18 -25 34 -54.5t26 -47.5h4q0 11 -1 25.5t-1.5 28.5t-1 27t-0.5 22v374q0 29 -8 45.5t-32 16.5h-47v50h241v-50h-47q-24 0 -32 -16.5t-8 -45.5v-588h-87l-356 508q-19 26 -32.5 50.5t-22.5 42.5h-4q0 -10 1 -25
t1.5 -31t1 -31t0.5 -25v-377q0 -29 8 -45.5t32 -16.5h47v-50h-241v50h47zM570 926l-147 -153h-53l81 153h119z" />
    <glyph glyph-name="nacute" unicode="&#x144;" horiz-adv-x="633" 
d="M72 45q19 0 26 11.5t7 38.5v350h-80v45h172v-99h2q16 22 37.5 42t47 35t54.5 24t59 9q37 0 63.5 -11.5t43.5 -32t25.5 -49t8.5 -62.5v-301h70v-45h-229v45h34q17 0 24.5 11.5t7.5 38.5v227q0 23 -4 42.5t-13.5 34t-26.5 22.5t-43 8q-24 0 -52 -8t-52 -24t-40 -39.5
t-16 -54.5v-258h66v-45h-229v45h37zM451 702l-134 -138h-52l78 138h108z" />
    <glyph glyph-name="Ncommaaccent" unicode="&#x145;" horiz-adv-x="809" 
d="M82 50q24 0 32 16.5t8 45.5v538h-87v50h184l341 -487q18 -25 34 -54.5t26 -47.5h4q0 11 -1 25.5t-1.5 28.5t-1 27t-0.5 22v374q0 29 -8 45.5t-32 16.5h-47v50h241v-50h-47q-24 0 -32 -16.5t-8 -45.5v-588h-87l-356 508q-19 26 -32.5 50.5t-22.5 42.5h-4q0 -10 1 -25
t1.5 -31t1 -31t0.5 -25v-377q0 -29 8 -45.5t32 -16.5h47v-50h-241v50h47zM346 -293q24 24 41.5 52t17.5 49q0 9 -9 12.5t-20.5 8.5t-20.5 15t-9 34q0 30 19.5 43.5t38.5 13.5q30 0 47.5 -19.5t17.5 -45.5q0 -39 -19 -86t-77 -104l-27 27v0z" />
    <glyph glyph-name="ncommaaccent" unicode="&#x146;" horiz-adv-x="633" 
d="M72 45q19 0 26 11.5t7 38.5v350h-80v45h172v-99h2q16 22 37.5 42t47 35t54.5 24t59 9q37 0 63.5 -11.5t43.5 -32t25.5 -49t8.5 -62.5v-301h70v-45h-229v45h34q17 0 24.5 11.5t7.5 38.5v227q0 23 -4 42.5t-13.5 34t-26.5 22.5t-43 8q-24 0 -52 -8t-52 -24t-40 -39.5
t-16 -54.5v-258h66v-45h-229v45h37zM264 -287q23 23 40.5 51t17.5 48q0 9 -9 11.5t-20 6.5t-20 14t-9 35q0 29 19 42.5t38 13.5q29 0 46.5 -19.5t17.5 -44.5q0 -37 -19 -83.5t-75 -100.5l-27 26v0z" />
    <glyph glyph-name="Ncaron" unicode="&#x147;" horiz-adv-x="809" 
d="M82 50q24 0 32 16.5t8 45.5v538h-87v50h184l341 -487q18 -25 34 -54.5t26 -47.5h4q0 11 -1 25.5t-1.5 28.5t-1 27t-0.5 22v374q0 29 -8 45.5t-32 16.5h-47v50h241v-50h-47q-24 0 -32 -16.5t-8 -45.5v-588h-87l-356 508q-19 26 -32.5 50.5t-22.5 42.5h-4q0 -10 1 -25
t1.5 -31t1 -31t0.5 -25v-377q0 -29 8 -45.5t32 -16.5h47v-50h-241v50h47zM305 919l96 -82l94 82h68l-122 -142h-81l-123 142h68z" />
    <glyph glyph-name="ncaron" unicode="&#x148;" horiz-adv-x="633" 
d="M72 45q19 0 26 11.5t7 38.5v350h-80v45h172v-99h2q16 22 37.5 42t47 35t54.5 24t59 9q37 0 63.5 -11.5t43.5 -32t25.5 -49t8.5 -62.5v-301h70v-45h-229v45h34q17 0 24.5 11.5t7.5 38.5v227q0 23 -4 42.5t-13.5 34t-26.5 22.5t-43 8q-24 0 -52 -8t-52 -24t-40 -39.5
t-16 -54.5v-258h66v-45h-229v45h37zM225 690l83 -69l83 69h64l-109 -126h-76l-109 126h64z" />
    <glyph glyph-name="Omacron" unicode="&#x14c;" horiz-adv-x="760" 
d="M45 350q0 81 23 147.5t66.5 114t105.5 73.5t140 26t140 -26t105.5 -73.5t66.5 -114t23 -147.5t-23.5 -147.5t-67 -114t-105.5 -73.5t-139 -26t-139 26t-105.5 73.5t-67 114t-23.5 147.5zM612 350q0 30 -4.5 64.5t-14.5 68.5t-27.5 66t-43 56t-61 38.5t-81.5 14.5
t-81.5 -14.5t-61 -38.5t-43 -56t-27.5 -66t-14.5 -68.5t-4.5 -64.5q0 -45 10 -99t36.5 -100.5t71.5 -77.5t114 -31t114 31t71.5 77.5t36.5 100.5t10 99zM531 870v-66h-302v66h302z" />
    <glyph glyph-name="omacron" unicode="&#x14d;" horiz-adv-x="572" 
d="M35 244q0 61 19 109t53 81t80 50t99 17q54 0 99.5 -17t79.5 -50t53 -81t19 -109t-19 -108.5t-53 -80t-79.5 -49.5t-99.5 -17q-53 0 -99 17t-80 49.5t-53 80t-19 108.5zM439 244q0 15 -2 36.5t-8 45t-16.5 47t-27.5 42t-41.5 30t-57.5 11.5t-57.5 -11.5t-41.5 -30
t-27.5 -42t-16.5 -47t-8 -45t-2 -36.5q0 -22 5 -57.5t21 -69.5t46.5 -58.5t80.5 -24.5t80.5 24.5t46.5 58.5t21 69.5t5 57.5zM418 657v-64h-264v64h264z" />
    <glyph glyph-name="Ohungarumlaut" unicode="&#x150;" horiz-adv-x="760" 
d="M45 350q0 81 23 147.5t66.5 114t105.5 73.5t140 26t140 -26t105.5 -73.5t66.5 -114t23 -147.5t-23.5 -147.5t-67 -114t-105.5 -73.5t-139 -26t-139 26t-105.5 73.5t-67 114t-23.5 147.5zM612 350q0 30 -4.5 64.5t-14.5 68.5t-27.5 66t-43 56t-61 38.5t-81.5 14.5
t-81.5 -14.5t-61 -38.5t-43 -56t-27.5 -66t-14.5 -68.5t-4.5 -64.5q0 -45 10 -99t36.5 -100.5t71.5 -77.5t114 -31t114 31t71.5 77.5t36.5 100.5t10 99zM446 918l-142 -145h-50l78 145h114zM634 918l-141 -145h-51l78 145h114z" />
    <glyph glyph-name="ohungarumlaut" unicode="&#x151;" horiz-adv-x="572" 
d="M35 244q0 61 19 109t53 81t80 50t99 17q54 0 99.5 -17t79.5 -50t53 -81t19 -109t-19 -108.5t-53 -80t-79.5 -49.5t-99.5 -17q-53 0 -99 17t-80 49.5t-53 80t-19 108.5zM439 244q0 15 -2 36.5t-8 45t-16.5 47t-27.5 42t-41.5 30t-57.5 11.5t-57.5 -11.5t-41.5 -30
t-27.5 -42t-16.5 -47t-8 -45t-2 -36.5q0 -22 5 -57.5t21 -69.5t46.5 -58.5t80.5 -24.5t80.5 24.5t46.5 58.5t21 69.5t5 57.5zM355 701l-135 -137h-47l81 137h101zM514 701l-135 -137h-47l81 137h101z" />
    <glyph glyph-name="OE" unicode="&#x152;" horiz-adv-x="999" 
d="M45 350q0 81 23 147.5t66.5 114t105.5 73.5t140 26q47 0 93 -11h467v-177h-56v28q0 55 -25.5 75.5t-59.5 20.5h-207v-265h177v80h56v-213h-56v80h-177v-276h219q15 0 30 4.5t26.5 15.5t18.5 29.5t7 46.5v35h56v-184h-476q-46 -11 -93 -11q-77 0 -139 26t-105.5 73.5
t-67 114t-23.5 147.5zM495 625q-23 15 -51.5 24t-63.5 9q-46 0 -81.5 -14.5t-61 -38.5t-43 -56t-27.5 -66t-14.5 -68.5t-4.5 -64.5q0 -45 10 -99t36.5 -100.5t71.5 -77.5t114 -31q35 0 63.5 8.5t51.5 22.5v552z" />
    <glyph glyph-name="oe" unicode="&#x153;" horiz-adv-x="919" 
d="M35 244q0 61 19 109t53 81t80 50t99 17q63 0 114 -24t86 -69q32 44 80.5 68.5t105.5 24.5q60 0 101 -18.5t65.5 -49t35 -69.5t10.5 -79v-43h-352q0 -30 7 -65t24.5 -65t48 -50t77.5 -20q43 0 82.5 17t74.5 58l33 -33q-38 -45 -89.5 -70t-115.5 -25q-55 0 -105.5 21
t-85.5 66q-35 -42 -85.5 -64.5t-111.5 -22.5q-53 0 -99 17t-80 49.5t-53 80t-19 108.5zM439 244q0 15 -2 36.5t-8 45t-16.5 47t-27.5 42t-41.5 30t-57.5 11.5t-57.5 -11.5t-41.5 -30t-27.5 -42t-16.5 -47t-8 -45t-2 -36.5q0 -22 5 -57.5t21 -69.5t46.5 -58.5t80.5 -24.5
t80.5 24.5t46.5 58.5t21 69.5t5 57.5zM789 290q-1 78 -30 122t-87 44q-24 0 -47.5 -11t-42 -32t-31.5 -52t-16 -71h254z" />
    <glyph glyph-name="Racute" unicode="&#x154;" horiz-adv-x="708" 
d="M82 50q24 0 32 14t8 43v543h-87v50h340q30 0 68 -6.5t71.5 -27.5t56.5 -60.5t23 -104.5q0 -69 -46 -122t-126 -72l177 -257h82v-50h-168l-194 294h-100v-244h82v-50h-266v50h47zM335 347q29 0 57.5 10t51.5 29.5t37 48t14 66.5q0 37 -12.5 64.5t-33 45.5t-46 27t-51.5 9
h-134v-300h117zM486 926l-147 -153h-53l81 153h119z" />
    <glyph glyph-name="racute" unicode="&#x155;" horiz-adv-x="414" 
d="M72 45q19 0 26 11.5t7 38.5v350h-80v45h172v-109h2q22 33 40.5 56t38.5 37t43 20.5t53 6.5v-96h-44q-62 0 -97 -31t-35 -87v-242h77v-45h-240v45h37zM374 702l-134 -138h-52l78 138h108z" />
    <glyph glyph-name="Rcommaaccent" unicode="&#x156;" horiz-adv-x="708" 
d="M82 50q24 0 32 14t8 43v543h-87v50h340q30 0 68 -6.5t71.5 -27.5t56.5 -60.5t23 -104.5q0 -69 -46 -122t-126 -72l177 -257h82v-50h-168l-194 294h-100v-244h82v-50h-266v50h47zM335 347q29 0 57.5 10t51.5 29.5t37 48t14 66.5q0 37 -12.5 64.5t-33 45.5t-46 27t-51.5 9
h-134v-300h117zM315 -293q24 24 41.5 52t17.5 49q0 9 -9 12.5t-20.5 8.5t-20.5 15t-9 34q0 30 19.5 43.5t38.5 13.5q30 0 47.5 -19.5t17.5 -45.5q0 -39 -19 -86t-77 -104l-27 27v0z" />
    <glyph glyph-name="rcommaaccent" unicode="&#x157;" horiz-adv-x="414" 
d="M72 45q19 0 26 11.5t7 38.5v350h-80v45h172v-109h2q22 33 40.5 56t38.5 37t43 20.5t53 6.5v-96h-44q-62 0 -97 -31t-35 -87v-242h77v-45h-240v45h37zM93 -287q23 23 40.5 51t17.5 48q0 9 -9 11.5t-20 6.5t-20 14t-9 35q0 29 19 42.5t38 13.5q29 0 46.5 -19.5t17.5 -44.5
q0 -37 -19 -83.5t-75 -100.5l-27 26v0z" />
    <glyph glyph-name="Rcaron" unicode="&#x158;" horiz-adv-x="708" 
d="M82 50q24 0 32 14t8 43v543h-87v50h340q30 0 68 -6.5t71.5 -27.5t56.5 -60.5t23 -104.5q0 -69 -46 -122t-126 -72l177 -257h82v-50h-168l-194 294h-100v-244h82v-50h-266v50h47zM335 347q29 0 57.5 10t51.5 29.5t37 48t14 66.5q0 37 -12.5 64.5t-33 45.5t-46 27t-51.5 9
h-134v-300h117zM213 919l96 -82l94 82h68l-122 -142h-81l-123 142h68z" />
    <glyph glyph-name="rcaron" unicode="&#x159;" horiz-adv-x="414" 
d="M72 45q19 0 26 11.5t7 38.5v350h-80v45h172v-109h2q22 33 40.5 56t38.5 37t43 20.5t53 6.5v-96h-44q-62 0 -97 -31t-35 -87v-242h77v-45h-240v45h37zM141 690l83 -69l83 69h64l-109 -126h-76l-109 126h64z" />
    <glyph glyph-name="Sacute" unicode="&#x15a;" horiz-adv-x="612" 
d="M55 191h86v-22q0 -35 13.5 -59t36.5 -39t53 -22t62 -7q40 0 69 11.5t48 30t28 41.5t9 46q0 42 -28.5 77t-106.5 58l-66 19q-102 29 -145.5 77t-43.5 120q0 39 16.5 73.5t47 60t73.5 40.5t97 15q41 0 77 -9.5t64.5 -22.5t48.5 -28t30 -25v-110h-86v22q0 61 -38 90.5
t-98 29.5q-39 0 -64.5 -12.5t-41.5 -31.5t-22.5 -40t-6.5 -38q0 -45 25 -79.5t88 -53.5l76 -23q61 -18 100.5 -39.5t61.5 -46.5t30.5 -54t8.5 -63q0 -36 -17.5 -69.5t-50 -60t-79.5 -42.5t-106 -16q-41 0 -78.5 7.5t-69.5 20.5t-57.5 29.5t-43.5 33.5v111zM476 926
l-147 -153h-53l81 153h119z" />
    <glyph glyph-name="sacute" unicode="&#x15b;" horiz-adv-x="493" 
d="M45 134h76v-11q0 -24 10.5 -41t28 -27.5t41 -15.5t49.5 -5q31 0 53 7t36 18.5t20.5 25.5t6.5 29q0 32 -24 52t-87 38l-59 17q-40 12 -66.5 26t-42.5 31.5t-23 39.5t-7 49q0 28 12 52.5t35.5 42.5t58.5 28.5t81 10.5q34 0 63 -6.5t51.5 -16t39 -20t24.5 -18.5v-76h-76v11
q0 22 -9 37t-24 25t-35.5 14.5t-44.5 4.5q-29 0 -47 -8t-29 -19.5t-15 -25t-4 -25.5q0 -30 22 -49.5t70 -33.5l62 -18q48 -14 78.5 -28.5t48 -32t23.5 -39t6 -48.5t-13.5 -52.5t-39.5 -45t-63.5 -31t-84.5 -11.5q-69 0 -121 22t-81 47v76zM404 702l-134 -138h-52l78 138h108
z" />
    <glyph glyph-name="Scircumflex" unicode="&#x15c;" horiz-adv-x="612" 
d="M55 191h86v-22q0 -35 13.5 -59t36.5 -39t53 -22t62 -7q40 0 69 11.5t48 30t28 41.5t9 46q0 42 -28.5 77t-106.5 58l-66 19q-102 29 -145.5 77t-43.5 120q0 39 16.5 73.5t47 60t73.5 40.5t97 15q41 0 77 -9.5t64.5 -22.5t48.5 -28t30 -25v-110h-86v22q0 61 -38 90.5
t-98 29.5q-39 0 -64.5 -12.5t-41.5 -31.5t-22.5 -40t-6.5 -38q0 -45 25 -79.5t88 -53.5l76 -23q61 -18 100.5 -39.5t61.5 -46.5t30.5 -54t8.5 -63q0 -36 -17.5 -69.5t-50 -60t-79.5 -42.5t-106 -16q-41 0 -78.5 7.5t-69.5 20.5t-57.5 29.5t-43.5 33.5v111zM343 919l123 -142
h-68l-96 82l-94 -82h-68l122 142h81z" />
    <glyph glyph-name="scircumflex" unicode="&#x15d;" horiz-adv-x="493" 
d="M45 134h76v-11q0 -24 10.5 -41t28 -27.5t41 -15.5t49.5 -5q31 0 53 7t36 18.5t20.5 25.5t6.5 29q0 32 -24 52t-87 38l-59 17q-40 12 -66.5 26t-42.5 31.5t-23 39.5t-7 49q0 28 12 52.5t35.5 42.5t58.5 28.5t81 10.5q34 0 63 -6.5t51.5 -16t39 -20t24.5 -18.5v-76h-76v11
q0 22 -9 37t-24 25t-35.5 14.5t-44.5 4.5q-29 0 -47 -8t-29 -19.5t-15 -25t-4 -25.5q0 -30 22 -49.5t70 -33.5l62 -18q48 -14 78.5 -28.5t48 -32t23.5 -39t6 -48.5t-13.5 -52.5t-39.5 -45t-63.5 -31t-84.5 -11.5q-69 0 -121 22t-81 47v76zM284 690l109 -126h-64l-83 69
l-83 -69h-64l109 126h76z" />
    <glyph glyph-name="Scedilla" unicode="&#x15e;" horiz-adv-x="612" 
d="M55 191h86v-22q0 -35 13.5 -59t36.5 -39t53 -22t62 -7q40 0 69 11.5t48 30t28 41.5t9 46q0 42 -28.5 77t-106.5 58l-66 19q-102 29 -145.5 77t-43.5 120q0 39 16.5 73.5t47 60t73.5 40.5t97 15q41 0 77 -9.5t64.5 -22.5t48.5 -28t30 -25v-110h-86v22q0 61 -38 90.5
t-98 29.5q-39 0 -64.5 -12.5t-41.5 -31.5t-22.5 -40t-6.5 -38q0 -45 25 -79.5t88 -53.5l76 -23q61 -18 100.5 -39.5t61.5 -46.5t30.5 -54t8.5 -63q0 -36 -17.5 -69.5t-50 -60t-79.5 -42.5t-106 -16q-41 0 -78.5 7.5t-69.5 20.5t-57.5 29.5t-43.5 33.5v111zM240 -159
q14 -9 30 -15.5t38 -6.5q23 0 34 12t11 30q0 24 -17 34.5t-48 10.5h-30l14 94h55l-10 -56q8 1 11.5 1h8.5q51 0 72 -23t21 -58q0 -42 -34 -67.5t-84 -25.5q-29 0 -53 7.5t-40 20.5z" />
    <glyph glyph-name="scedilla" unicode="&#x15f;" horiz-adv-x="493" 
d="M45 134h76v-11q0 -24 10.5 -41t28 -27.5t41 -15.5t49.5 -5q31 0 53 7t36 18.5t20.5 25.5t6.5 29q0 32 -24 52t-87 38l-59 17q-40 12 -66.5 26t-42.5 31.5t-23 39.5t-7 49q0 28 12 52.5t35.5 42.5t58.5 28.5t81 10.5q34 0 63 -6.5t51.5 -16t39 -20t24.5 -18.5v-76h-76v11
q0 22 -9 37t-24 25t-35.5 14.5t-44.5 4.5q-29 0 -47 -8t-29 -19.5t-15 -25t-4 -25.5q0 -30 22 -49.5t70 -33.5l62 -18q48 -14 78.5 -28.5t48 -32t23.5 -39t6 -48.5t-13.5 -52.5t-39.5 -45t-63.5 -31t-84.5 -11.5q-69 0 -121 22t-81 47v76zM190 -144q13 -8 27 -14t34 -6
q21 0 31 11t10 27q0 22 -15.5 31.5t-43.5 9.5h-27l13 85h47l-9 -51q7 1 10 1h7q46 0 67 -20.5t21 -52.5q0 -38 -31 -61t-76 -23q-26 0 -48 7t-36 18z" />
    <glyph glyph-name="Scaron" unicode="&#x160;" horiz-adv-x="612" 
d="M55 191h86v-22q0 -35 13.5 -59t36.5 -39t53 -22t62 -7q40 0 69 11.5t48 30t28 41.5t9 46q0 42 -28.5 77t-106.5 58l-66 19q-102 29 -145.5 77t-43.5 120q0 39 16.5 73.5t47 60t73.5 40.5t97 15q41 0 77 -9.5t64.5 -22.5t48.5 -28t30 -25v-110h-86v22q0 61 -38 90.5
t-98 29.5q-39 0 -64.5 -12.5t-41.5 -31.5t-22.5 -40t-6.5 -38q0 -45 25 -79.5t88 -53.5l76 -23q61 -18 100.5 -39.5t61.5 -46.5t30.5 -54t8.5 -63q0 -36 -17.5 -69.5t-50 -60t-79.5 -42.5t-106 -16q-41 0 -78.5 7.5t-69.5 20.5t-57.5 29.5t-43.5 33.5v111zM211 919l96 -82
l94 82h68l-122 -142h-81l-123 142h68z" />
    <glyph glyph-name="scaron" unicode="&#x161;" horiz-adv-x="493" 
d="M45 134h76v-11q0 -24 10.5 -41t28 -27.5t41 -15.5t49.5 -5q31 0 53 7t36 18.5t20.5 25.5t6.5 29q0 32 -24 52t-87 38l-59 17q-40 12 -66.5 26t-42.5 31.5t-23 39.5t-7 49q0 28 12 52.5t35.5 42.5t58.5 28.5t81 10.5q34 0 63 -6.5t51.5 -16t39 -20t24.5 -18.5v-76h-76v11
q0 22 -9 37t-24 25t-35.5 14.5t-44.5 4.5q-29 0 -47 -8t-29 -19.5t-15 -25t-4 -25.5q0 -30 22 -49.5t70 -33.5l62 -18q48 -14 78.5 -28.5t48 -32t23.5 -39t6 -48.5t-13.5 -52.5t-39.5 -45t-63.5 -31t-84.5 -11.5q-69 0 -121 22t-81 47v76zM160 690l83 -69l83 69h64
l-109 -126h-76l-109 126h64z" />
    <glyph glyph-name="Tcedilla" unicode="&#x162;" horiz-adv-x="653" 
d="M238 50q24 0 32 14t8 43v540h-90q-16 0 -31.5 -3.5t-28 -13.5t-20 -27t-7.5 -45v-45h-56v187h563v-187h-56v45q0 28 -7.5 45t-20 27t-28 13.5t-31.5 3.5h-90v-597h92v-50h-281v50h52zM260 -159q14 -9 30 -15.5t38 -6.5q23 0 34 12t11 30q0 24 -17 34.5t-48 10.5h-30
l14 94h55l-10 -56q8 1 11.5 1h8.5q51 0 72 -23t21 -58q0 -42 -34 -67.5t-84 -25.5q-29 0 -53 7.5t-40 20.5z" />
    <glyph glyph-name="tcedilla" unicode="&#x163;" horiz-adv-x="416" 
d="M120 445h-90v35q66 8 102.5 49t50.5 105h30v-144h148v-45h-148v-309q0 -29 5 -47t14.5 -27.5t22 -13t27.5 -3.5q26 0 46.5 10.5t40.5 31.5l27 -34q-26 -26 -58.5 -45t-77.5 -19q-63 0 -101.5 33.5t-38.5 112.5v310zM195 -144q13 -8 27 -14t34 -6q21 0 31 11t10 27
q0 22 -15.5 31.5t-43.5 9.5h-27l13 85h47l-9 -51q7 1 10 1h7q46 0 67 -20.5t21 -52.5q0 -38 -31 -61t-76 -23q-26 0 -48 7t-36 18z" />
    <glyph glyph-name="Tcaron" unicode="&#x164;" horiz-adv-x="653" 
d="M238 50q24 0 32 14t8 43v540h-90q-16 0 -31.5 -3.5t-28 -13.5t-20 -27t-7.5 -45v-45h-56v187h563v-187h-56v45q0 28 -7.5 45t-20 27t-28 13.5t-31.5 3.5h-90v-597h92v-50h-281v50h52zM237 919l96 -82l94 82h68l-122 -142h-81l-123 142h68z" />
    <glyph glyph-name="tcaron" unicode="&#x165;" horiz-adv-x="416" 
d="M120 445h-90v35q66 8 102.5 49t50.5 105h30v-144h148v-45h-148v-309q0 -29 5 -47t14.5 -27.5t22 -13t27.5 -3.5q26 0 46.5 10.5t40.5 31.5l27 -34q-26 -26 -58.5 -45t-77.5 -19q-63 0 -101.5 33.5t-38.5 112.5v310zM315 556q23 23 40.5 51t17.5 48q0 9 -9 11.5t-20 6.5
t-20 14t-9 35q0 29 19 42.5t38 13.5q29 0 46.5 -19.5t17.5 -44.5q0 -37 -19 -83.5t-75 -100.5l-27 26v0z" />
    <glyph glyph-name="Umacron" unicode="&#x16a;" horiz-adv-x="783" 
d="M117 650h-87v50h266v-50h-42q-24 0 -32 -14t-8 -43v-352q0 -41 9 -76.5t30.5 -61t56.5 -40t87 -14.5q51 0 89 15t63 41t37.5 61t12.5 75v347q0 29 -8 45.5t-32 16.5h-47v50h241v-50h-47q-24 0 -32 -16.5t-8 -45.5v-347q0 -61 -19 -108t-54.5 -79t-85.5 -48.5t-112 -16.5
q-64 0 -115.5 15.5t-87.5 47t-55.5 79t-19.5 110.5v409zM543 870v-66h-302v66h302z" />
    <glyph glyph-name="umacron" unicode="&#x16b;" horiz-adv-x="633" 
d="M95 445h-80v45h173v-322q0 -23 3.5 -43t13.5 -34t27 -22t43 -8q24 0 52 8t52 24t40 39.5t16 54.5v258h-74v45h167v-445h80v-45h-172v99h-2q-16 -23 -37.5 -43t-47 -35t-54.5 -23.5t-59 -8.5q-74 0 -107.5 43.5t-33.5 111.5v301zM433 657v-64h-264v64h264z" />
    <glyph glyph-name="Ubreve" unicode="&#x16c;" horiz-adv-x="783" 
d="M117 650h-87v50h266v-50h-42q-24 0 -32 -14t-8 -43v-352q0 -41 9 -76.5t30.5 -61t56.5 -40t87 -14.5q51 0 89 15t63 41t37.5 61t12.5 75v347q0 29 -8 45.5t-32 16.5h-47v50h241v-50h-47q-24 0 -32 -16.5t-8 -45.5v-347q0 -61 -19 -108t-54.5 -79t-85.5 -48.5t-112 -16.5
q-64 0 -115.5 15.5t-87.5 47t-55.5 79t-19.5 110.5v409zM283 915q11 -29 36.5 -50t72.5 -21t72.5 21t36.5 50h49q-5 -38 -21 -64.5t-38 -43t-48 -24t-51 -7.5q-24 0 -50 7.5t-48 24t-38.5 43t-21.5 64.5h49z" />
    <glyph glyph-name="ubreve" unicode="&#x16d;" horiz-adv-x="633" 
d="M95 445h-80v45h173v-322q0 -23 3.5 -43t13.5 -34t27 -22t43 -8q24 0 52 8t52 24t40 39.5t16 54.5v258h-74v45h167v-445h80v-45h-172v99h-2q-16 -23 -37.5 -43t-47 -35t-54.5 -23.5t-59 -8.5q-74 0 -107.5 43.5t-33.5 111.5v301zM197 690q10 -26 33 -45t66 -19t66 19
t33 45h45q-5 -34 -19.5 -58t-34.5 -39t-44 -22t-46 -7q-23 0 -46.5 7t-43.5 22t-35 39t-19 58h45z" />
    <glyph glyph-name="Uring" unicode="&#x16e;" horiz-adv-x="783" 
d="M117 650h-87v50h266v-50h-42q-24 0 -32 -14t-8 -43v-352q0 -41 9 -76.5t30.5 -61t56.5 -40t87 -14.5q51 0 89 15t63 41t37.5 61t12.5 75v347q0 29 -8 45.5t-32 16.5h-47v50h241v-50h-47q-24 0 -32 -16.5t-8 -45.5v-347q0 -61 -19 -108t-54.5 -79t-85.5 -48.5t-112 -16.5
q-64 0 -115.5 15.5t-87.5 47t-55.5 79t-19.5 110.5v409zM293 859q0 22 8 41t22 33t33 22.5t40 8.5q45 0 74.5 -30.5t29.5 -74.5t-29.5 -74t-74.5 -30q-21 0 -40 8t-33 22t-22 33t-8 41zM446 860q0 20 -14 35t-36 15q-21 0 -34.5 -15t-13.5 -35q0 -22 13.5 -36t34.5 -14
q22 0 36 14t14 36z" />
    <glyph glyph-name="uring" unicode="&#x16f;" horiz-adv-x="633" 
d="M95 445h-80v45h173v-322q0 -23 3.5 -43t13.5 -34t27 -22t43 -8q24 0 52 8t52 24t40 39.5t16 54.5v258h-74v45h167v-445h80v-45h-172v99h-2q-16 -23 -37.5 -43t-47 -35t-54.5 -23.5t-59 -8.5q-74 0 -107.5 43.5t-33.5 111.5v301zM199 654q0 21 7.5 39t20.5 31.5t31 21
t39 7.5q42 0 70.5 -28.5t28.5 -70.5q0 -21 -7.5 -39t-21 -31.5t-31.5 -21t-39 -7.5q-42 0 -70 28.5t-28 70.5zM345 655q0 19 -14 33.5t-34 14.5q-22 0 -35 -14.5t-13 -33.5q0 -20 13 -34.5t35 -14.5q20 0 34 14.5t14 34.5z" />
    <glyph glyph-name="Uhungarumlaut" unicode="&#x170;" horiz-adv-x="783" 
d="M117 650h-87v50h266v-50h-42q-24 0 -32 -14t-8 -43v-352q0 -41 9 -76.5t30.5 -61t56.5 -40t87 -14.5q51 0 89 15t63 41t37.5 61t12.5 75v347q0 29 -8 45.5t-32 16.5h-47v50h241v-50h-47q-24 0 -32 -16.5t-8 -45.5v-347q0 -61 -19 -108t-54.5 -79t-85.5 -48.5t-112 -16.5
q-64 0 -115.5 15.5t-87.5 47t-55.5 79t-19.5 110.5v409zM451 918l-142 -145h-50l78 145h114zM639 918l-141 -145h-51l78 145h114z" />
    <glyph glyph-name="uhungarumlaut" unicode="&#x171;" horiz-adv-x="633" 
d="M95 445h-80v45h173v-322q0 -23 3.5 -43t13.5 -34t27 -22t43 -8q24 0 52 8t52 24t40 39.5t16 54.5v258h-74v45h167v-445h80v-45h-172v99h-2q-16 -23 -37.5 -43t-47 -35t-54.5 -23.5t-59 -8.5q-74 0 -107.5 43.5t-33.5 111.5v301zM367 701l-135 -137h-47l81 137h101z
M526 701l-135 -137h-47l81 137h101z" />
    <glyph glyph-name="Uogonek" unicode="&#x172;" horiz-adv-x="783" 
d="M117 650h-87v50h266v-50h-42q-24 0 -32 -14t-8 -43v-352q0 -41 9 -76.5t30.5 -61t56.5 -40t87 -14.5q51 0 89 15t63 41t37.5 61t12.5 75v347q0 29 -8 45.5t-32 16.5h-47v50h241v-50h-47q-24 0 -32 -16.5t-8 -45.5v-347q0 -61 -19 -108t-54.5 -79t-85.5 -48.5t-112 -16.5
q-64 0 -115.5 15.5t-87.5 47t-55.5 79t-19.5 110.5v409zM384 -120q0 40 30.5 77t73.5 62h51q-40 -29 -62 -57.5t-22 -63.5q0 -20 13 -35t39 -15q9 0 21 3t26 11l23 -47q-20 -17 -44 -22.5t-41 -5.5q-59 0 -83.5 28t-24.5 65z" />
    <glyph glyph-name="uogonek" unicode="&#x173;" horiz-adv-x="633" 
d="M95 445h-80v45h173v-322q0 -23 3.5 -43t13.5 -34t27 -22t43 -8q24 0 52 8t52 24t40 39.5t16 54.5v258h-74v45h167v-445h80v-45h-172v99h-2q-16 -23 -37.5 -43t-47 -35t-54.5 -23.5t-59 -8.5q-74 0 -107.5 43.5t-33.5 111.5v301zM422 -115q0 37 27 70.5t65 56.5h54
q-42 -27 -61.5 -53t-19.5 -59q0 -20 13 -31.5t33 -11.5q13 0 25 3t25 11l22 -43q-20 -17 -41.5 -22t-38.5 -5q-55 0 -79 24.5t-24 59.5z" />
    <glyph glyph-name="Ydieresis" unicode="&#x178;" horiz-adv-x="736" 
d="M277 50q24 0 32 14t8 43v135l-214 408h-78v50h278v-50h-41q-18 0 -25.5 -8t-7.5 -21q0 -20 12 -42l108 -212q8 -14 14 -31l12 -34h5q7 18 14.5 34t15.5 31l119 219q13 23 13 40q0 24 -31 24h-32v50h232v-50h-28q-25 0 -46.5 -19t-35.5 -45l-187 -344v-192h90v-50h-277v50
h50zM198 848q0 23 17 40t40 17t40 -17t17 -40t-17 -40t-40 -17t-40 17t-17 40zM426 848q0 23 17 40t38 17q25 0 42 -17t17 -40t-17 -40t-42 -17q-21 0 -38 17t-17 40z" />
    <glyph glyph-name="Zacute" unicode="&#x179;" horiz-adv-x="614" 
d="M411 581q16 23 27.5 38t19.5 25v3h-238q-16 0 -30.5 -4.5t-26 -15.5t-18.5 -29.5t-7 -46.5v-41h-56v190h483v-50l-359 -525q-6 -8 -13.5 -17.5l-15 -19t-14.5 -18t-11 -14.5v-3h287q13 0 26 4.5t23.5 15.5t17.5 29.5t7 46.5v41h56v-190h-524v50zM485 926l-147 -153h-53
l81 153h119z" />
    <glyph glyph-name="zacute" unicode="&#x17a;" horiz-adv-x="500" 
d="M310 388q10 13 22 27.5t23 26.5v3h-164q-28 0 -51 -16.5t-23 -51.5v-34h-50v147h392v-43l-268 -341q-12 -16 -26.5 -32.5t-22.5 -25.5v-3h194q27 0 50.5 16.5t23.5 51.5v36h50v-149h-420v44zM413 702l-134 -138h-52l78 138h108z" />
    <glyph glyph-name="Zdotaccent" unicode="&#x17b;" horiz-adv-x="614" 
d="M411 581q16 23 27.5 38t19.5 25v3h-238q-16 0 -30.5 -4.5t-26 -15.5t-18.5 -29.5t-7 -46.5v-41h-56v190h483v-50l-359 -525q-6 -8 -13.5 -17.5l-15 -19t-14.5 -18t-11 -14.5v-3h287q13 0 26 4.5t23.5 15.5t17.5 29.5t7 46.5v41h56v-190h-524v50zM260 852q0 25 18 43
t43 18t43 -18t18 -43t-18 -43t-43 -18t-43 18t-18 43z" />
    <glyph glyph-name="zdotaccent" unicode="&#x17c;" horiz-adv-x="500" 
d="M310 388q10 13 22 27.5t23 26.5v3h-164q-28 0 -51 -16.5t-23 -51.5v-34h-50v147h392v-43l-268 -341q-12 -16 -26.5 -32.5t-22.5 -25.5v-3h194q27 0 50.5 16.5t23.5 51.5v36h50v-149h-420v44zM209 627q0 24 17 41t40 17q24 0 41.5 -17t17.5 -41q0 -23 -17.5 -40t-41.5 -17
q-23 0 -40 17t-17 40z" />
    <glyph glyph-name="Zcaron" unicode="&#x17d;" horiz-adv-x="614" 
d="M411 581q16 23 27.5 38t19.5 25v3h-238q-16 0 -30.5 -4.5t-26 -15.5t-18.5 -29.5t-7 -46.5v-41h-56v190h483v-50l-359 -525q-6 -8 -13.5 -17.5l-15 -19t-14.5 -18t-11 -14.5v-3h287q13 0 26 4.5t23.5 15.5t17.5 29.5t7 46.5v41h56v-190h-524v50zM224 919l96 -82l94 82h68
l-122 -142h-81l-123 142h68z" />
    <glyph glyph-name="zcaron" unicode="&#x17e;" horiz-adv-x="500" 
d="M310 388q10 13 22 27.5t23 26.5v3h-164q-28 0 -51 -16.5t-23 -51.5v-34h-50v147h392v-43l-268 -341q-12 -16 -26.5 -32.5t-22.5 -25.5v-3h194q27 0 50.5 16.5t23.5 51.5v36h50v-149h-420v44zM181 690l83 -69l83 69h64l-109 -126h-76l-109 126h64z" />
    <glyph glyph-name="Schwa" unicode="&#x18f;" horiz-adv-x="711" 
d="M45 371h516q-1 64 -16.5 116.5t-44 90.5t-69 59t-91.5 21q-24 0 -54 -5t-57 -20.5t-45 -43t-18 -72.5v-14h-87v113q27 22 59.5 40t67.5 30t71 18.5t69 6.5q69 0 127.5 -19.5t101 -61.5t67 -109t24.5 -161q0 -92 -25 -161.5t-68 -116t-100.5 -70t-121.5 -23.5
q-79 0 -136.5 26.5t-95 71.5t-56 104t-18.5 124v56zM149 317q0 -54 10.5 -103.5t34.5 -87.5t62.5 -61t94.5 -23q54 0 92 23t63 61t38 88t15 103h-410z" />
    <glyph glyph-name="florin" unicode="&#x192;" horiz-adv-x="509" 
d="M31 -188q16 0 28 2t20.5 9.5t14 21.5t8.5 38l78 561h-85l6 46h86l8 52q15 97 65.5 147.5t131.5 50.5q34 0 59 -7.5t48 -23.5l-11 -77h-66l2 11q1 5 1 14q0 17 -10.5 28t-32.5 11q-43 0 -65 -35.5t-32 -107.5l-9 -63h140l-7 -46h-139l-67 -472q-15 -103 -63 -162t-150 -71
l10 73h31z" />
    <glyph glyph-name="eturn" unicode="&#x1dd;" horiz-adv-x="520" 
d="M35 248h352q0 30 -3.5 66t-17.5 67.5t-41.5 53t-75.5 21.5q-25 0 -47 -5.5t-38 -17.5t-25.5 -30.5t-9.5 -43.5v-11h-79v79q9 10 28 23t46 24t60 19t69 8q47 0 89.5 -14t74 -44.5t50 -78.5t18.5 -116q0 -60 -18.5 -107.5t-51 -81.5t-76 -52t-92.5 -18q-60 0 -101 18.5
t-65.5 49t-35 69t-10.5 79.5v43zM130 200q1 -78 30 -122t87 -44q24 0 47.5 11t42 32t31.5 52t16 71h-254z" />
    <glyph glyph-name="Gcaron" unicode="&#x1e6;" horiz-adv-x="705" 
d="M45 345q0 84 23 151.5t67 115t106.5 73.5t142.5 26q65 0 126 -21.5t112 -68.5v-113h-87v12q0 45 -16.5 72t-40.5 42t-51.5 19.5t-49.5 4.5q-59 0 -102 -28.5t-71.5 -74t-42 -101t-13.5 -109.5q0 -62 12 -117t38 -96.5t67.5 -65.5t100.5 -24q26 0 54 2.5t51.5 11.5
t38.5 26.5t15 47.5v142h-85v50h250v-50h-33q-21 0 -30 -13t-9 -42v-155q-46 -33 -112.5 -53t-142.5 -20q-68 0 -126.5 20t-101 62.5t-66.5 110t-24 163.5zM291 919l96 -82l94 82h68l-122 -142h-81l-123 142h68z" />
    <glyph glyph-name="gcaron" unicode="&#x1e7;" horiz-adv-x="580" 
d="M45 -136q0 39 18 61t44 39l59 -15q-26 -36 -26 -64q0 -45 46.5 -70t124.5 -25q37 0 69 7t56 19.5t37.5 31t13.5 41.5q0 11 -4 23.5t-20 24.5t-46.5 21t-83.5 12l-76 5q-37 3 -68.5 8.5t-54 15.5t-35 25.5t-12.5 37.5q0 35 22.5 58t57.5 46v2q-43 17 -63.5 57t-20.5 94
q0 43 16.5 77t44 57.5t64.5 35.5t78 12q26 0 64 -8t72 -33q23 24 37.5 51t22.5 50l63 -31q-17 -29 -40 -53.5t-54 -44.5q17 -20 27.5 -47.5t10.5 -65.5q0 -33 -13.5 -65.5t-39.5 -58.5t-63.5 -42t-86.5 -16q-20 0 -44.5 4t-37.5 9q-11 -8 -22 -19.5t-11 -28.5q0 -9 4 -16.5
t15.5 -14t31.5 -11.5t53 -7l76 -5q63 -4 101 -18t59 -34t27.5 -44t6.5 -49q0 -39 -19.5 -69.5t-53.5 -51.5t-80.5 -32t-101.5 -11q-72 0 -119.5 13t-75 31.5t-39 40.5t-11.5 40zM391 319q0 40 -10.5 66.5t-26.5 42.5t-34 22t-34 6t-34.5 -6t-34 -22t-26 -42.5t-10.5 -66.5
q0 -28 6.5 -53t19 -43.5t32.5 -29.5t47 -11t47 11t32.5 29.5t19 43.5t6.5 53zM206 690l83 -69l83 69h64l-109 -126h-76l-109 126h64z" />
    <glyph glyph-name="Scommaaccent" unicode="&#x218;" horiz-adv-x="612" 
d="M55 191h86v-22q0 -35 13.5 -59t36.5 -39t53 -22t62 -7q40 0 69 11.5t48 30t28 41.5t9 46q0 42 -28.5 77t-106.5 58l-66 19q-102 29 -145.5 77t-43.5 120q0 39 16.5 73.5t47 60t73.5 40.5t97 15q41 0 77 -9.5t64.5 -22.5t48.5 -28t30 -25v-110h-86v22q0 61 -38 90.5
t-98 29.5q-39 0 -64.5 -12.5t-41.5 -31.5t-22.5 -40t-6.5 -38q0 -45 25 -79.5t88 -53.5l76 -23q61 -18 100.5 -39.5t61.5 -46.5t30.5 -54t8.5 -63q0 -36 -17.5 -69.5t-50 -60t-79.5 -42.5t-106 -16q-41 0 -78.5 7.5t-69.5 20.5t-57.5 29.5t-43.5 33.5v111zM242 -293
q24 24 41.5 52t17.5 49q0 9 -9 12.5t-20.5 8.5t-20.5 15t-9 34q0 30 19.5 43.5t38.5 13.5q30 0 47.5 -19.5t17.5 -45.5q0 -39 -19 -86t-77 -104l-27 27v0z" />
    <glyph glyph-name="scommaaccent" unicode="&#x219;" horiz-adv-x="493" 
d="M45 134h76v-11q0 -24 10.5 -41t28 -27.5t41 -15.5t49.5 -5q31 0 53 7t36 18.5t20.5 25.5t6.5 29q0 32 -24 52t-87 38l-59 17q-40 12 -66.5 26t-42.5 31.5t-23 39.5t-7 49q0 28 12 52.5t35.5 42.5t58.5 28.5t81 10.5q34 0 63 -6.5t51.5 -16t39 -20t24.5 -18.5v-76h-76v11
q0 22 -9 37t-24 25t-35.5 14.5t-44.5 4.5q-29 0 -47 -8t-29 -19.5t-15 -25t-4 -25.5q0 -30 22 -49.5t70 -33.5l62 -18q48 -14 78.5 -28.5t48 -32t23.5 -39t6 -48.5t-13.5 -52.5t-39.5 -45t-63.5 -31t-84.5 -11.5q-69 0 -121 22t-81 47v76zM190 -287q23 23 40.5 51t17.5 48
q0 9 -9 11.5t-20 6.5t-20 14t-9 35q0 29 19 42.5t38 13.5q29 0 46.5 -19.5t17.5 -44.5q0 -37 -19 -83.5t-75 -100.5l-27 26v0z" />
    <glyph glyph-name="Tcommaaccent" unicode="&#x21a;" horiz-adv-x="653" 
d="M238 50q24 0 32 14t8 43v540h-90q-16 0 -31.5 -3.5t-28 -13.5t-20 -27t-7.5 -45v-45h-56v187h563v-187h-56v45q0 28 -7.5 45t-20 27t-28 13.5t-31.5 3.5h-90v-597h92v-50h-281v50h52zM265 -293q24 24 41.5 52t17.5 49q0 9 -9 12.5t-20.5 8.5t-20.5 15t-9 34
q0 30 19.5 43.5t38.5 13.5q30 0 47.5 -19.5t17.5 -45.5q0 -39 -19 -86t-77 -104l-27 27v0z" />
    <glyph glyph-name="tcommaaccent" unicode="&#x21b;" horiz-adv-x="416" 
d="M120 445h-90v35q66 8 102.5 49t50.5 105h30v-144h148v-45h-148v-309q0 -29 5 -47t14.5 -27.5t22 -13t27.5 -3.5q26 0 46.5 10.5t40.5 31.5l27 -34q-26 -26 -58.5 -45t-77.5 -19q-63 0 -101.5 33.5t-38.5 112.5v310zM199 -287q23 23 40.5 51t17.5 48q0 9 -9 11.5t-20 6.5
t-20 14t-9 35q0 29 19 42.5t38 13.5q29 0 46.5 -19.5t17.5 -44.5q0 -37 -19 -83.5t-75 -100.5l-27 26v0z" />
    <glyph glyph-name="dotlessj" unicode="&#x237;" horiz-adv-x="290" 
d="M15 -206q32 4 51 17.5t28.5 38t12.5 60.5t3 84v451h-80v45h173v-533q0 -45 -9.5 -82.5t-31.5 -65.5t-58 -46t-89 -24v55v0z" />
    <glyph glyph-name="schwa" unicode="&#x259;" horiz-adv-x="520" 
d="M35 248h352q0 30 -3.5 66t-17.5 67.5t-41.5 53t-75.5 21.5q-25 0 -47 -5.5t-38 -17.5t-25.5 -30.5t-9.5 -43.5v-11h-79v79q9 10 28 23t46 24t60 19t69 8q47 0 89.5 -14t74 -44.5t50 -78.5t18.5 -116q0 -60 -18.5 -107.5t-51 -81.5t-76 -52t-92.5 -18q-60 0 -101 18.5
t-65.5 49t-35 69t-10.5 79.5v43zM130 200q1 -78 30 -122t87 -44q24 0 47.5 11t42 32t31.5 52t16 71h-254z" />
    <glyph glyph-name="afii57929" unicode="&#x2bc;" horiz-adv-x="151" 
d="M10 489q23 23 40.5 51t17.5 48q0 9 -9 11.5t-20 6.5t-20 14t-9 35q0 29 19 42.5t38 13.5q29 0 46.5 -19.5t17.5 -44.5q0 -37 -19 -83.5t-75 -100.5l-27 26v0z" />
    <glyph glyph-name="circumflex" unicode="&#x2c6;" horiz-adv-x="572" 
d="M324 690l109 -126h-64l-83 69l-83 -69h-64l109 126h76z" />
    <glyph glyph-name="caron" unicode="&#x2c7;" horiz-adv-x="572" 
d="M203 690l83 -69l83 69h64l-109 -126h-76l-109 126h64z" />
    <glyph glyph-name="breve" unicode="&#x2d8;" horiz-adv-x="572" 
d="M187 690q10 -26 33 -45t66 -19t66 19t33 45h45q-5 -34 -19.5 -58t-34.5 -39t-44 -22t-46 -7q-23 0 -46.5 7t-43.5 22t-35 39t-19 58h45z" />
    <glyph glyph-name="dotaccent" unicode="&#x2d9;" horiz-adv-x="572" 
d="M228 627q0 24 17 41t40 17q24 0 41.5 -17t17.5 -41q0 -23 -17.5 -40t-41.5 -17q-23 0 -40 17t-17 40z" />
    <glyph glyph-name="ring" unicode="&#x2da;" horiz-adv-x="597" 
d="M200 654q0 21 7.5 39t20.5 31.5t31 21t39 7.5q42 0 70.5 -28.5t28.5 -70.5q0 -21 -7.5 -39t-21 -31.5t-31.5 -21t-39 -7.5q-42 0 -70 28.5t-28 70.5zM346 655q0 19 -14 33.5t-34 14.5q-22 0 -35 -14.5t-13 -33.5q0 -20 13 -34.5t35 -14.5q20 0 34 14.5t14 34.5z" />
    <glyph glyph-name="ogonek" unicode="&#x2db;" horiz-adv-x="522" 
d="M239 -115q0 37 27 70.5t65 56.5h54q-42 -27 -61.5 -53t-19.5 -59q0 -20 13 -31.5t33 -11.5q13 0 25 3t25 11l22 -43q-20 -17 -41.5 -22t-38.5 -5q-55 0 -79 24.5t-24 59.5z" />
    <glyph glyph-name="tilde" unicode="&#x2dc;" horiz-adv-x="572" 
d="M280 595q-20 8 -34.5 13.5t-30.5 5.5q-13 0 -25 -7t-16 -28h-42q0 39 23 67.5t64 28.5q20 0 38 -6t39 -14q16 -6 33 -11.5t29 -5.5q14 0 25.5 6t15.5 28h41q0 -48 -26.5 -72t-59.5 -24q-14 0 -28.5 4t-45.5 15z" />
    <glyph glyph-name="hungarumlaut" unicode="&#x2dd;" horiz-adv-x="572" 
d="M351 701l-135 -137h-47l81 137h101zM510 701l-135 -137h-47l81 137h101z" />
    <glyph glyph-name="acutecomb" unicode="&#x301;" horiz-adv-x="0" 
d="M-127 702l-134 -138h-52l78 138h108z" />
    <glyph glyph-name="Delta" unicode="&#x394;" horiz-adv-x="765" 
d="M389 549q-5 14 -10 28.5t-10 32.5h-5q-5 -17 -11 -34t-11 -29l-201 -494h447zM431 700l284 -700h-665l284 700h97z" />
    <glyph glyph-name="Delta" unicode="&#x2206;" horiz-adv-x="765" 
d="M389 549q-5 14 -10 28.5t-10 32.5h-5q-5 -17 -11 -34t-11 -29l-201 -494h447zM431 700l284 -700h-665l284 700h97z" />
    <glyph glyph-name="Omega" unicode="&#x3a9;" horiz-adv-x="760" 
d="M116 145v-23q0 -23 5 -35.5t14 -18t20.5 -6.5t24.5 -1h87v81q-104 32 -160.5 100.5t-56.5 169.5q0 65 24.5 120t68 94.5t104.5 62t133 22.5t133 -22.5t104.5 -62t68 -94.5t24.5 -120q0 -101 -56.5 -169.5t-160.5 -100.5v-81h87q13 0 24.5 1t20.5 6.5t14 18t5 35.5v23h56
v-145h-274v169q32 7 64.5 24t58.5 46t42 71.5t16 101.5q0 65 -19.5 111.5t-52 76.5t-73 44t-82.5 14t-82.5 -14t-73 -44t-52 -76.5t-19.5 -111.5q0 -59 16 -101.5t42 -71.5t58.5 -46t64.5 -24v-169h-274v145h56z" />
    <glyph glyph-name="Omega" unicode="&#x2126;" horiz-adv-x="760" 
d="M116 145v-23q0 -23 5 -35.5t14 -18t20.5 -6.5t24.5 -1h87v81q-104 32 -160.5 100.5t-56.5 169.5q0 65 24.5 120t68 94.5t104.5 62t133 22.5t133 -22.5t104.5 -62t68 -94.5t24.5 -120q0 -101 -56.5 -169.5t-160.5 -100.5v-81h87q13 0 24.5 1t20.5 6.5t14 18t5 35.5v23h56
v-145h-274v169q32 7 64.5 24t58.5 46t42 71.5t16 101.5q0 65 -19.5 111.5t-52 76.5t-73 44t-82.5 14t-82.5 -14t-73 -44t-52 -76.5t-19.5 -111.5q0 -59 16 -101.5t42 -71.5t58.5 -46t64.5 -24v-169h-274v145h56z" />
    <glyph glyph-name="pi" unicode="&#x3c0;" horiz-adv-x="626" 
d="M440 427h-237v-382h66v-45h-229v45h37q19 0 26 11.5t7 38.5v332h-85v63h566v-63h-52q-19 0 -26 -13t-7 -40v-246q0 -26 5.5 -41.5t16 -24.5t24.5 -12t32 -3v-55q-50 0 -78.5 12t-43 32t-18.5 47t-4 56v288z" />
    <glyph glyph-name="afii10023" unicode="&#x401;" horiz-adv-x="626" 
d="M82 50q24 0 32 14t8 43v543h-87v50h532v-177h-56v28q0 55 -25.5 75.5t-59.5 20.5h-207v-265h177v80h56v-213h-56v80h-177v-276h219q15 0 30 4.5t26.5 15.5t18.5 29.5t7 46.5v35h56v-184h-541v50h47zM152 848q0 23 17 40t40 17t40 -17t17 -40t-17 -40t-40 -17t-40 17
t-17 40zM380 848q0 23 17 40t38 17q25 0 42 -17t17 -40t-17 -40t-42 -17q-21 0 -38 17t-17 40z" />
    <glyph glyph-name="afii10051" unicode="&#x402;" horiz-adv-x="833" 
d="M535 49q34 0 63 9.5t50.5 29.5t34 51.5t12.5 75.5q0 69 -37.5 113t-112.5 44q-95 0 -170 -48v-274h70v-50h-259v50h52q24 0 32 14t8 43v540h-90q-16 0 -31.5 -3.5t-28 -13.5t-20 -27t-7.5 -45v-45h-56v187h563v-177h-56v35q0 28 -7.5 45t-20 27t-28.5 13.5t-32 3.5h-89
v-267q36 21 87 34.5t104 13.5q109 0 170.5 -54t61.5 -150q0 -48 -17.5 -89t-51.5 -71.5t-82.5 -48.5t-111.5 -18v52v0z" />
    <glyph glyph-name="afii10052" unicode="&#x403;" horiz-adv-x="587" 
d="M82 50q24 0 32 14t8 43v543h-87v50h512v-183h-56v34q0 28 -7 46.5t-19 29.5t-27.5 15.5t-31.5 4.5h-187v-597h92v-50h-276v50h47zM477 926l-147 -153h-53l81 153h119z" />
    <glyph glyph-name="afii10053" unicode="&#x404;" horiz-adv-x="661" 
d="M45 345q0 84 22.5 151.5t66 115t105.5 73.5t142 26q65 0 124.5 -19.5t110.5 -66.5v-113h-87v14q0 45 -16 71t-39 39.5t-49.5 17.5t-48.5 4q-55 0 -95.5 -24.5t-68.5 -63.5t-43.5 -88.5t-19.5 -99.5h308v-54h-309q1 -59 15 -111t41 -91t68.5 -61.5t97.5 -22.5
q22 0 49.5 2.5t52 14t41 34t16.5 61.5v17h87v-106q-49 -38 -113.5 -57t-132.5 -19t-127.5 20t-103.5 62.5t-69 110t-25 163.5z" />
    <glyph glyph-name="afii10054" unicode="&#x405;" horiz-adv-x="612" 
d="M55 191h86v-22q0 -35 13.5 -59t36.5 -39t53 -22t62 -7q40 0 69 11.5t48 30t28 41.5t9 46q0 42 -28.5 77t-106.5 58l-66 19q-102 29 -145.5 77t-43.5 120q0 39 16.5 73.5t47 60t73.5 40.5t97 15q41 0 77 -9.5t64.5 -22.5t48.5 -28t30 -25v-110h-86v22q0 61 -38 90.5
t-98 29.5q-39 0 -64.5 -12.5t-41.5 -31.5t-22.5 -40t-6.5 -38q0 -45 25 -79.5t88 -53.5l76 -23q61 -18 100.5 -39.5t61.5 -46.5t30.5 -54t8.5 -63q0 -36 -17.5 -69.5t-50 -60t-79.5 -42.5t-106 -16q-41 0 -78.5 7.5t-69.5 20.5t-57.5 29.5t-43.5 33.5v111z" />
    <glyph glyph-name="afii10055" unicode="&#x406;" horiz-adv-x="351" 
d="M87 50q24 0 32 14t8 43v543h-92v50h281v-50h-52q-24 0 -32 -14t-8 -43v-543h92v-50h-281v50h52z" />
    <glyph glyph-name="afii10056" unicode="&#x407;" horiz-adv-x="351" 
d="M87 50q24 0 32 14t8 43v543h-92v50h281v-50h-52q-24 0 -32 -14t-8 -43v-543h92v-50h-281v50h52zM5 848q0 23 17 40t40 17t40 -17t17 -40t-17 -40t-40 -17t-40 17t-17 40zM232 848q0 23 17 40t38 17q25 0 42 -17t17 -40t-17 -40t-42 -17q-21 0 -38 17t-17 40z" />
    <glyph glyph-name="afii10057" unicode="&#x408;" horiz-adv-x="544" 
d="M50 148h83v-33q0 -41 21 -57t58 -16q57 0 87.5 40t30.5 119v449h-92v50h276v-50h-47q-24 0 -32 -14t-8 -43v-379q0 -58 -17 -100.5t-46.5 -70t-69 -41t-84.5 -13.5q-44 0 -86 11.5t-74 37.5v110z" />
    <glyph glyph-name="afii10058" unicode="&#x409;" horiz-adv-x="1082" 
d="M37 88h72q27 0 46 17t33 58.5t25.5 112t23.5 178.5l13 115q1 7 1 12.5v10.5q0 37 -15 47.5t-40 10.5h-28v50h569v-50h-50q-37 0 -37 -57v-173h147q48 0 92.5 -9t78.5 -32t54 -62.5t20 -100.5q0 -60 -23 -101.5t-59.5 -67t-82 -36.5t-90.5 -11h-321v50h47q24 0 32 14t8 43
v540h-170q-39 0 -50.5 -19t-14.5 -47l-16 -135q-17 -138 -35.5 -227t-43.5 -140t-57.5 -70.5t-77.5 -19.5q-10 0 -23.5 2t-27.5 9v88zM781 53q25 0 53 9t51 28.5t38.5 50t15.5 74.5q0 45 -15.5 74t-39 46.5t-52 24t-54.5 6.5h-129v-313h132z" />
    <glyph glyph-name="afii10059" unicode="&#x40a;" horiz-adv-x="1101" 
d="M82 50q24 0 32 14t8 43v543h-87v50h266v-50h-47q-35 0 -35 -57v-200h353v257h-87v50h271v-50h-47q-24 0 -32 -14t-8 -43v-173h147q48 0 92.5 -9t78.5 -32t54 -62.5t20 -100.5q0 -60 -23 -101.5t-59.5 -67t-82 -36.5t-90.5 -11h-321v50h47q24 0 32 14t8 43v232h-353v-289
h82v-50h-266v50h47zM800 53q25 0 53 9t51 28.5t38.5 50t15.5 74.5q0 45 -15.5 74t-39 46.5t-52 24t-54.5 6.5h-129v-313h132z" />
    <glyph glyph-name="afii10060" unicode="&#x40b;" horiz-adv-x="882" 
d="M238 50q24 0 32 14t8 43v540h-90q-16 0 -31.5 -3.5t-28 -13.5t-20 -27t-7.5 -45v-45h-56v187h563v-177h-56v35q0 28 -7.5 45t-20 27t-28.5 13.5t-32 3.5h-89v-267q36 21 87.5 34.5t104.5 13.5t90.5 -14.5t61.5 -39.5t35 -59t11 -74v-191h87v-50h-265v50h47q35 0 35 57
v132q0 28 -6 52.5t-21 42.5t-40.5 28t-64.5 10q-87 0 -162 -48v-274h92v-50h-281v50h52z" />
    <glyph glyph-name="afii10061" unicode="&#x40c;" horiz-adv-x="722" 
d="M82 50q24 0 32 14t8 43v543h-87v50h265v-50h-28q-29 0 -41 -9t-12 -45v-200h99l158 197q15 20 15 34q0 10 -7 16.5t-23 6.5h-37v50h254v-50h-6q-39 0 -70.5 -19t-56.5 -49l-159 -198l234 -334h82v-50h-165l-232 342h-86v-292h82v-50h-266v50h47zM537 926l-147 -153h-53
l81 153h119z" />
    <glyph glyph-name="afii10062" unicode="&#x40e;" horiz-adv-x="739" 
d="M173 88h86q31 0 53.5 20.5t41.5 63.5l13 29l-262 449h-80v50h278v-50h-31q-34 0 -34 -29q0 -19 14 -41l128 -222q8 -13 15 -28t15 -35h3q6 17 12 31.5t12 28.5l96 228q3 8 5 17.5t2 16.5q0 33 -41 33h-29v50h244v-50h-26q-26 0 -48.5 -16t-40.5 -59l-173 -403
q-23 -53 -46.5 -88.5t-48.5 -56.5t-51.5 -29.5t-54.5 -8.5q-13 0 -28 3t-24 8v88zM191 914h98v-19q0 -45 24 -65t72 -20t72 20t24 65v19h98v-9q0 -33 -14 -59t-39.5 -44t-61.5 -27.5t-79 -9.5t-79 9.5t-61.5 27.5t-39.5 44t-14 59v9z" />
    <glyph glyph-name="afii10145" unicode="&#x40f;" horiz-adv-x="785" 
d="M361 -113q0 66 -16.5 89.5t-52.5 23.5h-257v50h51q20 0 28 14t8 43v543h-87v50h266v-50h-47q-35 0 -35 -57v-540h347v597h-82v50h266v-50h-47q-24 0 -32 -14t-8 -43v-543h87v-50h-257q-35 0 -51.5 -23.5t-16.5 -89.5v-74h-64v74v0z" />
    <glyph glyph-name="afii10017" unicode="&#x410;" horiz-adv-x="840" 
d="M55 50q24 0 45.5 17t36.5 53l236 580h98l264 -650h80v-50h-279v50h42q17 0 24 11.5t7 25.5q0 8 -2 15.5t-4 14.5l-32 83h-332l-32 -82q-9 -23 -9 -39q0 -14 6 -21.5t22 -7.5h43v-50h-244v50h30zM437 534q-6 14 -14 38.5t-13 42.5h-5q-8 -19 -17 -42t-15 -37l-116 -282
h297z" />
    <glyph glyph-name="afii10018" unicode="&#x411;" horiz-adv-x="663" 
d="M82 50q24 0 32 14t8 43v543h-87v50h536v-177h-56v28q0 55 -25.5 75.5t-59.5 20.5h-211v-238h161q44 0 87 -9t76.5 -31.5t54 -61t20.5 -97.5q0 -43 -12.5 -75.5t-33.5 -56t-47 -38.5t-53 -24t-52.5 -12.5t-44.5 -3.5h-340v50h47zM357 53q25 0 53 8.5t51.5 27t38.5 48.5
t15 73q0 42 -15 70t-38.5 44.5t-51.5 23.5t-53 7h-139v-302h139z" />
    <glyph glyph-name="afii10019" unicode="&#x412;" horiz-adv-x="669" 
d="M82 50q24 0 32 14t8 43v543h-87v50h336q43 0 85 -7t75 -26.5t53.5 -53.5t20.5 -87q0 -28 -10 -53t-28 -45.5t-43 -35t-55 -20.5v-4q44 -7 73.5 -23.5t47.5 -39.5t26 -49.5t8 -53.5q0 -61 -27 -100.5t-66.5 -62t-85.5 -31t-85 -8.5h-325v50h47zM360 53q26 0 54.5 8
t52 25.5t39 46.5t15.5 71q0 59 -39 96t-108 37h-155v-284h141zM360 388q21 0 46 7t46 22.5t35.5 41t14.5 62.5q0 59 -36 92.5t-94 33.5h-153v-259h141z" />
    <glyph glyph-name="afii10020" unicode="&#x413;" horiz-adv-x="587" 
d="M82 50q24 0 32 14t8 43v543h-87v50h512v-183h-56v34q0 28 -7 46.5t-19 29.5t-27.5 15.5t-31.5 4.5h-187v-597h92v-50h-276v50h47z" />
    <glyph glyph-name="afii10021" unicode="&#x414;" horiz-adv-x="783" 
d="M98 53q35 41 57.5 94t36.5 109t21.5 110.5t12.5 98.5l12 104q1 7 1 12.5v10.5q0 37 -15 47.5t-40 10.5h-28v50h569v-50h-50q-37 0 -37 -57v-540h108v-207h-56v51q0 33 -6.5 53t-18 31.5t-27.5 15t-36 3.5h-431q-20 0 -36 -3.5t-27.5 -15t-18 -31.5t-6.5 -53v-51h-56v207
h71zM541 647h-171q-39 0 -50.5 -19t-14.5 -47l-14 -115q-7 -56 -15.5 -112.5t-21.5 -110t-31.5 -102t-44.5 -88.5h363v594z" />
    <glyph glyph-name="afii10022" unicode="&#x415;" horiz-adv-x="626" 
d="M82 50q24 0 32 14t8 43v543h-87v50h532v-177h-56v28q0 55 -25.5 75.5t-59.5 20.5h-207v-265h177v80h56v-213h-56v80h-177v-276h219q15 0 30 4.5t26.5 15.5t18.5 29.5t7 46.5v35h56v-184h-541v50h47z" />
    <glyph glyph-name="afii10024" unicode="&#x416;" horiz-adv-x="1068" 
d="M107 50l201 324l-134 208q-21 33 -53.5 50.5t-71.5 17.5h-8v50h251v-50h-34q-17 0 -23.5 -6.5t-6.5 -15.5t4.5 -19t10.5 -19l133 -206h110v266h-80v50h256v-50h-40q-24 0 -32 -14t-8 -43v-209h110l133 206q6 9 10.5 19t4.5 19t-6.5 15.5t-23.5 6.5h-34v50h251v-50h-8
q-39 0 -71.5 -17.5t-53.5 -50.5l-134 -208l201 -324h82v-50h-165l-199 333h-97v-283h80v-50h-256v50h40q24 0 32 14t8 43v226h-97l-199 -333h-165v50h82z" />
    <glyph glyph-name="afii10025" unicode="&#x417;" horiz-adv-x="614" 
d="M45 177h87v-17q0 -39 16 -62.5t39.5 -36t51 -16t50.5 -3.5q89 0 132 45.5t43 118.5q0 31 -12 55t-33 40t-50 24t-63 8h-95v54h93q25 0 51 8.5t47 26t34 44.5t13 65q0 27 -10 50t-29 40t-46 27t-60 10q-24 0 -52.5 -4t-52.5 -17.5t-40.5 -40t-16.5 -71.5v-14h-87v113
q53 42 118.5 64.5t140.5 22.5q116 0 178 -49t62 -131q0 -35 -14 -63t-35.5 -48.5t-47.5 -33.5t-50 -18v-4q40 -5 70.5 -19.5t51 -36.5t30.5 -49.5t10 -56.5q0 -47 -19.5 -86t-56 -67t-88.5 -44t-116 -16q-79 0 -138 21.5t-106 60.5v106z" />
    <glyph glyph-name="afii10026" unicode="&#x418;" horiz-adv-x="796" 
d="M82 50q24 0 32 14t8 43v543h-87v50h266v-50h-47q-35 0 -35 -57v-373q0 -14 -0.5 -25.5t-1.5 -24.5t-2.5 -28.5t-2.5 -36.5h3q9 15 20 37t22 39l331 519h173v-50h-50q-37 0 -37 -57v-543h87v-50h-266v50h47q35 0 35 57v371q0 16 1.5 42.5t5.5 74.5h-3q-14 -26 -27.5 -52
t-24.5 -43l-321 -500h-173v50h47z" />
    <glyph glyph-name="afii10027" unicode="&#x419;" horiz-adv-x="796" 
d="M82 50q24 0 32 14t8 43v543h-87v50h266v-50h-47q-35 0 -35 -57v-373q0 -14 -0.5 -25.5t-1.5 -24.5t-2.5 -28.5t-2.5 -36.5h3q9 15 20 37t22 39l331 519h173v-50h-50q-37 0 -37 -57v-543h87v-50h-266v50h47q35 0 35 57v371q0 16 1.5 42.5t5.5 74.5h-3q-14 -26 -27.5 -52
t-24.5 -43l-321 -500h-173v50h47zM204 914h98v-19q0 -45 24 -65t72 -20t72 20t24 65v19h98v-9q0 -33 -14 -59t-39.5 -44t-61.5 -27.5t-79 -9.5t-79 9.5t-61.5 27.5t-39.5 44t-14 59v9z" />
    <glyph glyph-name="afii10028" unicode="&#x41a;" horiz-adv-x="722" 
d="M82 50q24 0 32 14t8 43v543h-87v50h265v-50h-28q-29 0 -41 -9t-12 -45v-200h99l158 197q15 20 15 34q0 10 -7 16.5t-23 6.5h-37v50h254v-50h-6q-39 0 -70.5 -19t-56.5 -49l-159 -198l234 -334h82v-50h-165l-232 342h-86v-292h82v-50h-266v50h47z" />
    <glyph glyph-name="afii10029" unicode="&#x41b;" horiz-adv-x="772" 
d="M37 88h72q27 0 46 17t33 58.5t25.5 112t23.5 178.5l13 115q1 7 1 12.5v10.5q0 37 -15 47.5t-40 10.5h-28v50h569v-50h-50q-37 0 -37 -57v-543h87v-50h-271v50h52q35 0 35 57v540h-170q-39 0 -50.5 -19t-14.5 -47l-16 -135q-17 -138 -35.5 -227t-43.5 -140t-57.5 -70.5
t-77.5 -19.5q-10 0 -23.5 2t-27.5 9v88z" />
    <glyph glyph-name="afii10030" unicode="&#x41c;" horiz-adv-x="922" 
d="M79 50q12 0 19 7.5t11 19.5t6 27t3 29l41 517h-87v50h196l159 -381q8 -20 13.5 -40.5t11.5 -40.5h5q5 20 12.5 41t15.5 40l164 381h203v-50h-55q-20 0 -26 -16t-6 -37v-10.5t1 -10.5l44 -526h87v-50h-277v50h52q20 0 25.5 14t5.5 34v14t-1 14l-29 352q-2 18 -2 48.5
t-2 54.5h-5l-183 -434h-71l-187 434h-5q0 -20 -1.5 -51t-3.5 -53l-26 -344q-1 -8 -1.5 -15.5t-0.5 -14.5q0 -24 8 -38.5t31 -14.5h46v-50h-245v50h54z" />
    <glyph glyph-name="afii10031" unicode="&#x41d;" horiz-adv-x="791" 
d="M82 50q24 0 32 14t8 43v543h-87v50h266v-50h-47q-35 0 -35 -57v-200h353v257h-82v50h266v-50h-50q-37 0 -37 -57v-543h87v-50h-266v50h47q35 0 35 57v232h-353v-289h82v-50h-266v50h47z" />
    <glyph glyph-name="afii10032" unicode="&#x41e;" horiz-adv-x="760" 
d="M45 350q0 81 23 147.5t66.5 114t105.5 73.5t140 26t140 -26t105.5 -73.5t66.5 -114t23 -147.5t-23.5 -147.5t-67 -114t-105.5 -73.5t-139 -26t-139 26t-105.5 73.5t-67 114t-23.5 147.5zM612 350q0 30 -4.5 64.5t-14.5 68.5t-27.5 66t-43 56t-61 38.5t-81.5 14.5
t-81.5 -14.5t-61 -38.5t-43 -56t-27.5 -66t-14.5 -68.5t-4.5 -64.5q0 -45 10 -99t36.5 -100.5t71.5 -77.5t114 -31t114 31t71.5 77.5t36.5 100.5t10 99z" />
    <glyph glyph-name="afii10033" unicode="&#x41f;" horiz-adv-x="785" 
d="M82 50q24 0 32 14t8 43v543h-87v50h715v-50h-50q-37 0 -37 -57v-543h87v-50h-266v50h47q35 0 35 57v540h-347v-597h82v-50h-266v50h47z" />
    <glyph glyph-name="afii10034" unicode="&#x420;" horiz-adv-x="632" 
d="M82 50q24 0 32 14t8 43v543h-87v50h314q42 0 87 -7t82 -28.5t60.5 -62t23.5 -106.5q0 -55 -20.5 -96t-56 -68.5t-83 -41t-101.5 -13.5h-122v-227h102v-50h-286v50h47zM339 331q20 0 47.5 8t53 27t43.5 50.5t18 78.5q0 45 -16 74.5t-40 47t-50.5 24t-47.5 6.5h-129v-316
h121z" />
    <glyph glyph-name="afii10035" unicode="&#x421;" horiz-adv-x="661" 
d="M45 345q0 84 22.5 151.5t66 115t105.5 73.5t142 26q65 0 124.5 -21t110.5 -68v-113h-87v14q0 45 -16 71.5t-39 41t-49.5 18.5t-48.5 4q-60 0 -103 -28.5t-70.5 -74t-41 -101t-13.5 -109.5q0 -62 13 -117t40 -96.5t69 -65.5t100 -24q22 0 49.5 3t52 15t41 35t16.5 62v17
h87v-106q-49 -38 -113.5 -58.5t-132.5 -20.5t-127.5 20t-103.5 62.5t-69 110t-25 163.5z" />
    <glyph glyph-name="afii10036" unicode="&#x422;" horiz-adv-x="653" 
d="M238 50q24 0 32 14t8 43v540h-90q-16 0 -31.5 -3.5t-28 -13.5t-20 -27t-7.5 -45v-45h-56v187h563v-187h-56v45q0 28 -7.5 45t-20 27t-28 13.5t-31.5 3.5h-90v-597h92v-50h-281v50h52z" />
    <glyph glyph-name="afii10037" unicode="&#x423;" horiz-adv-x="739" 
d="M173 88h86q31 0 53.5 20.5t41.5 63.5l13 29l-262 449h-80v50h278v-50h-31q-34 0 -34 -29q0 -19 14 -41l128 -222q8 -13 15 -28t15 -35h3q6 17 12 31.5t12 28.5l96 228q3 8 5 17.5t2 16.5q0 33 -41 33h-29v50h244v-50h-26q-26 0 -48.5 -16t-40.5 -59l-173 -403
q-23 -53 -46.5 -88.5t-48.5 -56.5t-51.5 -29.5t-54.5 -8.5q-13 0 -28 3t-24 8v88z" />
    <glyph glyph-name="afii10038" unicode="&#x424;" horiz-adv-x="800" 
d="M312 39q24 0 32 10.5t8 31.5v28q-68 0 -125 14.5t-98.5 45t-65 77t-23.5 109.5t25 109t68 76t99.5 44.5t119.5 14.5v62h-90v50h276v-50h-50q-24 0 -32 -10.5t-8 -31.5v-20q64 0 120.5 -14.5t99 -44.5t67.5 -76t25 -109t-23 -109.5t-64.5 -77t-99 -45t-125.5 -14.5v-70h90
v-50h-276v50h50zM354 550q-53 0 -92.5 -14.5t-65.5 -40.5t-39 -62t-13 -78t11 -78t35.5 -62.5t64.5 -41.5t99 -15v392zM656 355q0 42 -13 78t-39 62t-65.5 40.5t-92.5 14.5v-392q58 0 98.5 15t65 41.5t35.5 62.5t11 78z" />
    <glyph glyph-name="afii10039" unicode="&#x425;" horiz-adv-x="708" 
d="M37 50q34 0 57.5 19t44.5 51l162 246l-186 284h-78v50h283v-50h-38q-15 0 -22 -9t-7 -22q0 -10 3 -20.5t10 -19.5l67 -101q16 -24 29 -50h5q8 15 14 26.5t14 23.5l65 102q18 30 18 46q0 24 -31 24h-28v50h229v-50h-12q-34 0 -57.5 -19t-44.5 -51l-134 -202l205 -328h78
v-50h-285v50h40q15 0 22 9t7 22q0 19 -13 40l-84 138q-8 12 -15.5 25.5t-14.5 25.5h-5q-15 -27 -31 -51l-91 -139q-18 -28 -18 -46q0 -24 31 -24h29v-50h-230v50h12z" />
    <glyph glyph-name="afii10040" unicode="&#x426;" horiz-adv-x="791" 
d="M698 -103q0 33 -6.5 53t-18 31.5t-27.5 15t-36 3.5h-575v50h47q24 0 32 14t8 43v543h-87v50h266v-50h-47q-35 0 -35 -57v-540h330v597h-82v50h266v-50h-50q-37 0 -37 -57v-540h108v-207h-56v51v0z" />
    <glyph glyph-name="afii10041" unicode="&#x427;" horiz-adv-x="726" 
d="M472 50q35 0 35 57v203q-36 -21 -87.5 -34.5t-105.5 -13.5q-53 0 -90.5 14.5t-61 39.5t-34.5 59t-11 74v201h-87v50h265v-50h-47q-35 0 -35 -57v-142q0 -28 6 -52.5t20.5 -42.5t40 -28t64.5 -10q89 0 163 48v284h-82v50h266v-50h-50q-37 0 -37 -57v-543h87v-50h-276v50
h57z" />
    <glyph glyph-name="afii10042" unicode="&#x428;" horiz-adv-x="1042" 
d="M82 50q24 0 32 14t8 43v543h-87v50h260v-50h-41q-35 0 -35 -57v-540h254v597h-74v50h244v-50h-37q-37 0 -37 -57v-540h254v597h-76v50h260v-50h-50q-37 0 -37 -57v-543h87v-50h-972v50h47z" />
    <glyph glyph-name="afii10043" unicode="&#x429;" horiz-adv-x="1065" 
d="M972 -103q0 33 -6.5 53t-18 31.5t-27.5 15t-36 3.5h-849v50h47q24 0 32 14t8 43v543h-87v50h260v-50h-41q-35 0 -35 -57v-540h254v597h-74v50h244v-50h-37q-37 0 -37 -57v-540h254v597h-76v50h260v-50h-50q-37 0 -37 -57v-540h108v-207h-56v51v0z" />
    <glyph glyph-name="afii10044" unicode="&#x42a;" horiz-adv-x="801" 
d="M232 50q24 0 32 14t8 43v540h-84q-16 0 -31.5 -3.5t-28 -13.5t-20 -27t-7.5 -45v-45h-56v187h411v-50h-47q-24 0 -32 -14t-8 -43v-173h147q48 0 92.5 -9t78.5 -32t54 -62.5t20 -100.5q0 -60 -23 -101.5t-59.5 -67t-82 -36.5t-90.5 -11h-321v50h47zM500 53q25 0 53 9
t51 28.5t38.5 50t15.5 74.5q0 45 -15.5 74t-39 46.5t-52 24t-54.5 6.5h-129v-313h132z" />
    <glyph glyph-name="afii10045" unicode="&#x42b;" horiz-adv-x="956" 
d="M82 50q24 0 32 14t8 43v543h-87v50h271v-50h-47q-24 0 -32 -14t-8 -43v-173h137q48 0 92.5 -9t78.5 -32t54 -62.5t20 -100.5q0 -60 -23 -101.5t-59.5 -67t-82 -36.5t-90.5 -11h-311v50h47zM697 50q24 0 32 14t8 43v543h-87v50h271v-50h-47q-24 0 -32 -14t-8 -43v-543h87
v-50h-271v50h47zM340 53q25 0 53 9t51 28.5t38.5 50t15.5 74.5q0 45 -15.5 74t-39 46.5t-52 24t-54.5 6.5h-119v-313h122z" />
    <glyph glyph-name="afii10046" unicode="&#x42c;" horiz-adv-x="651" 
d="M82 50q24 0 32 14t8 43v543h-87v50h271v-50h-47q-24 0 -32 -14t-8 -43v-173h147q48 0 92.5 -9t78.5 -32t54 -62.5t20 -100.5q0 -60 -23 -101.5t-59.5 -67t-82 -36.5t-90.5 -11h-321v50h47zM350 53q25 0 53 9t51 28.5t38.5 50t15.5 74.5q0 45 -15.5 74t-39 46.5t-52 24
t-54.5 6.5h-129v-313h132z" />
    <glyph glyph-name="afii10047" unicode="&#x42d;" horiz-adv-x="673" 
d="M45 177h87v-17q0 -39 16 -62.5t40 -36t51.5 -16t50.5 -3.5q58 0 102 26.5t72.5 68.5t43 94t14.5 102h-288v54h288q0 51 -13.5 99.5t-41 87t-69.5 61.5t-98 23q-24 0 -52.5 -4t-53 -17.5t-41 -40t-16.5 -71.5v-14h-87v113q57 45 125 66t135 21q73 0 132 -23.5t100 -68
t63.5 -108.5t22.5 -145q0 -94 -27.5 -164.5t-74 -118t-108 -71t-129.5 -23.5q-79 0 -138 21.5t-106 60.5v106z" />
    <glyph glyph-name="afii10048" unicode="&#x42e;" horiz-adv-x="1075" 
d="M219 339v-289h82v-50h-266v50h47q24 0 32 14t8 43v543h-87v50h266v-50h-47q-35 0 -35 -57v-200h152q6 72 31 130.5t67 100.5t100.5 64.5t130.5 22.5q78 0 139 -26t103.5 -73.5t65 -114t22.5 -147.5t-22.5 -147.5t-65 -114t-104 -73.5t-138.5 -26q-76 0 -136.5 25t-103 71
t-66 110.5t-24.5 143.5h-151zM927 350q0 45 -9.5 98.5t-34.5 100t-69.5 78t-113.5 31.5t-113.5 -31.5t-69.5 -78t-34.5 -100t-9.5 -98.5t9.5 -99t34.5 -100.5t69.5 -77.5t113.5 -31t113.5 31t69.5 77.5t34.5 100.5t9.5 99z" />
    <glyph glyph-name="afii10049" unicode="&#x42f;" horiz-adv-x="725" 
d="M109 50l180 255q-36 6 -67 20.5t-53.5 38t-35 56t-12.5 74.5q0 66 25 106.5t63 62.5t81.5 29.5t81.5 7.5h318v-50h-50q-37 0 -37 -57v-543h87v-50h-271v50h52q35 0 35 57v188h-116l-204 -295h-159v50h82zM507 647h-121q-23 0 -51.5 -6t-53 -22.5t-41 -46.5t-16.5 -78
q0 -45 16.5 -73.5t41 -44.5t52.5 -22t50 -6h123v299z" />
    <glyph glyph-name="afii10065" unicode="&#x430;" horiz-adv-x="587" 
d="M55 129q0 48 21.5 78.5t56 47t77 22.5t84.5 6h95v45q0 63 -31.5 94t-77.5 31q-17 0 -34.5 -3.5t-31 -12t-22 -22.5t-8.5 -35v-32h-83v79q40 32 94 53t123 21q43 0 74 -12.5t51 -35.5t29.5 -55t9.5 -71v-282h80v-45h-172v89h-2q-14 -16 -33 -33.5t-43 -32.5t-52.5 -24.5
t-60.5 -9.5q-31 0 -57.5 10t-45.5 28t-30 44t-11 58zM389 236h-85q-24 0 -50.5 -3.5t-49 -14.5t-37 -30.5t-14.5 -50.5q0 -36 20.5 -56t67.5 -20q18 0 43.5 6t49 19.5t39.5 35t16 53.5v61z" />
    <glyph glyph-name="afii10066" unicode="&#x431;" horiz-adv-x="576" 
d="M40 273q0 107 21.5 176t57.5 111.5t83.5 64.5t99.5 36q53 14 86.5 24t54.5 19.5t34 22.5t26 33l25 -7q-8 -39 -21 -66t-37 -46.5t-61.5 -34t-93.5 -28.5q-52 -13 -92 -29.5t-68 -44t-44.5 -70t-21.5 -106.5h5q23 67 77.5 108t135.5 41q109 0 171.5 -65t62.5 -183
q0 -51 -18.5 -95t-51.5 -76t-78.5 -50.5t-99.5 -18.5q-62 0 -109.5 20.5t-79.5 58t-48 90t-16 115.5zM443 228q0 42 -8.5 78.5t-26.5 63t-46 41.5t-67 15q-37 0 -65 -17.5t-47.5 -46t-29.5 -65t-10 -73.5q0 -33 7 -66.5t24.5 -61t46 -45t72.5 -17.5q43 0 72 19t46.5 47.5
t24.5 63t7 64.5z" />
    <glyph glyph-name="afii10067" unicode="&#x432;" horiz-adv-x="549" 
d="M72 45q19 0 26 11.5t7 38.5v350h-70v45h301q85 0 124.5 -31.5t39.5 -88.5q0 -17 -5.5 -34.5t-17 -33t-30.5 -27t-46 -17.5v-2q56 -8 84.5 -37.5t28.5 -79.5q0 -25 -9.5 -50t-30.5 -44.5t-55.5 -32t-84.5 -12.5h-299v45h37zM304 45q56 0 84 24.5t28 69.5q0 25 -9 42.5
t-24 28.5t-35.5 16t-43.5 5h-107v-186h107zM304 275q45 0 71.5 22.5t26.5 68.5q0 32 -22.5 55.5t-77.5 23.5h-105v-170h107z" />
    <glyph glyph-name="afii10068" unicode="&#x433;" horiz-adv-x="469" 
d="M72 45q19 0 26 11.5t7 38.5v350h-70v45h399v-150h-50v37q0 35 -21 51.5t-53 16.5h-112v-400h77v-45h-240v45h37z" />
    <glyph glyph-name="afii10069" unicode="&#x434;" horiz-adv-x="632" 
d="M81 45q17 22 31 47t25.5 56t20.5 69t16 87l13 89q1 5 1 8.5v8.5q0 15 -8 25t-31 10h-27v45h449v-45h-37q-19 0 -26 -11.5t-7 -38.5v-350h96v-172h-50v48q0 43 -20 61t-58 18h-316q-38 0 -58 -18t-20 -61v-48h-50v172h56zM408 445h-111q-28 0 -37.5 -15t-12.5 -34l-15 -92
q-15 -92 -35.5 -154t-50.5 -105h262v400z" />
    <glyph glyph-name="afii10070" unicode="&#x435;" horiz-adv-x="520" 
d="M35 242q0 60 18.5 107.5t51 81.5t75.5 52t93 18q60 0 101 -18.5t65.5 -49t35 -69.5t10.5 -79v-43h-352q0 -30 7 -65t24.5 -65t48 -50t77.5 -20q43 0 82.5 17t74.5 58l33 -33q-38 -45 -89.5 -70t-115.5 -25q-45 0 -88 14t-77 44.5t-54.5 78.5t-20.5 116zM390 290
q-1 78 -30 122t-87 44q-24 0 -47.5 -11t-42 -32t-31.5 -52t-16 -71h254z" />
    <glyph glyph-name="afii10072" unicode="&#x436;" horiz-adv-x="856" 
d="M92 45l143 217l-83 126q-11 17 -25 28t-29 17.5t-29 9t-26 2.5h-6v45h208v-45h-31q-18 0 -18 -13q0 -11 12 -27l92 -134h82v174h-61v45h214v-45h-28q-19 0 -26 -11.5t-7 -38.5v-124h82l92 134q12 16 12 27q0 13 -18 13h-31v45h208v-45h-6q-12 0 -26 -2.5t-29 -9
t-29 -17.5t-25 -28l-83 -126l143 -217h67v-45h-144l-145 227h-68v-182h61v-45h-214v45h28q19 0 26 11.5t7 38.5v132h-68l-145 -227h-144v45h67z" />
    <glyph glyph-name="afii10073" unicode="&#x437;" horiz-adv-x="494" 
d="M35 141h79v-18q0 -43 28.5 -66t93.5 -23q53 0 89 25.5t36 77.5q0 14 -4 30t-15 29.5t-30.5 22.5t-49.5 9h-91v48h83q51 0 71.5 25t20.5 64q0 41 -28.5 66t-79.5 25q-113 0 -113 -90v-15h-79v84q11 11 32 23t48 21.5t57.5 15.5t60.5 6q105 0 152.5 -37t47.5 -91
q0 -17 -4.5 -34t-16.5 -32.5t-32 -28t-51 -20.5v-2q34 -4 57 -15t36.5 -26.5t19.5 -34.5t6 -40q0 -35 -18 -63t-49 -47.5t-71.5 -30t-86.5 -10.5q-59 0 -111.5 18t-87.5 47v87z" />
    <glyph glyph-name="afii10074" unicode="&#x438;" horiz-adv-x="649" 
d="M72 45q19 0 26 11.5t7 38.5v350h-70v45h229v-45h-33q-19 0 -26 -11.5t-7 -38.5v-217q0 -17 -1.5 -41t-3.5 -41h3q9 14 16 26.5t14 21.5l237 346h151v-45h-37q-19 0 -26 -11.5t-7 -38.5v-350h70v-45h-229v45h34q17 0 24.5 11.5t7.5 38.5v217q0 17 1.5 41t3.5 41h-3
q-9 -14 -16 -26.5t-14 -21.5l-237 -346h-151v45h37z" />
    <glyph glyph-name="afii10075" unicode="&#x439;" horiz-adv-x="649" 
d="M72 45q19 0 26 11.5t7 38.5v350h-70v45h229v-45h-33q-19 0 -26 -11.5t-7 -38.5v-217q0 -17 -1.5 -41t-3.5 -41h3q9 14 16 26.5t14 21.5l237 346h151v-45h-37q-19 0 -26 -11.5t-7 -38.5v-350h70v-45h-229v45h34q17 0 24.5 11.5t7.5 38.5v217q0 17 1.5 41t3.5 41h-3
q-9 -14 -16 -26.5t-14 -21.5l-237 -346h-151v45h37zM153 688h94v-22q0 -36 19 -52t58 -16q40 0 59 16t19 52v22h94v-10q0 -60 -44.5 -91.5t-127.5 -31.5q-82 0 -126.5 31.5t-44.5 91.5v10z" />
    <glyph glyph-name="afii10076" unicode="&#x43a;" horiz-adv-x="595" 
d="M72 45q19 0 26 11.5t7 38.5v350h-70v45h229v-45h-33q-19 0 -26 -11.5t-7 -38.5v-115h74l118 130q13 13 13 22q0 13 -18 13h-34v45h218v-45h-6q-23 0 -57.5 -14.5t-63.5 -46.5l-108 -118l174 -221h67v-45h-145l-175 232h-57v-187h66v-45h-229v45h37z" />
    <glyph glyph-name="afii10077" unicode="&#x43b;" horiz-adv-x="632" 
d="M30 70h58q23 0 39.5 16t29.5 46t22 73.5t17 98.5l13 89q1 5 1 8.5v8.5q0 15 -8 25t-31 10h-27v45h453v-45h-37q-19 0 -26 -11.5t-7 -38.5v-350h70v-45h-234v45h39q17 0 24.5 11.5t7.5 38.5v350h-115q-28 0 -37.5 -15t-12.5 -34l-15 -95q-11 -66 -22.5 -123t-31.5 -99
t-50.5 -66t-78.5 -24q-20 0 -41 9v72z" />
    <glyph glyph-name="afii10078" unicode="&#x43c;" horiz-adv-x="743" 
d="M60 45q20 0 29.5 12.5t11.5 37.5l30 350h-66v45h175l108 -249q5 -11 9 -26t9 -29h3q5 16 11 30.5t11 26.5l111 247h182v-45h-25q-26 0 -36 -10.5t-10 -34.5v-7.5t1 -8.5l29 -339h70v-45h-229v45h28q17 0 25.5 7.5t8.5 30.5q0 3 -0.5 8t-0.5 7l-18 204q-1 8 -1.5 21t-1 27
t-0.5 26.5v20.5h-5l-130 -292h-70l-128 293h-5q-1 -14 -1.5 -39.5t-2.5 -43.5l-20 -220q0 -2 -0.5 -6.5t-0.5 -7.5q0 -15 6.5 -25.5t29.5 -10.5h27v-45h-194v45h30z" />
    <glyph glyph-name="afii10079" unicode="&#x43d;" horiz-adv-x="646" 
d="M72 45q19 0 26 11.5t7 38.5v350h-70v45h229v-45h-33q-19 0 -26 -11.5t-7 -38.5v-120h250v170h-66v45h229v-45h-37q-19 0 -26 -11.5t-7 -38.5v-350h70v-45h-229v45h34q17 0 24.5 11.5t7.5 38.5v132h-250v-182h66v-45h-229v45h37z" />
    <glyph glyph-name="afii10080" unicode="&#x43e;" horiz-adv-x="572" 
d="M35 244q0 61 19 109t53 81t80 50t99 17q54 0 99.5 -17t79.5 -50t53 -81t19 -109t-19 -108.5t-53 -80t-79.5 -49.5t-99.5 -17q-53 0 -99 17t-80 49.5t-53 80t-19 108.5zM439 244q0 15 -2 36.5t-8 45t-16.5 47t-27.5 42t-41.5 30t-57.5 11.5t-57.5 -11.5t-41.5 -30
t-27.5 -42t-16.5 -47t-8 -45t-2 -36.5q0 -22 5 -57.5t21 -69.5t46.5 -58.5t80.5 -24.5t80.5 24.5t46.5 58.5t21 69.5t5 57.5z" />
    <glyph glyph-name="afii10081" unicode="&#x43f;" horiz-adv-x="640" 
d="M72 45q19 0 26 11.5t7 38.5v350h-70v45h570v-45h-37q-19 0 -26 -11.5t-7 -38.5v-350h70v-45h-229v45h34q17 0 24.5 11.5t7.5 38.5v350h-244v-400h66v-45h-229v45h37z" />
    <glyph glyph-name="afii10082" unicode="&#x440;" horiz-adv-x="613" 
d="M72 -205q19 0 26 11.5t7 38.5v600h-80v45h172v-94h2q13 19 31 38t41 34t51.5 24t61.5 9q49 0 85 -18t59.5 -50.5t35 -76.5t11.5 -96q0 -61 -16.5 -111t-46.5 -85.5t-72 -55t-93 -19.5q-48 0 -83.5 17t-65.5 43h-2q1 -14 1.5 -29.5t0.5 -23.5v-201h82v-45h-245v45h37z
M477 250q0 30 -5 62t-19.5 58t-39.5 42.5t-64 16.5q-22 0 -48.5 -7.5t-49.5 -22.5t-38.5 -38t-15.5 -54v-203q10 -9 21.5 -18.5t27.5 -17t36 -12t46 -4.5q67 0 108 49t41 149z" />
    <glyph glyph-name="afii10083" unicode="&#x441;" horiz-adv-x="492" 
d="M35 238q0 68 19.5 117.5t53 82t77.5 48t93 15.5q32 0 59 -6.5t49 -17t38 -23.5t26 -25v-87h-79v13q0 31 -9 50.5t-23 31t-31.5 15.5t-34.5 4q-39 0 -66 -18t-43.5 -48t-23.5 -69.5t-7 -81.5q0 -39 8 -74.5t26.5 -62.5t47.5 -43.5t71 -16.5q48 0 80.5 20t61.5 53l34 -32
q-14 -17 -32.5 -34t-42.5 -30.5t-53.5 -21.5t-63.5 -8q-45 0 -87.5 14.5t-75 44.5t-52.5 77t-20 113z" />
    <glyph glyph-name="afii10084" unicode="&#x442;" horiz-adv-x="519" 
d="M180 45q19 0 26 11.5t7 38.5v350h-61q-28 0 -47.5 -16.5t-19.5 -51.5v-39h-50v152h449v-152h-50v39q0 35 -19.5 51.5t-47.5 16.5h-61v-400h73v-45h-239v45h40z" />
    <glyph glyph-name="afii10085" unicode="&#x443;" horiz-adv-x="629" 
d="M105 -180h71q12 0 25 3t25.5 12.5t25 28t24.5 49.5l28 74l-215 458h-69v45h241v-45h-24q-30 0 -30 -23q0 -11 10 -34l102 -224q7 -15 14 -37t11 -37h5q3 12 8 29.5t13 40.5l84 230q5 11 6 19t1 14q0 12 -7 17t-17 5h-34v45h206v-45h-18q-29 0 -46.5 -18t-25.5 -38
l-173 -461q-21 -57 -42.5 -94t-45 -58t-49 -29t-55.5 -8q-16 0 -28.5 3t-20.5 7v71z" />
    <glyph glyph-name="afii10086" unicode="&#x444;" horiz-adv-x="686" 
d="M264 -205q19 0 26 11.5t7 38.5v145q-41 0 -87 12.5t-85 42t-64.5 78t-25.5 122.5q0 75 25.5 124t64.5 78t85 41.5t87 12.5v194h-80v45h172v-239q40 0 86 -12.5t85 -41.5t65 -78t26 -124q0 -74 -25.5 -122.5t-64 -78t-84.5 -42t-88 -12.5v-195h72v-45h-236v45h39zM298 456
q-50 -1 -82 -23.5t-50 -55t-25 -69t-7 -64.5q0 -29 6.5 -64.5t24.5 -67.5t50 -54t83 -23v421zM552 244q0 28 -7 64.5t-25 69t-50 55t-82 23.5v-421q51 1 83 23t50 54t24.5 67.5t6.5 64.5z" />
    <glyph glyph-name="afii10087" unicode="&#x445;" horiz-adv-x="596" 
d="M42 45q43 0 90 60l114 144l-146 196h-60v45h236v-45h-26q-22 0 -22 -21q0 -16 14 -35l43 -58q5 -7 11 -15.5t11 -16.5h3q5 8 10.5 16t10.5 15l54 70q11 14 11 26q0 19 -23 19h-27v45h201v-45h-12q-44 0 -90 -60l-99 -128l160 -212h60v-45h-238v45h23q25 0 25 22
q0 14 -13 32l-54 73q-7 8 -13 17.5t-11 17.5h-2q-7 -10 -12.5 -18t-12.5 -16l-66 -83q-11 -14 -11 -26q0 -19 23 -19h27v-45h-201v45h12z" />
    <glyph glyph-name="afii10088" unicode="&#x446;" horiz-adv-x="652" 
d="M567 -79q0 43 -20 61t-58 18h-454v45h37q19 0 26 11.5t7 38.5v350h-70v45h229v-45h-33q-19 0 -26 -11.5t-7 -38.5v-350h230v400h-66v45h229v-45h-37q-19 0 -26 -11.5t-7 -38.5v-350h96v-172h-50v48v0z" />
    <glyph glyph-name="afii10089" unicode="&#x447;" horiz-adv-x="591" 
d="M361 45q17 0 24.5 11.5t7.5 38.5v145h-2q-26 -33 -67.5 -55t-89.5 -22q-43 0 -71 13t-44 34.5t-22.5 50.5t-6.5 62v122h-70v45h228v-45h-33q-19 0 -26 -11.5t-7 -38.5v-78q0 -44 20 -67.5t60 -23.5q24 0 47.5 6t42 18t30 30t11.5 42v123h-66v45h229v-45h-37
q-19 0 -26 -11.5t-7 -38.5v-350h70v-45h-239v45h44z" />
    <glyph glyph-name="afii10090" unicode="&#x448;" horiz-adv-x="866" 
d="M72 45q19 0 26 11.5t7 38.5v350h-70v45h222v-45h-26q-19 0 -26 -11.5t-7 -38.5v-350h189v400h-59v45h210v-45h-26q-19 0 -26 -11.5t-7 -38.5v-350h189v400h-59v45h222v-45h-37q-19 0 -26 -11.5t-7 -38.5v-350h70v-45h-796v45h37z" />
    <glyph glyph-name="afii10091" unicode="&#x449;" horiz-adv-x="892" 
d="M807 -79q0 43 -20 61t-58 18h-694v45h37q19 0 26 11.5t7 38.5v350h-70v45h222v-45h-26q-19 0 -26 -11.5t-7 -38.5v-350h189v400h-59v45h210v-45h-26q-19 0 -26 -11.5t-7 -38.5v-350h189v400h-59v45h222v-45h-37q-19 0 -26 -11.5t-7 -38.5v-350h96v-172h-50v48v0z" />
    <glyph glyph-name="afii10092" unicode="&#x44a;" horiz-adv-x="644" 
d="M180 45q19 0 26 11.5t7 38.5v350h-61q-28 0 -47.5 -16.5t-19.5 -51.5v-39h-50v152h341v-45h-37q-19 0 -26 -11.5t-7 -38.5v-87h115q35 0 69 -6.5t60.5 -23.5t42.5 -46t16 -75q0 -40 -15.5 -69.5t-42.5 -49t-62 -29t-74 -9.5h-272v45h37zM393 45q23 0 44 6.5t37.5 20
t26.5 34.5t10 50t-10 49.5t-26.5 33t-37.5 18.5t-43 6h-89v-218h88z" />
    <glyph glyph-name="afii10093" unicode="&#x44b;" horiz-adv-x="783" 
d="M72 45q19 0 26 11.5t7 38.5v350h-70v45h233v-45h-37q-19 0 -26 -11.5t-7 -38.5v-87h103q35 0 68.5 -6.5t60 -23.5t42.5 -46t16 -75q0 -40 -15.5 -69.5t-42 -49t-61.5 -29t-74 -9.5h-260v45h37zM553 45q17 0 24.5 11.5t7.5 38.5v350h-70v45h233v-45h-37q-19 0 -26 -11.5
t-7 -38.5v-350h70v-45h-233v45h38zM273 45q23 0 44 6.5t37.5 20t26.5 34.5t10 50t-10 49.5t-26.5 33t-37.5 18.5t-43 6h-77v-218h76z" />
    <glyph glyph-name="afii10094" unicode="&#x44c;" horiz-adv-x="536" 
d="M72 45q19 0 26 11.5t7 38.5v350h-70v45h233v-45h-37q-19 0 -26 -11.5t-7 -38.5v-87h115q35 0 69 -6.5t60.5 -23.5t42.5 -46t16 -75q0 -40 -15.5 -69.5t-42.5 -49t-62 -29t-74 -9.5h-272v45h37zM285 45q23 0 44 6.5t37.5 20t26.5 34.5t10 50t-10 49.5t-26.5 33t-37.5 18.5
t-43 6h-89v-218h88z" />
    <glyph glyph-name="afii10095" unicode="&#x44d;" horiz-adv-x="508" 
d="M35 137h79v-18q0 -46 29.5 -65.5t77.5 -19.5q40 0 69 16.5t47.5 43.5t27.5 62t9 71h-191v48h189q0 27 -6.5 58.5t-22.5 59t-43.5 45.5t-70.5 18q-22 0 -41.5 -5.5t-34.5 -16.5t-23.5 -29t-8.5 -43v-15h-79v84q9 10 27 22.5t43.5 23t57.5 17.5t68 7q59 0 103 -18
t73.5 -50.5t44 -78.5t14.5 -103q0 -60 -18 -108.5t-51 -82.5t-80 -52.5t-106 -18.5q-58 0 -104.5 17.5t-78.5 43.5v87z" />
    <glyph glyph-name="afii10096" unicode="&#x44e;" horiz-adv-x="832" 
d="M198 227v-182h66v-45h-229v45h37q19 0 26 11.5t7 38.5v350h-70v45h229v-45h-33q-19 0 -26 -11.5t-7 -38.5v-120h110q4 54 24 96t52.5 71t75 44t92.5 15q54 0 99 -17t77.5 -50t50.5 -81t18 -109t-18 -108.5t-50.5 -80t-77.5 -49.5t-99 -17q-51 0 -95 15.5t-76.5 46
t-51.5 75t-22 101.5h-109zM699 244q0 15 -1.5 36.5t-7 45t-15 47t-26 42t-40.5 30t-57 11.5q-34 0 -57.5 -11.5t-40 -30t-26.5 -42t-15 -47t-6.5 -45t-1.5 -36.5q0 -22 4 -57.5t19 -69.5t44.5 -58.5t79.5 -24.5t79.5 24.5t44.5 58.5t19 69.5t4 57.5z" />
    <glyph glyph-name="afii10097" unicode="&#x44f;" horiz-adv-x="596" 
d="M92 45l125 158q-39 7 -64 22t-39.5 33.5t-20 39.5t-5.5 41q0 72 48 111.5t128 39.5h297v-45h-37q-19 0 -26 -11.5t-7 -38.5v-350h70v-45h-229v45h34q17 0 24.5 11.5t7.5 38.5v102h-81l-148 -197h-144v45h67zM400 445h-105q-50 0 -79.5 -26t-29.5 -79q0 -29 9 -47.5
t24.5 -30t36 -16t44.5 -4.5h100v203z" />
    <glyph glyph-name="afii10071" unicode="&#x451;" horiz-adv-x="520" 
d="M35 242q0 60 18.5 107.5t51 81.5t75.5 52t93 18q60 0 101 -18.5t65.5 -49t35 -69.5t10.5 -79v-43h-352q0 -30 7 -65t24.5 -65t48 -50t77.5 -20q43 0 82.5 17t74.5 58l33 -33q-38 -45 -89.5 -70t-115.5 -25q-45 0 -88 14t-77 44.5t-54.5 78.5t-20.5 116zM121 630
q0 23 16.5 39.5t39.5 16.5t39.5 -16.5t16.5 -39.5t-16.5 -39.5t-39.5 -16.5t-39.5 16.5t-16.5 39.5zM313 630q0 23 16.5 39.5t37.5 16.5q24 0 41 -16.5t17 -39.5t-17 -39.5t-41 -16.5q-21 0 -37.5 16.5t-16.5 39.5zM390 290q-1 78 -30 122t-87 44q-24 0 -47.5 -11t-42 -32
t-31.5 -52t-16 -71h254z" />
    <glyph glyph-name="afii10099" unicode="&#x452;" horiz-adv-x="633" 
d="M360 -206q32 4 51 17.5t28.5 38t12.5 60.5t3 84v317q0 23 -4 42.5t-13.5 34t-26.5 22.5t-43 8q-24 0 -52 -8t-52 -24t-40 -39.5t-16 -54.5v-247h66v-45h-229v45h37q19 0 26 11.5t7 38.5v466h-120v45h120v89h-80v45h173v-134h212v-45h-212v-93q0 -13 -0.5 -39.5
t-0.5 -48.5h2q16 22 37.5 42t47 35t54.5 24t59 9q37 0 63.5 -11.5t43.5 -32t25.5 -49t8.5 -62.5v-378q0 -45 -9.5 -82.5t-31.5 -65.5t-58 -46t-89 -24v55v0z" />
    <glyph glyph-name="afii10100" unicode="&#x453;" horiz-adv-x="469" 
d="M72 45q19 0 26 11.5t7 38.5v350h-70v45h399v-150h-50v37q0 35 -21 51.5t-53 16.5h-112v-400h77v-45h-240v45h37zM408 702l-134 -138h-52l78 138h108z" />
    <glyph glyph-name="afii10101" unicode="&#x454;" horiz-adv-x="492" 
d="M35 238q0 68 19.5 117.5t53 82t77.5 48t93 15.5q32 0 59 -6.5t49 -17t38 -23.5t26 -25v-82h-79v8q0 31 -9 50.5t-23 31t-31.5 15.5t-34.5 4q-36 0 -61.5 -15t-42 -40.5t-25 -59.5t-10.5 -71h201v-48h-202q2 -36 11 -68.5t27.5 -57.5t46.5 -39.5t68 -14.5q48 0 80.5 20
t61.5 53l34 -32q-14 -17 -32.5 -34t-42.5 -30.5t-53.5 -21.5t-63.5 -8q-45 0 -87.5 14.5t-75 44.5t-52.5 77t-20 113z" />
    <glyph glyph-name="afii10102" unicode="&#x455;" horiz-adv-x="493" 
d="M45 134h76v-11q0 -24 10.5 -41t28 -27.5t41 -15.5t49.5 -5q31 0 53 7t36 18.5t20.5 25.5t6.5 29q0 32 -24 52t-87 38l-59 17q-40 12 -66.5 26t-42.5 31.5t-23 39.5t-7 49q0 28 12 52.5t35.5 42.5t58.5 28.5t81 10.5q34 0 63 -6.5t51.5 -16t39 -20t24.5 -18.5v-76h-76v11
q0 22 -9 37t-24 25t-35.5 14.5t-44.5 4.5q-29 0 -47 -8t-29 -19.5t-15 -25t-4 -25.5q0 -30 22 -49.5t70 -33.5l62 -18q48 -14 78.5 -28.5t48 -32t23.5 -39t6 -48.5t-13.5 -52.5t-39.5 -45t-63.5 -31t-84.5 -11.5q-69 0 -121 22t-81 47v76z" />
    <glyph glyph-name="afii10103" unicode="&#x456;" horiz-adv-x="298" 
d="M77 45q19 0 26 11.5t7 38.5v350h-80v45h173v-445h70v-45h-233v45h37zM88 634q0 26 18 44t42 18q26 0 44 -18t18 -44q0 -24 -18 -42t-44 -18q-24 0 -42 18t-18 42z" />
    <glyph glyph-name="afii10104" unicode="&#x457;" horiz-adv-x="298" 
d="M77 45q19 0 26 11.5t7 38.5v350h-80v45h173v-445h70v-45h-233v45h37zM-15 628q0 22 16 38t38 16t38.5 -16t16.5 -38t-16.5 -38t-38.5 -16t-38 16t-16 38zM164 628q0 22 16 38t37 16q23 0 39.5 -16t16.5 -38t-16.5 -38t-39.5 -16q-21 0 -37 16t-16 38z" />
    <glyph glyph-name="afii10105" unicode="&#x458;" horiz-adv-x="290" 
d="M15 -206q32 4 51 17.5t28.5 38t12.5 60.5t3 84v451h-80v45h173v-533q0 -45 -9.5 -82.5t-31.5 -65.5t-58 -46t-89 -24v55zM88 634q0 26 18 44t42 18q26 0 44 -18t18 -44q0 -24 -18 -42t-44 -18q-24 0 -42 18t-18 42z" />
    <glyph glyph-name="afii10106" unicode="&#x459;" horiz-adv-x="865" 
d="M30 70h58q23 0 39.5 16t29.5 46t22 73.5t17 98.5l13 89q1 5 1 8.5v8.5q0 15 -8 25t-31 10h-27v45h453v-45h-37q-19 0 -26 -11.5t-7 -38.5v-87h115q35 0 69 -6.5t60.5 -23.5t42.5 -46t16 -75q0 -40 -15.5 -69.5t-42.5 -49t-62 -29t-74 -9.5h-272v45h37q19 0 26 11.5
t7 38.5v350h-115q-28 0 -37.5 -15t-12.5 -34l-15 -95q-11 -66 -22.5 -123t-31.5 -99t-50.5 -66t-78.5 -24q-20 0 -41 9v72zM614 45q23 0 44 6.5t37.5 20t26.5 34.5t10 50t-10 49.5t-26.5 33t-37.5 18.5t-43 6h-89v-218h88z" />
    <glyph glyph-name="afii10107" unicode="&#x45a;" horiz-adv-x="879" 
d="M72 45q19 0 26 11.5t7 38.5v350h-70v45h229v-45h-33q-19 0 -26 -11.5t-7 -38.5v-120h250v170h-70v45h233v-45h-37q-19 0 -26 -11.5t-7 -38.5v-87h115q35 0 69 -6.5t60.5 -23.5t42.5 -46t16 -75q0 -40 -15.5 -69.5t-42.5 -49t-62 -29t-74 -9.5h-272v45h37q19 0 26 11.5
t7 38.5v132h-250v-182h66v-45h-229v45h37zM628 45q23 0 44 6.5t37.5 20t26.5 34.5t10 50t-10 49.5t-26.5 33t-37.5 18.5t-43 6h-89v-218h88z" />
    <glyph glyph-name="afii10108" unicode="&#x45b;" horiz-adv-x="643" 
d="M82 45q19 0 26 11.5t7 38.5v466h-120v45h120v89h-80v45h173v-134h212v-45h-212v-93q0 -13 -0.5 -39.5t-0.5 -48.5h2q16 22 37.5 42t47 35t54.5 24t59 9q37 0 63.5 -11.5t43.5 -32t25.5 -49t8.5 -62.5v-290h70v-45h-229v45h34q17 0 24.5 11.5t7.5 38.5v216q0 23 -4 42.5
t-13.5 34t-26.5 22.5t-43 8q-24 0 -52 -8t-52 -24t-40 -39.5t-16 -54.5v-247h66v-45h-229v45h37z" />
    <glyph glyph-name="afii10109" unicode="&#x45c;" horiz-adv-x="595" 
d="M72 45q19 0 26 11.5t7 38.5v350h-70v45h229v-45h-33q-19 0 -26 -11.5t-7 -38.5v-115h74l118 130q13 13 13 22q0 13 -18 13h-34v45h218v-45h-6q-23 0 -57.5 -14.5t-63.5 -46.5l-108 -118l174 -221h67v-45h-145l-175 232h-57v-187h66v-45h-229v45h37zM451 702l-134 -138
h-52l78 138h108z" />
    <glyph glyph-name="afii10110" unicode="&#x45e;" horiz-adv-x="629" 
d="M105 -180h71q12 0 25 3t25.5 12.5t25 28t24.5 49.5l28 74l-215 458h-69v45h241v-45h-24q-30 0 -30 -23q0 -11 10 -34l102 -224q7 -15 14 -37t11 -37h5q3 12 8 29.5t13 40.5l84 230q5 11 6 19t1 14q0 12 -7 17t-17 5h-34v45h206v-45h-18q-29 0 -46.5 -18t-25.5 -38
l-173 -461q-21 -57 -42.5 -94t-45 -58t-49 -29t-55.5 -8q-16 0 -28.5 3t-20.5 7v71zM154 688h94v-22q0 -36 19 -52t58 -16q40 0 59 16t19 52v22h94v-10q0 -60 -44.5 -91.5t-127.5 -31.5q-82 0 -126.5 31.5t-44.5 91.5v10z" />
    <glyph glyph-name="afii10193" unicode="&#x45f;" horiz-adv-x="640" 
d="M292 -78q0 40 -13 59t-49 19h-195v45h37q19 0 26 11.5t7 38.5v350h-70v45h229v-45h-34q-17 0 -24.5 -11.5t-7.5 -38.5v-350h244v400h-66v45h229v-45h-37q-19 0 -26 -11.5t-7 -38.5v-350h70v-45h-195q-36 0 -49 -19t-13 -59v-77h-56v77v0z" />
    <glyph glyph-name="afii10146" unicode="&#x462;" horiz-adv-x="783" 
d="M214 50q24 0 32 14t8 43v415h-71q-16 0 -31 -1t-26 -8t-18 -22t-7 -43v-30h-56v157h209v86h-87v50h271v-50h-47q-24 0 -32 -14t-8 -43v-29h257v-145h-56v28q0 22 -6 35t-16.5 19.5t-25 8t-30.5 1.5h-123v-152h147q48 0 92.5 -5.5t78.5 -24.5t54 -54.5t20 -96.5
q0 -60 -23 -97t-59.5 -57.5t-82 -27.5t-90.5 -7h-321v50h47zM481 53q25 0 53 4.5t51 19t38.5 41t15.5 70.5q0 45 -15.5 71t-39 38.5t-52 16t-54.5 3.5h-128v-264h131z" />
    <glyph glyph-name="afii10194" unicode="&#x463;" horiz-adv-x="644" 
d="M180 45q19 0 26 11.5t7 38.5v350h-61q-28 0 -47.5 -16.5t-19.5 -51.5v-27h-50v140h178v205h-80v45h173v-250h200v-132h-50v29q0 35 -19.5 46.5t-47.5 11.5h-83v-153h115q35 0 69 -5t60.5 -20.5t42.5 -43.5t16 -74q0 -40 -15.5 -68t-42.5 -46t-62 -26.5t-74 -8.5h-272v45
h37zM393 45q23 0 44 5.5t37.5 17.5t26.5 31.5t10 48.5t-10 48t-26.5 30.5t-37.5 16t-43 4.5h-89v-202h88z" />
    <glyph glyph-name="afii10147" unicode="&#x472;" horiz-adv-x="760" 
d="M45 350q0 81 23 147.5t66.5 114t105.5 73.5t140 26t140 -26t105.5 -73.5t66.5 -114t23 -147.5t-23.5 -147.5t-67 -114t-105.5 -73.5t-139 -26t-139 26t-105.5 73.5t-67 114t-23.5 147.5zM149 324q2 -45 14.5 -94.5t39 -91.5t69.5 -69t108 -27q64 0 107.5 27t70 69
t38.5 91.5t15 94.5h-462zM611 378q-3 45 -15 94t-39 90.5t-70 68.5t-107 27q-65 0 -108 -27t-69.5 -68.5t-38.5 -90.5t-15 -94h462z" />
    <glyph glyph-name="afii10195" unicode="&#x473;" horiz-adv-x="572" 
d="M35 244q0 61 19 109t53 81t80 50t99 17q54 0 99.5 -17t79.5 -50t53 -81t19 -109t-19 -108.5t-53 -80t-79.5 -49.5t-99.5 -17q-53 0 -99 17t-80 49.5t-53 80t-19 108.5zM133 222q2 -26 9 -58.5t24 -61t46 -48.5t74 -20t73.5 20t45.5 48.5t24 61t9 58.5h-305zM438 270
q-2 26 -9.5 58t-24.5 60.5t-45.5 48t-72.5 19.5t-72.5 -19.5t-45.5 -48t-24.5 -60.5t-9.5 -58h304z" />
    <glyph glyph-name="afii10148" unicode="&#x474;" horiz-adv-x="816" 
d="M25 650v50h279v-50h-42q-17 0 -24 -11.5t-7 -25.5q0 -8 2 -15.5t4 -14.5l147 -417q5 -14 12.5 -38.5t12.5 -42.5h5q6 18 14 41.5t13 37.5l137 368q19 51 36.5 85t37 55t42.5 30t53 9q13 0 20.5 -0.5t18.5 -2.5v-95h-59q-19 0 -40 -16t-41 -69l-199 -528h-97l-245 650h-80
z" />
    <glyph glyph-name="afii10196" unicode="&#x475;" horiz-adv-x="637" 
d="M20 445v45h241v-45h-24q-17 0 -23.5 -8.5t-6.5 -20.5q0 -14 5 -27l83 -240q5 -15 11.5 -36.5t8.5 -33.5h5q5 15 10 31t14 39l67 183q15 40 29.5 71.5t32 53t41 33t56.5 11.5q9 0 19 -1.5t18 -4.5v-74h-53q-15 0 -26.5 -5.5t-21 -17.5t-18.5 -30.5t-19 -45.5l-128 -325
h-77l-175 448h-69z" />
    <glyph glyph-name="afii10050" unicode="&#x490;" horiz-adv-x="577" 
d="M82 50q24 0 32 14t8 43v543h-87v50h376q16 0 29 4t22 14t14 27.5t5 45.5v49h56v-193h-318v-597h92v-50h-276v50h47z" />
    <glyph glyph-name="afii10098" unicode="&#x491;" horiz-adv-x="454" 
d="M72 45q19 0 26 11.5t7 38.5v350h-70v45h270q32 0 48 14t16 49v50h50v-158h-221v-400h77v-45h-240v45h37z" />
    <glyph glyph-name="Germandbls" unicode="&#x1e9e;" horiz-adv-x="687" 
d="M351 49q97 0 142.5 42.5t45.5 111.5q0 22 -4.5 45.5t-19.5 43t-42.5 31.5t-72.5 12h-64v44l175 135q0 25 -8.5 50.5t-25.5 46.5t-42.5 34t-59.5 13q-45 0 -75 -17.5t-48 -45.5t-25.5 -63.5t-7.5 -71.5v-460h-184v50h47q24 0 32 14t8 43v349q0 121 65 188t190 67
q100 0 162.5 -47.5t76.5 -145.5l-185 -132v-2q64 0 105.5 -17.5t64.5 -43.5t32 -58t9 -62q0 -51 -24 -90.5t-64 -67t-93 -42t-110 -14.5v60v0z" />
    <glyph glyph-name="uni2010" unicode="&#x2010;" horiz-adv-x="487" 
d="M397 302v-72h-307v72h307z" />
    <glyph glyph-name="uni2011" unicode="&#x2011;" horiz-adv-x="487" 
d="M397 302v-72h-307v72h307z" />
    <glyph glyph-name="figuredash" unicode="&#x2012;" horiz-adv-x="547" 
d="M495 391v-72h-443v72h443z" />
    <glyph glyph-name="endash" unicode="&#x2013;" horiz-adv-x="635" 
d="M575 334v-72h-515v72h515z" />
    <glyph glyph-name="emdash" unicode="&#x2014;" horiz-adv-x="807" 
d="M747 334v-72h-687v72h687z" />
    <glyph glyph-name="quoteleft" unicode="&#x2018;" horiz-adv-x="346" 
d="M110 500q0 17 2.5 39.5t12.5 49.5t29.5 58t53.5 64l28 -24q-13 -11 -25.5 -27t-22 -33t-15.5 -33.5t-6 -28.5q0 -9 11 -13t23.5 -9.5t23.5 -17t11 -36.5q0 -29 -19.5 -45.5t-40.5 -16.5q-29 0 -47.5 20.5t-18.5 52.5z" />
    <glyph glyph-name="quoteright" unicode="&#x2019;" horiz-adv-x="346" 
d="M110 451q13 11 25 27t22 33t16 33.5t6 28.5q0 9 -11 13t-23.5 9.5t-23.5 17t-11 36.5q0 29 19.5 45.5t40.5 16.5q29 0 47.5 -20.5t18.5 -52.5q0 -17 -2.5 -39.5t-12.5 -49.5t-29.5 -58t-53.5 -64l-28 24v0z" />
    <glyph glyph-name="quotesinglbase" unicode="&#x201a;" horiz-adv-x="346" 
d="M110 -140q13 11 25 27t22 33t16 33.5t6 28.5q0 9 -11 13t-23.5 9.5t-23.5 17t-11 36.5q0 29 19.5 45.5t40.5 16.5q29 0 47.5 -20.5t18.5 -52.5q0 -17 -2.5 -39.5t-12.5 -49.5t-29.5 -58t-53.5 -64l-28 24v0z" />
    <glyph glyph-name="quotedblleft" unicode="&#x201c;" horiz-adv-x="546" 
d="M110 500q0 17 2.5 39.5t12.5 49.5t29.5 58t53.5 64l28 -24q-13 -11 -25.5 -27t-22 -33t-15.5 -33.5t-6 -28.5q0 -9 11 -13t23.5 -9.5t23.5 -17t11 -36.5q0 -29 -19.5 -45.5t-40.5 -16.5q-29 0 -47.5 20.5t-18.5 52.5zM310 500q0 17 2.5 39.5t12.5 49.5t29.5 58t53.5 64
l28 -24q-13 -11 -25.5 -27t-22 -33t-15.5 -33.5t-6 -28.5q0 -9 11 -13t23.5 -9.5t23.5 -17t11 -36.5q0 -29 -19.5 -45.5t-40.5 -16.5q-29 0 -47.5 20.5t-18.5 52.5z" />
    <glyph glyph-name="quotedblright" unicode="&#x201d;" horiz-adv-x="546" 
d="M110 451q13 11 25 27t22 33t16 33.5t6 28.5q0 9 -11 13t-23.5 9.5t-23.5 17t-11 36.5q0 29 19.5 45.5t40.5 16.5q29 0 47.5 -20.5t18.5 -52.5q0 -17 -2.5 -39.5t-12.5 -49.5t-29.5 -58t-53.5 -64zM310 451q13 11 25 27t22 33t16 33.5t6 28.5q0 9 -11 13t-23.5 9.5
t-23.5 17t-11 36.5q0 29 19.5 45.5t40.5 16.5q29 0 47.5 -20.5t18.5 -52.5q0 -17 -2.5 -39.5t-12.5 -49.5t-29.5 -58t-53.5 -64z" />
    <glyph glyph-name="quotedblbase" unicode="&#x201e;" horiz-adv-x="546" 
d="M110 -140q13 11 25 27t22 33t16 33.5t6 28.5q0 9 -11 13t-23.5 9.5t-23.5 17t-11 36.5q0 29 19.5 45.5t40.5 16.5q29 0 47.5 -20.5t18.5 -52.5q0 -17 -2.5 -39.5t-12.5 -49.5t-29.5 -58t-53.5 -64zM310 -140q13 11 25 27t22 33t16 33.5t6 28.5q0 9 -11 13t-23.5 9.5
t-23.5 17t-11 36.5q0 29 19.5 45.5t40.5 16.5q29 0 47.5 -20.5t18.5 -52.5q0 -17 -2.5 -39.5t-12.5 -49.5t-29.5 -58t-53.5 -64z" />
    <glyph glyph-name="dagger" unicode="&#x2020;" horiz-adv-x="657" 
d="M60 364v76h225v260h87v-260h225v-76h-225v-614h-87v614h-225z" />
    <glyph glyph-name="daggerdbl" unicode="&#x2021;" horiz-adv-x="657" 
d="M60 10v76h225v278h-225v76h225v260h87v-260h225v-76h-225v-278h225v-76h-225v-260h-87v260h-225z" />
    <glyph glyph-name="bullet" unicode="&#x2022;" horiz-adv-x="357" 
d="M75 352q0 21 8.5 39.5t22.5 33t32.5 23t39.5 8.5t39.5 -8.5t33 -23t23 -33t8.5 -39.5t-8.5 -39.5t-23 -33t-33 -23t-39.5 -8.5t-39.5 8.5t-32.5 23t-22.5 33t-8.5 39.5z" />
    <glyph glyph-name="ellipsis" unicode="&#x2026;" horiz-adv-x="858" 
d="M110 55q0 28 18 46.5t43 18.5q28 0 46.5 -18.5t18.5 -46.5q0 -25 -18.5 -43t-46.5 -18q-25 0 -43 18t-18 43zM366 55q0 28 18 46.5t43 18.5q28 0 46.5 -18.5t18.5 -46.5q0 -25 -18.5 -43t-46.5 -18q-25 0 -43 18t-18 43zM622 55q0 28 18 46.5t43 18.5q28 0 46.5 -18.5
t18.5 -46.5q0 -25 -18.5 -43t-46.5 -18q-25 0 -43 18t-18 43z" />
    <glyph glyph-name="perthousand" unicode="&#x2030;" horiz-adv-x="1240" 
d="M60 525q0 37 9.5 71t28.5 59.5t47.5 40.5t67.5 15q38 0 66.5 -15t47.5 -40.5t28.5 -59.5t9.5 -71q0 -38 -9.5 -71.5t-28.5 -59t-47.5 -40.5t-66.5 -15q-39 0 -67.5 15t-47.5 40.5t-28.5 59t-9.5 71.5zM281 525q0 28 -3 54t-10.5 45.5t-20.5 31t-34 11.5t-34.5 -11.5
t-21 -31t-10.5 -45.5t-3 -54q0 -42 5.5 -69t15.5 -43t22 -22.5t26 -6.5q13 0 25 6.5t21.5 22.5t15.5 43t6 69zM505 175q0 37 9.5 71t28.5 59.5t47.5 40.5t67.5 15q38 0 66.5 -15t47.5 -40.5t28.5 -59.5t9.5 -71q0 -38 -9.5 -71.5t-28.5 -59t-47.5 -40.5t-66.5 -15
q-39 0 -67.5 15t-47.5 40.5t-28.5 59t-9.5 71.5zM726 175q0 28 -3 54t-10.5 45.5t-20.5 31t-34 11.5t-34.5 -11.5t-21 -31t-10.5 -45.5t-3 -54q0 -42 5.5 -69t15.5 -43t22 -22.5t26 -6.5q13 0 25 6.5t21.5 22.5t15.5 43t6 69zM875 175q0 37 9.5 71t28.5 59.5t47.5 40.5
t67.5 15q38 0 66.5 -15t47.5 -40.5t28.5 -59.5t9.5 -71q0 -38 -9.5 -71.5t-28.5 -59t-47.5 -40.5t-66.5 -15q-39 0 -67.5 15t-47.5 40.5t-28.5 59t-9.5 71.5zM1096 175q0 28 -3 54t-10.5 45.5t-20.5 31t-34 11.5t-34.5 -11.5t-21 -31t-10.5 -45.5t-3 -54q0 -42 5.5 -69
t15.5 -43t22 -22.5t26 -6.5q13 0 25 6.5t21.5 22.5t15.5 43t6 69zM640 711l57 -36l-468 -688l-57 36z" />
    <glyph glyph-name="guilsinglleft" unicode="&#x2039;" horiz-adv-x="336" 
d="M225 474l51 -31l-109 -178l109 -178l-51 -31l-155 209z" />
    <glyph glyph-name="guilsinglright" unicode="&#x203a;" horiz-adv-x="336" 
d="M169 265l-109 178l51 31l155 -209l-155 -209l-51 31z" />
    <glyph glyph-name="fraction" unicode="&#x2044;" horiz-adv-x="144" 
d="M223 742l56 -23l-348 -772l-56 23z" />
    <glyph glyph-name="zerosuperior" unicode="&#x2070;" 
d="M55 634q0 61 16 101t39.5 63.5t51.5 33t52 9.5t52 -9.5t52 -33t40 -63.5t16 -101t-16 -101t-40 -64t-52 -33.5t-52 -9.5t-52 9.5t-51.5 33.5t-39.5 64t-16 101zM286 634q0 80 -18.5 122.5t-53.5 42.5t-53 -42.5t-18 -122.5t18 -123t53 -43t53.5 43t18.5 123z" />
    <glyph glyph-name="foursuperior" unicode="&#x2074;" 
d="M54 536v48l198 252h62v-239h70l-15 -61h-55v-100h-77v100h-183zM241 757h-2l-126 -163v-2h128v165z" />
    <glyph glyph-name="fivesuperior" unicode="&#x2075;" 
d="M124 536v-23q0 -23 19 -36t46 -13q43 0 61 29t18 69q0 47 -21 66.5t-49 19.5q-22 0 -41.5 -10t-35.5 -26l-34 13l26 211h226l-16 -64h-177l-15 -117h2q24 22 49.5 30.5t51.5 8.5q59 0 89.5 -34t30.5 -90q0 -31 -11 -57.5t-31 -45.5t-49 -30t-66 -11q-40 0 -73 12t-53 30
v68h53z" />
    <glyph glyph-name="sixsuperior" unicode="&#x2076;" 
d="M61 605q0 61 17 105.5t47.5 73.5t72 43t90.5 14q11 0 26 -1.5t28 -4.5l-5 -35q-10 1 -21 1.5t-20 0.5q-75 0 -112.5 -45.5t-42.5 -128.5h3q14 26 40.5 44t60.5 18q25 0 46.5 -8t38 -23.5t26 -39.5t9.5 -55q0 -64 -41.5 -101t-105.5 -37q-75 0 -116 47t-41 132zM279 559
q0 43 -14 67t-47 24q-14 0 -25.5 -6t-20.5 -15.5t-15 -21t-9 -22.5q0 -66 18.5 -93t47.5 -27q26 0 45.5 22t19.5 72z" />
    <glyph glyph-name="sevensuperior" unicode="&#x2077;" 
d="M307 771v1h-151q-23 0 -30.5 -6.5t-7.5 -26.5v-26h-53v123h304v-43l-182 -357h-51z" />
    <glyph glyph-name="eightsuperior" unicode="&#x2078;" 
d="M64 535q0 67 83 99v3q-24 9 -38.5 21.5t-22.5 25.5t-10.5 26.5t-2.5 24.5q0 48 41 77t104 29q66 0 100 -29t34 -74q0 -26 -17.5 -49.5t-60.5 -41.5v-2q53 -20 72.5 -47t19.5 -60q0 -22 -10 -42t-29.5 -35.5t-48.5 -25t-68 -9.5q-66 0 -106 29.5t-40 79.5zM277 535
q0 32 -25 50t-66 31q-33 -11 -55 -29.5t-22 -51.5t27 -51t62 -18q37 0 58 19.5t21 49.5zM308 735q0 32 -22 49t-57 17q-32 0 -53 -18t-21 -48q0 -25 18.5 -42.5t60.5 -31.5q43 14 58.5 33.5t15.5 40.5z" />
    <glyph glyph-name="ninesuperior" unicode="&#x2079;" 
d="M90 468q11 -2 23 -2.5t17 -0.5q75 0 111.5 45.5t41.5 129.5h-3q-14 -26 -39 -43.5t-58 -17.5q-25 0 -47 8t-38.5 24t-26 39.5t-9.5 54.5t11.5 56t31 43t46 27.5t57.5 9.5q75 0 116 -45.5t41 -130.5q0 -62 -17 -107t-47 -74t-71.5 -43.5t-90.5 -14.5q-10 0 -26 1.5
t-28 5.5zM279 685q-1 64 -19.5 90.5t-48.5 26.5q-24 0 -43.5 -22t-19.5 -70q0 -42 14.5 -66t46.5 -24q14 0 25.5 6t20.5 15.5t15 21t9 22.5z" />
    <glyph glyph-name="zeroinferior" unicode="&#x2080;" 
d="M55 43q0 61 16 101t39.5 63.5t51.5 33t52 9.5t52 -9.5t52 -33t40 -63.5t16 -101t-16 -101t-40 -64t-52 -33.5t-52 -9.5t-52 9.5t-51.5 33.5t-39.5 64t-16 101zM286 43q0 80 -18.5 122.5t-53.5 42.5t-53 -42.5t-18 -122.5t18 -123t53 -43t53.5 43t18.5 123z" />
    <glyph glyph-name="oneinferior" unicode="&#x2081;" 
d="M175 -119q20 0 20 26v290h-92v35h23q43 0 82.5 6t65.5 12v-369h50v-36h-183v36h34z" />
    <glyph glyph-name="twoinferior" unicode="&#x2082;" 
d="M141 -41q37 31 60.5 55.5t36 45t17 40t4.5 41.5q0 11 -3 23.5t-10.5 23t-20 17t-31.5 6.5q-28 0 -47 -16t-19 -51v-17h-53v74q21 19 58 34t85 15q36 0 60.5 -9t39.5 -24t22 -33.5t7 -37.5q0 -27 -10 -50.5t-30 -46.5t-50 -48.5t-70 -57.5l-39 -33v-2h202l-17 -63h-265v55
z" />
    <glyph glyph-name="threeinferior" unicode="&#x2083;" 
d="M68 -46h53v-16q0 -35 23 -49.5t54 -14.5q38 0 58 22t20 58t-22 54.5t-60 18.5h-31v38h30q35 0 54.5 20t19.5 55q0 33 -17.5 52t-53.5 19q-28 0 -47 -14.5t-19 -49.5v-17h-53v74q22 19 59.5 32.5t79.5 13.5q66 0 102 -28t36 -74q0 -20 -7.5 -36t-20.5 -29t-29 -21t-32 -11
v-3q39 -2 68 -26.5t29 -65.5q0 -28 -11.5 -50.5t-32 -38t-48.5 -24t-61 -8.5q-46 0 -83 13t-58 32v74z" />
    <glyph glyph-name="fourinferior" unicode="&#x2084;" 
d="M54 -55v48l198 252h62v-239h70l-15 -61h-55v-100h-77v100h-183zM241 166h-2l-126 -163v-2h128v165z" />
    <glyph glyph-name="fiveinferior" unicode="&#x2085;" 
d="M124 -55v-23q0 -23 19 -36t46 -13q43 0 61 29t18 69q0 47 -21 66.5t-49 19.5q-22 0 -41.5 -10t-35.5 -26l-34 13l26 211h226l-16 -64h-177l-15 -117h2q24 22 49.5 30.5t51.5 8.5q59 0 89.5 -34t30.5 -90q0 -31 -11 -57.5t-31 -45.5t-49 -30t-66 -11q-40 0 -73 12t-53 30
v68h53z" />
    <glyph glyph-name="sixinferior" unicode="&#x2086;" 
d="M61 14q0 61 17 105.5t47.5 73.5t72 43t90.5 14q11 0 26 -1.5t28 -4.5l-5 -35q-10 1 -21 1.5t-20 0.5q-75 0 -112.5 -45.5t-42.5 -128.5h3q14 26 40.5 44t60.5 18q25 0 46.5 -8t38 -23.5t26 -39.5t9.5 -55q0 -64 -41.5 -101t-105.5 -37q-75 0 -116 47t-41 132zM279 -32
q0 43 -14 67t-47 24q-14 0 -25.5 -6t-20.5 -15.5t-15 -21t-9 -22.5q0 -66 18.5 -93t47.5 -27q26 0 45.5 22t19.5 72z" />
    <glyph glyph-name="seveninferior" unicode="&#x2087;" 
d="M307 180v1h-151q-23 0 -30.5 -6.5t-7.5 -26.5v-26h-53v123h304v-43l-182 -357h-51z" />
    <glyph glyph-name="eightinferior" unicode="&#x2088;" 
d="M64 -56q0 67 83 99v3q-24 9 -38.5 21.5t-22.5 25.5t-10.5 26.5t-2.5 24.5q0 48 41 77t104 29q66 0 100 -29t34 -74q0 -26 -17.5 -49.5t-60.5 -41.5v-2q53 -20 72.5 -47t19.5 -60q0 -22 -10 -42t-29.5 -35.5t-48.5 -25t-68 -9.5q-66 0 -106 29.5t-40 79.5zM277 -56
q0 32 -25 50t-66 31q-33 -11 -55 -29.5t-22 -51.5t27 -51t62 -18q37 0 58 19.5t21 49.5zM308 144q0 32 -22 49t-57 17q-32 0 -53 -18t-21 -48q0 -25 18.5 -42.5t60.5 -31.5q43 14 58.5 33.5t15.5 40.5z" />
    <glyph glyph-name="nineinferior" unicode="&#x2089;" 
d="M90 -123q11 -2 23 -2.5t17 -0.5q75 0 111.5 45.5t41.5 129.5h-3q-14 -26 -39 -43.5t-58 -17.5q-25 0 -47 8t-38.5 24t-26 39.5t-9.5 54.5t11.5 56t31 43t46 27.5t57.5 9.5q75 0 116 -45.5t41 -130.5q0 -62 -17 -107t-47 -74t-71.5 -43.5t-90.5 -14.5q-10 0 -26 1.5
t-28 5.5zM279 94q-1 64 -19.5 90.5t-48.5 26.5q-24 0 -43.5 -22t-19.5 -70q0 -42 14.5 -66t46.5 -24q14 0 25.5 6t20.5 15.5t15 21t9 22.5z" />
    <glyph glyph-name="Euro" unicode="&#x20ac;" horiz-adv-x="676" 
d="M0 246l21 54h69q-1 5 -1 14v19v19.5t1 17.5h-90l21 53h73q9 64 33 117t63 91t93 59t123 21q64 0 113.5 -17.5t96.5 -63.5v-102h-85v16q0 39 -12 62t-31 34.5t-42.5 14.5t-45.5 3q-48 0 -83 -20t-59.5 -53t-39 -75.5t-20.5 -86.5h276l-22 -53h-260q-1 -14 -1 -19.5v-13.5
q0 -11 0.5 -19t1.5 -18h231l-22 -54h-203q7 -44 21 -81t37 -64.5t56.5 -43t78.5 -15.5q22 0 46.5 3t45 14t34 31t13.5 55v19h85v-97q-48 -38 -102 -58t-122 -20q-58 0 -107 15.5t-87 47t-64 80t-37 114.5h-97z" />
    <glyph glyph-name="uni20B4" unicode="&#x20b4;" horiz-adv-x="574" 
d="M73 139q0 73 58 130h-66v53h120l73 60h-193v53h256q26 18 41.5 34.5t24 32.5t11 32t2.5 33q0 42 -27.5 66.5t-81.5 24.5q-22 0 -43.5 -4t-39 -15t-28 -30t-10.5 -49v-21h-85v102q14 12 37 24.5t50.5 22.5t59.5 16.5t64 6.5q59 0 98.5 -11.5t63.5 -30.5t34 -44t10 -53
q0 -38 -20.5 -72.5t-56.5 -64.5h81v-53h-136l-77 -60h213v-53h-269q-35 -29 -48.5 -59t-13.5 -66q0 -45 28 -73.5t90 -28.5q22 0 45.5 3t42.5 13t31 28t12 48v24h85v-102q-15 -12 -38.5 -24t-53 -21.5t-62 -15.5t-64.5 -6q-62 0 -103.5 12.5t-67 33.5t-36.5 48t-11 56z" />
    <glyph glyph-name="uni20BD" unicode="&#x20bd;" horiz-adv-x="614" 
d="M99 50q24 0 32 14t8 43v55h-94v53h94v78h-94v53h94v304h-87v50h284q42 0 88 -5.5t83.5 -26t62 -59.5t24.5 -105q0 -55 -21.5 -95t-57.5 -65.5t-84.5 -38t-102.5 -12.5h-92v-78h218v-53h-218v-112h102v-50h-286v50h47zM328 346q20 0 48.5 7t55 24.5t45 48t18.5 77.5
q0 45 -17 73.5t-41.5 44t-52 21t-48.5 5.5h-101v-301h93z" />
    <glyph glyph-name="afii61352" unicode="&#x2116;" horiz-adv-x="1145" 
d="M82 50q24 0 32 16.5t8 45.5v538h-87v50h184l311 -487q17 -26 33.5 -55t26.5 -47h4q0 11 -1 25.5t-1.5 28.5t-1 27t-0.5 22v374q0 29 -8 45.5t-32 16.5h-47v50h241v-50h-47q-24 0 -32 -16.5t-8 -45.5v-588h-87l-326 508q-17 27 -31.5 51t-23.5 42h-4q0 -10 1 -25t1.5 -31
t1 -31t0.5 -25v-377q0 -29 8 -45.5t32 -16.5h47v-50h-241v50h47zM789 542q0 34 9.5 64.5t28 53.5t46.5 37t65 14q36 0 63.5 -14t46 -37t28 -53.5t9.5 -64.5q0 -35 -9.5 -65.5t-28 -54t-46 -37t-63.5 -13.5q-37 0 -65 13.5t-46.5 37t-28 54t-9.5 65.5zM1003 542
q0 55 -12.5 90.5t-52.5 35.5q-20 0 -33 -9.5t-20.5 -26t-10.5 -40t-3 -50.5q0 -41 5.5 -65.5t15 -38t21.5 -18t25 -4.5q12 0 23.5 4.5t21 18t15 38t5.5 65.5zM1085 289v-54h-296v54h296z" />
    <glyph glyph-name="published" unicode="&#x2117;" horiz-adv-x="862" 
d="M295 203q12 0 16.5 7t4.5 21v268h-42v40h185q17 0 42 -3t47.5 -14.5t38.5 -34.5t16 -63q0 -60 -42.5 -91.5t-108.5 -31.5h-51v-98h51v-40h-178v40h21zM70 350q0 75 28.5 141t77 114.5t114.5 77t141 28.5t141 -28.5t114.5 -77t77 -114.5t28.5 -141t-28.5 -141t-77 -114.5
t-114.5 -77t-141 -28.5t-141 28.5t-114.5 77t-77 114.5t-28.5 141zM732 349q0 62 -24 117t-65 96t-96 65t-117 24t-116.5 -24t-95 -65t-64.5 -96t-24 -117t24 -116.5t64.5 -95t95 -64.5t116.5 -24t117 24t96 64.5t65 95t24 116.5zM440 343q27 0 50 19.5t23 60.5q0 38 -21 56
t-47 18h-45v-154h40z" />
    <glyph glyph-name="trademark" unicode="&#x2122;" horiz-adv-x="1014" 
d="M470 338q31 0 34 40l23 285h-54v37h143l74 -200q3 -9 6.5 -22.5t6.5 -25.5h3q4 14 7.5 25.5t8.5 21.5l78 201h151v-37h-20q-23 0 -30.5 -9.5t-7.5 -26.5q0 -3 0.5 -7t0.5 -6l23 -276h57v-37h-187v37h23q14 0 21 6t7 25q0 2 -0.5 10t-1.5 17l-13 150q-1 7 -1.5 17.5
t-0.5 21.5v21.5v16.5h-4l-93 -237h-57l-91 239h-4q-1 -11 -1 -32t-2 -36l-16 -179q0 -1 -0.5 -5t-0.5 -6q0 -12 5.5 -20.5t24.5 -8.5h22v-37h-158v37h24zM163 338q15 0 21 9t6 31v285h-40q-23 0 -38.5 -13.5t-15.5 -41.5v-32h-41v124h346v-124h-41v32q0 28 -16 41.5
t-39 13.5h-39v-325h59v-37h-195v37h33z" />
    <glyph glyph-name="partialdiff" unicode="&#x2202;" horiz-adv-x="550" 
d="M35 202q0 63 20.5 116t54.5 91.5t78 59.5t91 21q29 0 51.5 -5.5t40 -14.5t30.5 -19.5t23 -20.5h3q-1 44 -11.5 89t-34 83.5t-60 65t-90.5 32.5l11 40q54 -4 104 -25.5t89 -62.5t62 -103t23 -146q0 -72 -15.5 -145.5t-49.5 -133t-87.5 -97.5t-128.5 -38q-33 0 -69 10.5
t-66 35t-49.5 65.5t-19.5 102zM423 376q-20 25 -53.5 38.5t-74.5 13.5q-42 0 -72.5 -21.5t-50.5 -55t-29.5 -74t-9.5 -77.5q0 -29 5 -58.5t17.5 -53.5t34.5 -39t57 -15q31 0 55.5 17t44 44.5t34 63.5t24 74t14 75t4.5 68z" />
    <glyph glyph-name="product" unicode="&#x220f;" horiz-adv-x="780" 
d="M82 -200q24 0 32 14t8 43v793h-87v50h710v-50h-50q-37 0 -37 -57v-793h87v-50h-266v50h47q35 0 35 57v790h-342v-847h82v-50h-266v50h47z" />
    <glyph glyph-name="summation" unicode="&#x2211;" horiz-adv-x="593" 
d="M292 244l-247 406v50h493v-190h-56v41q0 28 -7 46.5t-18.5 29.5t-26 15.5t-30.5 4.5h-249v-3q8 -11 20.5 -29t24.5 -37l185 -302l-227 -406q-8 -13 -20.5 -33t-20.5 -31v-3h297q16 0 30.5 4.5t26 15.5t18.5 29.5t7 46.5v41h56v-190h-503v50z" />
    <glyph glyph-name="minus" unicode="&#x2212;" horiz-adv-x="662" 
d="M582 389v-72h-502v72h502z" />
    <glyph glyph-name="division" unicode="&#x2215;" horiz-adv-x="558" 
d="M437 780l71 -29l-406 -961l-72 30z" />
    <glyph glyph-name="radical" unicode="&#x221a;" horiz-adv-x="770" 
d="M30 366v73h207l172 -447h2l157 788h182v-67h-126l-190 -923h-40l-230 576h-134z" />
    <glyph glyph-name="infinity" unicode="&#x221e;" horiz-adv-x="812" 
d="M80 346q0 24 8 50t26 48.5t46 37t67 14.5q27 0 57 -10t56 -33l67 -59l64 61q23 21 52.5 31t60.5 10q39 0 67 -12t46 -31.5t26.5 -44.5t8.5 -51q0 -24 -8 -50t-26 -48t-46 -36.5t-68 -14.5q-27 0 -57 9.5t-56 32.5l-66 58l-65 -59q-23 -22 -52.5 -31.5t-60.5 -9.5
q-39 0 -67 12.5t-46 32t-26 44t-8 49.5zM359 343l-64 54q-13 11 -28 19t-36 8q-22 0 -37.5 -8t-25 -20t-14 -26.5t-4.5 -27.5q0 -37 22 -59.5t54 -22.5q42 0 82 36zM662 360q0 37 -22.5 60.5t-54.5 23.5q-21 0 -41.5 -8.5t-40.5 -28.5l-50 -49l63 -52q14 -11 28.5 -18.5
t36.5 -7.5t37 7.5t25 19.5t14.5 26t4.5 27z" />
    <glyph glyph-name="integral" unicode="&#x222b;" horiz-adv-x="515" 
d="M30 -154h66v-11q0 -22 8 -36.5t39 -14.5q40 0 54 35t14 107v596q0 116 41.5 167t127.5 51q34 0 57.5 -7.5t47.5 -21.5v-78h-66v11q0 22 -8 36.5t-39 14.5q-40 0 -54 -35t-14 -107v-596q0 -116 -41.5 -167t-127.5 -51q-34 0 -57.5 7.5t-47.5 21.5v78z" />
    </font>
</defs>
</svg>
